<svg id="Слой_1" data-name="Слой 1" xmlns="http://www.w3.org/2000/svg" viewBox="0 0 505.91984 304.73897"><defs><style>.cls-1,.cls-6{fill:#221e1f;}.cls-2{fill:#1e689b;}.cls-3{fill:#ebe344;}.cls-4{fill:#d03831;}.cls-5{fill:#151515;}.cls-6{font-size:45px;font-family:MyriadPro-Regular, Myriad Pro;}.cls-7{letter-spacing:-0.02599em;}.cls-8{letter-spacing:-0.004em;}.cls-9{letter-spacing:0.00001em;}.cls-10{letter-spacing:0.00399em;}.cls-11{letter-spacing:-0.00001em;}.cls-12{letter-spacing:0.00599em;}.cls-13{letter-spacing:0.01298em;}.cls-14{letter-spacing:0.00002em;}.cls-15{letter-spacing:-0.00998em;}</style></defs><title>alvan</title><path class="cls-1" d="M178.444,389.75753l10.0467-8.56473-9.84226-27.37427,16.39721-5.46624-4.87411-19.75292,93.76858-25.73954L327.97925,267.094,349.3119,286.4262l-1.01809,2.20642,83.85013-12.63783,4.65629,28.86851L401.53252,409.60487l-35.39818-6.06765,1.79345-4.86928c2.89258-7.85255,5.83682-16.85142,7.54553-23.26252-18.06577,12.3479-35.95425,25.886-38.27923,29.9851l-.28361,7.3738-31.6756-21.9861,1.42547-1.947-25.58082-3.42559.17545-12.26538-32.55579,26.8643-13.954-18.36128,1.17309-2.45322-41.4491,33.87681ZM324.8328,364.37334c8.18709-10.84994,17.312-22.676,22.42248-28.43511-1.17383-1.44889-2.99293-3.04125-5.31978-3.04125-.123,0-.24755.00371-.3743.01263-.90472.06022-1.59125.14348-2.10457.229-.32821,5.05067-2.69,18.73967-18.06726,29.97693Z" transform="translate(-47.69486 -267.09404)"/><path class="cls-2" d="M195.36917,331.64831,285.95711,306.781l41.86838-34.0022,16.23986,14.71737-3.045,6.59744,87.543-13.19488,3.80622,23.59854L398.62111,404.72766,371.9776,400.1602s10.6574-28.92724,9.13492-33.74845c0,0-47.95833,31.71847-48.21207,38.31591l-21.56856-14.97112s34.00219-46.43584,41.36088-53.287c0,0-3.80622-8.37368-11.41865-7.86618s-6.08994,2.79122-6.08994,2.79122,1.015,19.79232-23.59854,32.73346l13.19488,4.82121-10.91115,16.4936-28.41975-3.80622.25375-17.76234L249.41744,393.8165,239.775,381.12912l8.37367-17.5086-52.77953,43.13712-11.1649-16.23986,15.47861-13.19488-7.35868,1.77624-8.11993-22.58355,15.98611-5.32871Z" transform="translate(-47.69486 -267.09404)"/><path class="cls-3" d="M178.47339,387.45522,328.16287,267.46649l20.71637,17.64686L333.2968,315.90207c5.13877,4.2753,9.888,12.83706,4.26341,25.8622a59.30551,59.30551,0,0,1-15.59359,21.08361l10.61986,2.99145-15.733,24.41256-2.79-.45421c-8.913-1.45261-23.46919-3.61368-27.03938-3.61368-.0446,0-.08549,0-.1234.00149l-4.95329.99021-.15128-15.11559-31.62058,26.49335-14.20492-18.029,1.51208-3.70139-42.63892,36.12708Z" transform="translate(-47.69486 -267.09404)"/><path class="cls-3" d="M184.20427,388.39265l143.875-115.32835,15.41517,13.13145-15.79579,31.211s13.13144,5.89963,5.89963,22.647a54.99626,54.99626,0,0,1-21.31481,24.5501L325.79551,368.41l-11.038,17.128s-25.692-4.18683-28.54662-3.6159l-.19031-19.03108-35.2075,29.49817-9.89616-12.56051,7.23181-17.6989-52.33547,44.34241Z" transform="translate(-47.69486 -267.09404)"/><path class="cls-4" d="M308.46236,390.61021l1.11138-2.96914c13.0244-34.79714,70.67222-80.45315,73.11987-82.38005l3.10742-2.44579,13.7533,14.64055c14.97656-9.82851,28.2355-17.53833,29.12759-18.05574l9.73112-5.64316-37.00318,114.492-33.91547-7.03406,6.28992-24.42892c-10.36525,7.78267-27.11148,20.48071-39.47648,29.88623l-2.64391,2.0109Z" transform="translate(-47.69486 -267.09404)"/><path class="cls-4" d="M363.85767,350.5208s28.92724-27.02414,33.30439-29.30787l-11.79927-12.56051s-58.99635,46.43584-71.74717,80.50147l18.07952,14.083s48.27336-36.7194,49.2905-37.11061l-8.18336,31.78191,25.692,5.3287,32.35283-100.10348S379.65347,332.82189,363.85767,350.5208Z" transform="translate(-47.69486 -267.09404)"/><path class="cls-3" d="M334.75647,395.48247l23.50116-17.80819,12.58021,8.85986v5.35918l-1.26416,1.26379c-.95229.95229-12.84,12.65715-13.34554,13.15523l-2.5718,2.532Z" transform="translate(-47.69486 -267.09404)"/><path class="cls-3" d="M366.522,390.10544c-.95155.95156-13.32176,13.13145-13.32176,13.13145l-11.13877-7.875,16.28947-12.343,8.17106,5.75444Z" transform="translate(-47.69486 -267.09404)"/><polygon class="cls-5" points="0 251.409 38.515 160.115 75.127 160.115 113.166 251.409 76.078 251.409 70.848 237.144 47.549 237.144 52.779 221.453 65.617 221.453 56.583 194.35 36.613 251.409 0 251.409"/><polygon class="cls-5" points="123.627 160.115 123.627 251.409 203.985 251.409 203.985 223.83 161.191 223.355 161.191 160.115 123.627 160.115"/><polygon class="cls-5" points="191.146 160.115 226.333 251.409 260.565 251.409 297.18 160.115 260.565 160.115 244.163 205.762 231.563 160.115 191.146 160.115"/><polygon class="cls-5" points="282.44 251.409 320.479 160.115 356.616 160.115 394.656 251.409 358.518 251.409 352.337 236.669 328.563 236.669 335.219 220.977 347.107 221.453 338.548 194.826 316.675 251.409 282.44 251.409"/><polygon class="cls-5" points="408.92 251.409 408.92 160.115 444.106 160.115 471.685 197.678 471.685 160.115 505.92 160.115 505.92 251.409 472.16 251.409 445.533 214.321 444.582 251.409 408.92 251.409"/><text class="cls-6" transform="translate(0.00037 293.48897)"><tspan class="cls-7">P</tspan><tspan x="22.77051" y="0">ai</tspan><tspan class="cls-8" x="54.99023" y="0">n</tspan><tspan class="cls-9" x="79.78467" y="0">t &amp; </tspan><tspan class="cls-10" x="140.9834" y="0">R</tspan><tspan class="cls-11" x="165.37305" y="0">esin </tspan><tspan class="cls-12" x="250.78174" y="0">M</tspan><tspan x="287.23096" y="0">anufa</tspan><tspan class="cls-13" x="393.51904" y="0">c</tspan><tspan class="cls-14" x="414.26318" y="0">tu</tspan><tspan class="cls-15" x="453.95264" y="0">r</tspan><tspan x="468.21826" y="0">er</tspan></text></svg>