<svg id="Слой_1" data-name="Слой 1" xmlns="http://www.w3.org/2000/svg" viewBox="0 0 445.98613 81.8977"><defs><style>.cls-1,.cls-2{fill:#1c0840;}.cls-2{fill-rule:evenodd;}</style></defs><title>артего лого</title><path class="cls-1" d="M373.61777,407.37542a21.91493,21.91493,0,0,1-1.59112,8.32725,21.48388,21.48388,0,0,1-4.36384,6.81412,20.42356,20.42356,0,0,1-6.51118,4.57024,19.31456,19.31456,0,0,1-7.95217,1.66454,19.05462,19.05462,0,0,1-7.91762-1.66454,20.50284,20.50284,0,0,1-6.4723-4.57024,21.45088,21.45088,0,0,1-4.36608-6.81412,22.58326,22.58326,0,0,1,0-16.65332,21.44688,21.44688,0,0,1,4.36608-6.81636,20.47938,20.47938,0,0,1,6.4723-4.56918,19.05477,19.05477,0,0,1,7.91762-1.66453,19.31471,19.31471,0,0,1,7.95217,1.66453,20.40048,20.40048,0,0,1,6.51118,4.56918,21.47986,21.47986,0,0,1,4.36384,6.81636,21.90024,21.90024,0,0,1,1.59112,8.32607m-11.795-26.879a24.18918,24.18918,0,0,0-2.525-.756c-.13756-.0551-.26948-.11242-.39575-.16751l.11241.101a25.957,25.957,0,0,0-5.81494-.64584,24.91564,24.91564,0,0,0-10.47,2.24494,27.603,27.603,0,0,0-8.58309,6.08112,29.00282,29.00282,0,0,0-5.80683,8.98448,29.46388,29.46388,0,0,0,0,22.07356,29.024,29.024,0,0,0,5.80683,8.98342,27.065,27.065,0,0,0,8.58309,6.042,25.27717,25.27717,0,0,0,10.47,2.20829,26.28207,26.28207,0,0,0,6.22456-.73183c43.12266-3.85673,59.402-80.96287,59.402-80.96052C403.51383,381.46581,373.42042,383.159,361.82273,380.49645Zm-44.169,48.668-6.61337-3.82232a23.45226,23.45226,0,0,1-4.68043,2.38838,15.38152,15.38152,0,0,1-4.03341.94644l-.0195.00118-.07917.008-.01715.00117-.0975.00916-.06423.00576h-.03562c-.52426.0424-1.05874.0619-1.59793.0619a18.42374,18.42374,0,0,1-7.94981-1.75051,21.17709,21.17709,0,0,1-6.501-4.73775,22.53047,22.53047,0,0,1-5.79086-12.42832l-.016-.12733-.01609-.13885v-.00576l-.01492-.12957v-.00575l-.0161-.13309v-.00564l-.01257-.132v-.00458l-.01374-.13415v-.00458l-.00928-.13192v-.00458l-.016-.13426v-.00224l-.00811-.13544v-.00223l-.01034-.1365v-.00352l-.008-.13533v-.0034l-.00575-.13427v-.00576l-.00916-.13532V408.058l-.00917-.13661v-.00458l-.00458-.13415v-.00341l-.00458-.13767v-.00353l-.00235-.1365v-.00117l-.00681-.13991h0l-.00118-.14225V407.216l-.00235-.13885V407.076l-.00105-.13873v-.00235l-.00118-.14108v-.00234l.00118-.13874v-.00234l.00105-.13991v-.00235l.00235-.13767v-.00223l.00118-.13885v-.00223l.00681-.13768h0l.00235-.14v-.00223l.00458-.1365v-.00353l.00458-.13873v-.00235l.00917-.13532v-.00341l.00916-.13544v-.00223l.00575-.1365v-.00352l.008-.13768v-.00223l.01034-.13426v-.00341l.00811-.13309v-.00576l.016-.13415v-.00341l.00928-.13426v-.00576l.01374-.12957v-.00575l.01257-.13192v-.00576l.0161-.12968v-.008l.01492-.13192v-.00575l.01609-.12957V403.872l.016-.12968a22.5365,22.5365,0,0,1,5.79086-12.43513,21.15407,21.15407,0,0,1,6.501-4.73657,18.42211,18.42211,0,0,1,7.94981-1.75064c.36815,0,.73418.01269,1.09672.03219h.01254l.16411.00916.03206.00223.0975.00576.04934.00352.04934.00458.02525.00223.15823.01269.01269.00106.0975.0081.01715.00106a15.44088,15.44088,0,0,1,4.13208.951,23.45857,23.45857,0,0,1,4.68043,2.38837l6.61337-3.82a38.25307,38.25307,0,0,0-3.12032-2.26339l.07342-.12616a24.92121,24.92121,0,0,0-6.79921-3.22358c-.25573-.07565-.51393-.14566-.77083-.21567l-.0195-.00459-.02289-.00563-.08953-.02526-.05169-.01269a24.339,24.339,0,0,0-5.95719-.80642h-.00681l-.47376-.00458a25.04768,25.04768,0,0,0-10.586,2.268,27.19248,27.19248,0,0,0-8.61962,6.20951,29.36574,29.36574,0,0,0-5.79438,9.23458,29.86028,29.86028,0,0,0-2.08319,9.86667l-.00693.16868v.01715l-.00562.16751v.0161l-.00813.17326v.01257l-.00458.17209v.0114l-.00223.17785v.00693l-.00458.1789v.00917l-.00117.18019v.00458l-.00235.18232v.00234l.00235.18467v.00458l.00117.18243v.00575l.00458.17891v.01268l.00223.17433v.01033l.00458.17433v.01492l.00813.16986v.016l.00562.16869v.01715l.00693.16633a29.85247,29.85247,0,0,0,2.08319,9.86327,29.35245,29.35245,0,0,0,5.79438,9.23457,27.21049,27.21049,0,0,0,8.61962,6.21069,25.06374,25.06374,0,0,0,10.58605,2.268l.47376-.00458h.00681a24.44952,24.44952,0,0,0,5.95719-.80642l.05169-.01269.08953-.02291.02289-.008.0195-.00576c.2569-.06884.5151-.13885.77083-.21567a24.75745,24.75745,0,0,0,6.79921-3.22464l-.07342-.12393C315.5889,430.73961,316.62592,429.98816,317.65377,429.16447ZM262.89653,434.976v-7.16512H242.31659V409.65937h20.57994v-7.16513H242.31659V385.935h20.57994v-7.16618h-34.698V385.935h7.4325v49.041Zm-38.857-49.041v-7.16618H187.11485V385.935h15.2297v49.041h6.68564V385.935Zm-51.63575,9.47445a9.77312,9.77312,0,0,1-1.301,5.21385,10.2752,10.2752,0,0,1-3.34387,3.384,13.79155,13.79155,0,0,1-4.56918,1.79069,24.736,24.736,0,0,1-4.9775.51745,25.868,25.868,0,0,1-8.76658-1.51206V385.935h11.74112a16.69438,16.69438,0,0,1,4.11951.51745,10.20447,10.20447,0,0,1,3.60547,1.67135,8.82331,8.82331,0,0,1,2.52607,2.94588A9.05067,9.05067,0,0,1,172.40376,395.40947ZM183.32354,434.976l-15.3043-23.32624a17.66,17.66,0,0,0,8.02559-6.09029,16.83981,16.83981,0,0,0,2.97113-10.15,17.065,17.065,0,0,0-1.44886-7.20648,14.85913,14.85913,0,0,0-3.89925-5.21491,17.11306,17.11306,0,0,0-5.68643-3.1444,21.43793,21.43793,0,0,0-6.79463-1.07484H135.17968V385.935h7.57816v49.041h6.68783V412.20609a32.8541,32.8541,0,0,0,8.84,1.19419h1.33762a11.6337,11.6337,0,0,0,1.33762-.078L175.15112,434.976Zm-62.03713-21.41514h-17.6088l8.76775-20.222ZM138.004,434.976l-25.55862-58.5153L86.96122,434.976h7.35566l6.24158-14.25107H124.409l6.24052,14.25107Zm157.46487-27.22315h20.81747v5.77136H295.46885Z" transform="translate(-86.96122 -353.95357)"/><path class="cls-2" d="M432.21107,365.60177c.3154.02067.546.02866.7054.02866a3.53931,3.53931,0,0,0,2.34479-.63551,2.11944,2.11944,0,0,0,.7296-1.67487,2.20481,2.20481,0,0,0-.65383-1.63246,2.44482,2.44482,0,0,0-1.80338-.65042,4.15449,4.15449,0,0,0-1.32258.2616Zm-2.92415-5.15653h5.0096a3.997,3.997,0,0,1,2.70727.79844,2.5412,2.5412,0,0,1,.90287,1.97194,2.59889,2.59889,0,0,1-.65853,1.79422,3.93984,3.93984,0,0,1-2.14169,1.04959l2.78647,3.74091a4.80952,4.80952,0,0,0,.8856.95678,1.74515,1.74515,0,0,0,.68708.21673v.45778h-2.3448l-3.8888-5.13926h-1.02092v2.8438a2.67465,2.67465,0,0,0,.2535,1.46836,1.51964,1.51964,0,0,0,1.05992.36932v.45778h-4.36033v-.45778a1.5116,1.5116,0,0,0,1.076-.38424,2.47548,2.47548,0,0,0,.2616-1.39494V362.595a2.21088,2.21088,0,0,0-.2616-1.28135,1.33548,1.33548,0,0,0-.95326-.40492Zm13.20149,5.979a8.98136,8.98136,0,0,0-2.5479-6.44128,8.41652,8.41652,0,0,0-12.302,0,9.4147,9.4147,0,0,0,0,12.879,8.41626,8.41626,0,0,0,12.302,0A8.977,8.977,0,0,0,442.48841,366.42428Zm1.08753,0a10.1049,10.1049,0,0,1-2.86225,7.24536,9.46838,9.46838,0,0,1-13.84158,0,10.59214,10.59214,0,0,1,0-14.49541,9.48077,9.48077,0,0,1,13.84158,0A10.11216,10.11216,0,0,1,443.57594,366.42428Z" transform="translate(-86.96122 -353.95357)"/><path class="cls-1" d="M532.94734,430.44934a3.64918,3.64918,0,0,0-.40151-1.68286,4.39608,4.39608,0,0,0-1.08177-1.37086,5.13655,5.13655,0,0,0-1.61742-.92354,5.67159,5.67159,0,0,0-1.98123-.34524h-1.04618a5.51549,5.51549,0,0,1-1.15519-.12275,3.59018,3.59018,0,0,1-1.02092-.38659,2.32251,2.32251,0,0,1-.74111-.66417,1.6046,1.6046,0,0,1-.29249-.966,1.72211,1.72211,0,0,1,.37742-1.15283,2.51229,2.51229,0,0,1,.96242-.69636,4.62958,4.62958,0,0,1,1.29862-.33267,12.22242,12.22242,0,0,1,1.39835-.08376,9.736,9.736,0,0,1,.98545.05275c.34759.03559.68825.08258,1.02092.1446s.64361.13192.93611.20874c.29144.07683.55069.148.77776.21791l.82709-1.72526c-.12956-.04241-.34638-.10209-.65618-.187-.30859-.08259-.66651-.16752-1.08177-.25926-.41407-.09057-.86374-.16516-1.3478-.22824a11.38248,11.38248,0,0,0-1.46158-.09292,11.98556,11.98556,0,0,0-2.28512.21673,6.53291,6.53291,0,0,0-1.97991.70552,4.09727,4.09727,0,0,0-1.40072,1.27912,3.36119,3.36119,0,0,0-.5346,1.93294,3.2407,3.2407,0,0,0,.44967,1.70471,4.01768,4.01768,0,0,0,1.193,1.2561,5.467,5.467,0,0,0,1.71387.76859,7.77548,7.77548,0,0,0,2.0167.26043h1.04618a3.17163,3.17163,0,0,1,1.13111.19735,3.08065,3.08065,0,0,1,.91085.52767,2.58842,2.58842,0,0,1,.62176.78234,2.14549,2.14549,0,0,1,0,1.9306,2.57831,2.57831,0,0,1-.62176.78011,3.06079,3.06079,0,0,1-.91085.53,3.19776,3.19776,0,0,1-1.13111.19723H522.5886v1.871h5.27681a5.75308,5.75308,0,0,0,1.98123-.34406,5.18465,5.18465,0,0,0,1.61742-.92472,4.42262,4.42262,0,0,0,1.08177-1.37074,3.705,3.705,0,0,0,.40151-1.70471m-15.17344,5.40192v-15.7286h-4.59667v1.86987h2.43208v9.18406l-13.59384-12.05194v15.66892h2.18879V423.59281Zm-23.90442-6.64885h-5.76443l2.87015-5.27693Zm5.47076,5.59116-8.365-15.27317-8.3409,15.27317h2.40787l2.04184-3.72023h7.80651l2.043,3.72023Zm-17.8004,0v-1.871h-7.05153V420.12266h-4.62075v1.86987h2.43195v12.801Zm-14.49318,0v-1.871h-6.736v-4.73775h6.736v-1.86869h-6.736v-4.32356h6.736v-1.86987H455.691v1.86987h2.4309v12.801Zm-12.45,0-6.95521-8.396,5.22877-6.27495H450.195l-3.84182,4.7159-3.843-4.7159h-2.64986l5.20351,6.27495-6.9552,8.396h2.67511l5.56943-6.81636,5.56943,6.81636Zm-19.23551,0v-1.871H428.625v-4.73775h6.73613v-1.86869H428.625v-4.32356h6.73613v-1.86987H424.00423v1.86987h2.432v12.801Z" transform="translate(-86.96122 -353.95357)"/></svg>