<svg id="Слой_1" data-name="Слой 1" xmlns="http://www.w3.org/2000/svg" xmlns:xlink="http://www.w3.org/1999/xlink" viewBox="0 0 1920 960"><defs><style>.cls-1{fill:none;}.cls-2{clip-path:url(#clip-path);}</style><clipPath id="clip-path" transform="translate(-334 -344.94488)"><path class="cls-1" d="M1586.82383,630.44074c74.481,15.02424,136.77082,39.13711,181.8826,76.05247h-20.77322c-46.8186-25.6173-103.6183-42.2-167.91765-51.98572a11.08219,11.08219,0,0,0-7.46192,1.59141c-17.18186,10.492-35.36111,13.79083-54.971,14.81912-15.05153.78934-32.54491,17.015-33.00659,21.65568-10.17461,102.28912-35.67492,152.43-97.86478,177.62559-47.99053,14.42906-92.85848,35.98635-135.48877,62.64643.64967,44.96645-1.5373,74.38768-5.39956,94.63295a1.11,1.11,0,0,1-2.185.148c-5.82865-18.88353-5.88486-45.89327-3.0329-76.99248-3.45526,42.86991-8.22128,78.8154-14.56273,106.44005a1.23987,1.23987,0,0,1-2.3297.409c-7.43513-13.44337-4.99017-47.65469,6.27457-100.40471-8.11667,24.88419-15.19665,48.37507-18.23426,69.6086-3.189,22.29172-6.09839,40.5937-11.35091,46.85966a2.64,2.64,0,0,1-4.19461-.09137c-5.1349-6.63626-6.12474-21.49884-1.30409-42.3876,5.56044-24.09442,14.80656-48.6386,23.77386-74.50629-11.16095,26.48571-21.61247,49.77626-30.879,67.733a.98941.98941,0,0,1-1.84052-.11025,25.89278,25.89278,0,0,1-.7488-18.1232c5.13567-15.40376,16.0178-36.3004,23.31213-49.49953q-11.25531,14.28587-21.31358,28.32793a.78694.78694,0,0,1-1.41811-.55963c.151-13.84616,15.80389-31.31751,26.88655-52.25806,10.57028-19.97422,11.81926-44.97524,12.00255-70.38169q1.27651-50.7734,23.77386-88.68543c-6.13421,7.83322-12.32818,12.93427-18.59685,14.64429a2.41761,2.41761,0,0,1-2.84846-2.84154c2.39149-17.70545,21.41425-38.84193,40.601-60.0109-24.0342,26.86172-48.15568,48.81872-72.3928,64.544-1.0052.65229-2.15942-.52974-1.66745-1.70562,10.30442-24.6281,35.40595-46.2447,61.13352-67.7374-12.452,12.66371-26.84487,22.00577-41.17127,32.7732-15.95924,11.99429-27.01319,27.2184-47.25906,30.6964a1.72462,1.72462,0,0,1-1.5121-2.708c11.89871-24.1212,44.60843-47.16272,75.86144-66.692-40.43581,24.524-81.85485,51.54647-102.91042,57.96839a2.45825,2.45825,0,0,1-2.90232-3.0928c3.49184-15.31987,40.369-36.3171,84.12006-58.48231-39.05074,18.17372-83.19589,39.31148-98.32493,43.56874a34.24532,34.24532,0,0,1-15.87112,1.76185c-2.02337-.26223-2.97822-2.99-1.61791-4.68378,13.25156-16.4997,67.87811-33.7211,108.66-50.69871-41.98532,13.47017-82.13406,27.49424-107.90493,34.96462a61.11015,61.11015,0,0,1-21.68952.12652c-1.86409-.34835-2.47876-2.97157-1.048-4.35083,15.42713-14.87491,64.72015-27.82411,118.17707-40.53656-64.2561,13.98892-125.93627,27.74285-163.91027,39.33127a26.31955,26.31955,0,0,1-4.14386.93341c-10.30834,1.39683-22.02617,1.5813-34.38776,1.21146-1.97657-.0593-2.67028-2.96585-.97136-4.09559a92.73637,92.73637,0,0,1,30.07362-12.88859c60.24082-13.92128,147.34975-36.7603,147.95141-37.8971.80857-1.52157-172.51889,34.26095-212.50246,44.39543a96.96166,96.96166,0,0,1-22.16264,2.98472c-8.26531.14231-15.76494-.06984-21.32025-1.18291-2.09808-.42035-2.41191-3.641-.444-4.55506,39.34254-18.2721,147.511-37.533,241.8875-56.59349-95.82374,12.26705-186.20068,28.19615-265.89649,51.30048-14.61425,2.719-27.67074,2.46861-38.76406-1.522a2.6654,2.6654,0,0,1-.35865-4.65215c35.41262-21.40881,174.12735-40.07009,281.47779-59.56725-103.51211,9.93284-49.45348-6.12278-290.82577,50.01347-11.60771,2.84374-25.11922,2.73655-39.42908,1.39069-2.98726-.28067-3.83318-4.70308-1.20851-6.3213,41.4544-25.55669,197.82178-42.0006,314.61456-61.58345-34.35-10.1494-191.26991,26.08817-323.36871,52.5919a61.36306,61.36306,0,0,1-31.8268-2.3645,3.00138,3.00138,0,0,1-.247-5.40591c76.43168-35.50053,192.35534-51.63432,315.74324-61.31989-3.94723-3.984-6.05711-8.10862.4617-12.89035,19.92848-4.00073,51.73836-5.32816,85.63024-6.18734-46.972-.56444-89.78313-3.71741-122.739-12.99577-2.257-.6356-2.369-4.151-.16872-4.99827,19.75268-7.60525,59.56048-9.84238,112.5219-8.55975-64.63756-2.81782-119.20352-8.46135-147.00759-21.61043-2.3368-1.10516-2.02061-4.91437.46367-5.49112,35.35953-8.20922,78.51207-6.40651,125.075-.22578-60.50036-7.55649-113.32418-17.73971-150.09869-33.41889-2.5531-1.08847-2.11893-5.26842.58794-5.68659,33.74987-5.21877,75.50749-.95186,121.58281,8.42709-58.91551-9.59023-108.88811-25.95333-145.584-52.37227-1.55773-1.12141-.829-3.8281,1.02369-3.778,34.56435.93209,81.67393,12.38784,137.17588,30.884-71.35852-27.03215-121.25246-51.19069-146.1188-71.99816-2.603-2.17826-1.28244-6.83655,1.96909-6.92616,54.32606-1.49873,155.97017,57.96837,252.86359,104.19109,46.66916,22.2636,86.52294,47.50974,117.717,79.14482,13.72819,13.923,16.20618,39.79993,27.92833,49.24038,6.69026,5.38789,20.658,5.02727,23.31213.77352,35.37839-56.69454,61.78636-94.62413,105.48239-95.12928,37.42538-.43179,72.51866,24.875,105.48238,85.33392Z"/></clipPath></defs><title>колиб</title><g class="cls-2"><image width="1920" height="960" xlink:href="rainbow-149485.png"/></g></svg>