<svg id="Слой_1" data-name="Слой 1" xmlns="http://www.w3.org/2000/svg" xmlns:xlink="http://www.w3.org/1999/xlink" viewBox="0 0 403.36994 165.85587"><defs><style>.cls-1{fill:none;}.cls-2{clip-path:url(#clip-path);}.cls-3{fill:#221e1f;}</style><clipPath id="clip-path" transform="translate(-105.43303 -225.24128)"><path class="cls-1" d="M365.98929,257.575c11.44237,2.17277,21.01184,5.65992,27.94227,10.99854h-3.19135c-7.19265-3.70472-15.91868-6.10288-25.79686-7.51806a1.78955,1.78955,0,0,0-1.14636.23015,18.10676,18.10676,0,0,1-8.44509,2.1431c-2.31234.11416-4.99982,2.46067-5.07074,3.1318-1.56311,14.79282-5.48067,22.04408-15.03478,25.68781a88.435,88.435,0,0,0-20.81487,9.05979,66.6119,66.6119,0,0,1-.82953,13.6856.17246.17246,0,0,1-.33568.02141c-.89544-2.73089-.90408-6.637-.46594-11.13448a105.72669,105.72669,0,0,1-2.23724,15.39312.19375.19375,0,0,1-.35791.05915c-1.14224-1.94415-.76663-6.89172.96395-14.52031a59.602,59.602,0,0,0-2.80129,10.06664c-.48992,3.22378-.93688,5.87057-1.74382,6.77674a.42118.42118,0,0,1-.64441-.01321c-.78886-.95972-.94093-3.10912-.20034-6.13a104.3793,104.3793,0,0,1,3.65233-10.77493c-1.71464,3.8303-3.32028,7.19853-4.74389,9.79539a.15556.15556,0,0,1-.28275-.01595,3.54085,3.54085,0,0,1-.115-2.62093,48.69615,48.69615,0,0,1,3.5814-7.15851q-1.72914,2.066-3.27437,4.09672a.12147.12147,0,0,1-.21786-.08093c.0232-2.0024,2.42792-4.52907,4.13053-7.55745,1.62389-2.88862,1.81577-6.50422,1.84393-10.17844a24.83684,24.83684,0,0,1,3.65233-12.82549,5.89672,5.89672,0,0,1-2.857,2.11783.36148.36148,0,0,1-.4376-.41094c.3674-2.56052,3.28983-5.61723,6.23745-8.67864a56.137,56.137,0,0,1-11.12156,9.33421.186.186,0,0,1-.25617-.24666c1.58305-3.56166,5.43935-6.68781,9.39182-9.796a53.17433,53.17433,0,0,1-6.32506,4.73958c-2.45178,1.73459-4.15,3.93627-7.26031,4.43925a.25017.25017,0,0,1-.23231-.39163c1.828-3.48835,6.85311-6.82056,11.65445-9.64484-6.21208,3.54661-12.5752,7.45453-15.80993,8.38326a.366.366,0,0,1-.44588-.44727c.53645-2.21553,6.20181-5.2521,12.9232-8.45759-5.99928,2.62825-12.78122,5.68514-15.10546,6.30082a5.57,5.57,0,0,1-2.43825.25479.41509.41509,0,0,1-.24856-.67736c2.03581-2.38615,10.428-4.87667,16.69323-7.33193-6.45013,1.948-12.6181,3.97616-16.57723,5.05651a9.964,9.964,0,0,1-3.33212.01829.36546.36546,0,0,1-.161-.6292c2.37-2.15118,9.94283-4.02387,18.15532-5.86231-9.87154,2.02305-19.34735,4.01211-25.18122,5.688a4.26036,4.26036,0,0,1-.63661.135,35.02322,35.02322,0,0,1-5.28293.1752.3222.3222,0,0,1-.14923-.5923,14.708,14.708,0,0,1,4.62016-1.86392c9.25468-2.01326,22.637-5.31619,22.72948-5.48059.12422-.22005-26.50374,4.95474-32.64634,6.42037a15.77057,15.77057,0,0,1-3.4048.43164,17.54884,17.54884,0,0,1-3.27539-.17107.35042.35042,0,0,1-.06821-.65874c6.04412-2.64247,22.66182-5.42794,37.16071-8.18443-14.72122,1.774-28.60565,4.07767-40.84916,7.419a12.10031,12.10031,0,0,1-5.95525-.22011.37518.37518,0,0,1-.0551-.67278c5.44037-3.0961,26.75085-5.79485,43.24289-8.61448-15.90237,1.43646-7.59745-.88547-44.679,7.23283a19.83923,19.83923,0,0,1-6.05741.20112.494.494,0,0,1-.18566-.91417c6.36856-3.69595,30.391-6.074,48.33362-8.90606-5.27713-1.46778-29.38443,3.77281-49.67851,7.60572a9.98467,9.98467,0,0,1-4.88949-.34195.42359.42359,0,0,1-.03794-.78179c11.74205-5.134,29.55118-7.46724,48.507-8.86794-.60641-.57616-.93054-1.17265.07093-1.86418a95.4987,95.4987,0,0,1,13.15521-.8948c-7.21621-.08162-13.79321-.5376-18.85616-1.87941a.38294.38294,0,0,1-.02592-.72284c3.03457-1.09986,9.15016-1.42339,17.28652-1.23789-9.93014-.40751-18.313-1.22367-22.58449-3.12526a.4242.4242,0,0,1,.07124-.79411c5.43221-1.1872,12.06165-.9265,19.215-.03265-9.29456-1.0928-17.40978-2.56548-23.05937-4.833a.43294.43294,0,0,1,.09032-.82238c5.18493-.75473,11.60007-.13765,18.67853,1.21871-9.05107-1.38692-16.72827-3.75331-22.36578-7.574a.29894.29894,0,0,1,.15727-.54637c5.31.1348,12.54741,1.7915,21.07406,4.46637-10.96267-3.90933-18.62778-7.40308-22.44794-10.41221a.56257.56257,0,0,1,.3025-1.00165c8.346-.21674,23.9614,8.38326,38.84694,15.06788,7.1697,3.21971,13.29236,6.87075,18.08463,11.44575,2.109,2.01352,2.48973,5.75577,4.29058,7.121,1.02781.77919,3.17365.727,3.58139.11187,5.43512-8.199,9.49212-13.68433,16.20506-13.75739,5.74959-.06244,11.1409,3.59736,16.20505,12.3408Z"/></clipPath></defs><title>колибри лого</title><g class="cls-2"><image width="3242" height="1728" transform="translate(70.61075) scale(0.08008 0.06105)" xlink:href="../../../../../Saved Pictures/РАДУГА 22.png"/></g><path class="cls-3" d="M137.19273,391.09715a32.97285,32.97285,0,0,1-12.49771-2.35963,29.10719,29.10719,0,0,1-10.144-6.84617,31.3221,31.3221,0,0,1-6.67778-10.86261,42.65661,42.65661,0,0,1,.02163-28.50226,34.27233,34.27233,0,0,1,6.91206-11.37878,30.09109,30.09109,0,0,1,10.48644-7.31164,33.23319,33.23319,0,0,1,13.09844-2.59237,29.54682,29.54682,0,0,1,9.20207,1.35264,36.04985,36.04985,0,0,1,7.0202,3.0325l2.65285-2.567h3.72456l.38447,24.17242h-3.76661q-3.20613-11.085-7.69423-16.27318a13.94789,13.94789,0,0,0-10.9442-5.19166q-8.03784,0-12.22737,7.73564-4.18833,7.73219-4.18953,21.70909a54.93857,54.93857,0,0,0,1.43215,13.48264,28.87419,28.87419,0,0,0,3.74138,8.9961,15.51064,15.51064,0,0,0,5.85718,5.2124,16.73915,16.73915,0,0,0,7.48276,1.65912,17.2014,17.2014,0,0,0,10.66666-3.54637q4.68033-3.54636,8.52925-10.73357l3.6813,2.42646a41.26038,41.26038,0,0,1-4.19433,7.35081,26.34142,26.34142,0,0,1-5.43666,5.57418,27.33168,27.33168,0,0,1-7.46834,4.01414A29.00437,29.00437,0,0,1,137.19273,391.09715Z" transform="translate(-105.43303 -225.24128)"/><path class="cls-3" d="M224.16843,330.43566a32.86511,32.86511,0,0,1,7.12593,10.82574,37.45946,37.45946,0,0,1,2.63242,14.46428,42.41975,42.41975,0,0,1-2.22513,13.76607,32.42243,32.42243,0,0,1-6.42066,11.24513,31.44738,31.44738,0,0,1-10.35788,7.62964,33.74,33.74,0,0,1-14.16775,2.73063,33.212,33.212,0,0,1-12.541-2.38037,30.63886,30.63886,0,0,1-10.40113-6.90608A32.34922,32.34922,0,0,1,170.751,371.031a36.82867,36.82867,0,0,1-2.612-14.13936,40.61773,40.61773,0,0,1,2.54712-14.72007,34.14682,34.14682,0,0,1,6.99857-11.31656,30.15586,30.15586,0,0,1,10.46481-7.11577,34.74653,34.74653,0,0,1,25.68145-.07144A31.11282,31.11282,0,0,1,224.16843,330.43566Zm-11.00067,47.39546a37.62433,37.62433,0,0,0,2.78261-9.62749,77.93916,77.93916,0,0,0,.85544-12.15073,82.15754,82.15754,0,0,0-.74851-11.19213,38.332,38.332,0,0,0-2.54712-9.69893,18.25244,18.25244,0,0,0-4.87918-6.82312,11.33776,11.33776,0,0,0-7.57647-2.56933q-7.7477,0-11.77082,8.01446-4.02432,8.01561-4.02372,22.64235a74.63842,74.63842,0,0,0,.87827,11.73135,37.05286,37.05286,0,0,0,2.761,9.62749,17.21121,17.21121,0,0,0,4.87918,6.47286,11.4412,11.4412,0,0,0,7.27611,2.31355,11.57289,11.57289,0,0,0,7.27611-2.3389A16.06106,16.06106,0,0,0,213.16776,377.83112Z" transform="translate(-105.43303 -225.24128)"/><path class="cls-3" d="M297.06049,368.04463l-1.19907,21.2321h-55.9429v-3.64084q1.49763-.13826,3.50949-.44243a12.86581,12.86581,0,0,0,2.65405-.583,4.0426,4.0426,0,0,0,2.13982-1.82042,6.507,6.507,0,0,0,.59954-2.98641V333.09486a7.08007,7.08007,0,0,0-.471-2.77672,4.4374,4.4374,0,0,0-2.26838-1.98172,13.72693,13.72693,0,0,0-3.1887-1.05078q-1.86168-.3975-2.97484-.583v-3.64084h33.34323v3.64084q-1.36968.13826-3.232.39634a17.4371,17.4371,0,0,0-3.23076.72356,3.5851,3.5851,0,0,0-2.22632,1.88955,7.25472,7.25472,0,0,0-.55629,2.915v43.538a23.93214,23.93214,0,0,0,.38568,4.85292,4.24979,4.24979,0,0,0,1.49823,2.61311,6.1771,6.1771,0,0,0,3.1022,1.14295,45.664,45.664,0,0,0,5.50034.25578,49.04554,49.04554,0,0,0,6.65615-.44243,7.66087,7.66087,0,0,0,4.64368-1.93794,32.65848,32.65848,0,0,0,4.47308-6.69408,71.36675,71.36675,0,0,0,3.65968-7.91077Z" transform="translate(-105.43303 -225.24128)"/><path class="cls-3" d="M333.441,389.27673H299.75539v-3.64084q1.157-.08987,3.40377-.27883a11.08317,11.08317,0,0,0,3.1022-.56,4.1607,4.1607,0,0,0,2.16144-1.84346,6.44622,6.44622,0,0,0,.57791-2.91728V333.09486a6.6465,6.6465,0,0,0-.55628-2.79976,4.156,4.156,0,0,0-2.18307-1.95868,18.21911,18.21911,0,0,0-3.03853-.9586,32.84058,32.84058,0,0,0-3.46744-.67517v-3.64084H333.441v3.64084q-1.28317.13826-3.21033.39634a16.46764,16.46764,0,0,0-3.25239.72356,3.58828,3.58828,0,0,0-2.22632,1.88955,7.25472,7.25472,0,0,0-.55628,2.915v46.89773a6.524,6.524,0,0,0,.5779,2.86889,4.304,4.304,0,0,0,2.2047,1.93794,13.92729,13.92729,0,0,0,2.97485.81573,28.93452,28.93452,0,0,0,3.48787.48852Z" transform="translate(-105.43303 -225.24128)"/><path class="cls-3" d="M392.72283,358.89875a16.03,16.03,0,0,1,4.45145,5.15709,14.8838,14.8838,0,0,1,1.7121,7.30242,17.19847,17.19847,0,0,1-1.94759,8.5168,13.99534,13.99534,0,0,1-5.58564,5.482,28.121,28.121,0,0,1-8.88127,3.0325,68.91121,68.91121,0,0,1-11.83449.88717H339.09156v-3.64084q1.32642-.13826,3.33889-.41939a11.248,11.248,0,0,0,2.82465-.65212,4.17085,4.17085,0,0,0,2.16145-1.84347,6.56818,6.56818,0,0,0,.57791-2.96337V333.09486a7.25881,7.25881,0,0,0-.471-2.79976,4.211,4.211,0,0,0-2.26838-1.95868,15.75467,15.75467,0,0,0-3.08177-1.00469c-1.17023-.26269-2.19749-.47469-3.08177-.62908v-3.64084h33.00081q12.455,0,17.97761,3.733,5.52017,3.733,5.52076,11.01239a13.30469,13.30469,0,0,1-1.24112,5.9037,12.89678,12.89678,0,0,1-3.55275,4.41049,20.94853,20.94853,0,0,1-5.00773,2.98641,40.85432,40.85432,0,0,1-6.24885,2.09924v.88717a32.53584,32.53584,0,0,1,6.93369,1.60842A23.091,23.091,0,0,1,392.72283,358.89875ZM378.94075,338.9732q0-5.50274-2.84628-8.58593-2.84749-3.07628-8.53886-3.07858-.81459,0-2.11939.06913-1.3048.07259-2.24675.11752v24.54342h2.22632q6.93309,0,10.22933-3.521Q378.93956,344.99211,378.94075,338.9732Zm2.99647,31.80206q0-6.91644-3.76661-10.60913-3.76661-3.69154-10.82886-3.69384-.8146,0-2.16145.07143-1.34985.06913-1.99083.11522v24.25768a4.63581,4.63581,0,0,0,2.39693,2.92189,9.4073,9.4073,0,0,0,4.87918,1.19134,10.373,10.373,0,0,0,8.28294-3.73762Q381.93662,377.5523,381.93722,370.77526Z" transform="translate(-105.43303 -225.24128)"/><path class="cls-3" d="M475.20263,389.27673H451.89529q-6.03018-10.07914-10.02988-16.052-3.9973-5.97283-9.94338-13.81216h-2.34647v20.1122a6.35461,6.35461,0,0,0,.5779,2.84584,4.54734,4.54734,0,0,0,2.2047,1.961,14.16207,14.16207,0,0,0,2.54592.76964,27.53585,27.53585,0,0,0,2.97484.53461v3.64084H405.47765v-3.64084q1.24171-.13826,3.274-.39635a11.58971,11.58971,0,0,0,2.88954-.62908,4.258,4.258,0,0,0,2.18307-1.88955,6.685,6.685,0,0,0,.55628-2.91728V333.09486a7.25881,7.25881,0,0,0-.471-2.79976,4.211,4.211,0,0,0-2.26837-1.95868,17.53459,17.53459,0,0,0-3.232-1.02773q-1.86168-.4217-2.93159-.606v-3.64084H439.549q11.4278,0,17.35645,3.89662,5.92746,3.89547,5.92806,11.782,0,6.95446-3.65968,11.176-3.66029,4.22384-11.15085,6.6019,2.91056,4.10978,6.7847,9.5215,3.873,5.41287,8.06788,11.05848,1.32643,1.81811,3.61763,4.45657a10.63258,10.63258,0,0,0,4.04416,3.24219,15.458,15.458,0,0,0,2.50386.56q1.51926.23505,2.16145.27883ZM446.05494,340.047q0-6.6261-3.40377-9.68279-3.40257-3.05555-9.69467-3.05554h-3.38094v27.71648h3.25358q6.29151,0,9.75835-3.59245Q446.05494,347.84142,446.05494,340.047Z" transform="translate(-105.43303 -225.24128)"/><path class="cls-3" d="M508.803,389.27673H475.11732v-3.64084q1.157-.08987,3.40377-.27883a11.08309,11.08309,0,0,0,3.1022-.56,4.16072,4.16072,0,0,0,2.16145-1.84346,6.44622,6.44622,0,0,0,.57791-2.91728V333.09486a6.64635,6.64635,0,0,0-.55629-2.79976,4.15594,4.15594,0,0,0-2.18307-1.95868,18.21925,18.21925,0,0,0-3.03852-.9586,32.84071,32.84071,0,0,0-3.46745-.67517v-3.64084H508.803v3.64084q-1.28316.13826-3.21033.39634a16.46736,16.46736,0,0,0-3.25238.72356,3.58833,3.58833,0,0,0-2.22633,1.88955,7.25489,7.25489,0,0,0-.55628,2.915v46.89773a6.524,6.524,0,0,0,.57791,2.86889,4.30388,4.30388,0,0,0,2.2047,1.93794,13.92716,13.92716,0,0,0,2.97484.81573,28.93479,28.93479,0,0,0,3.48787.48852Z" transform="translate(-105.43303 -225.24128)"/></svg>