<svg id="Слой_1" data-name="Слой 1" xmlns="http://www.w3.org/2000/svg" viewBox="0 0 433.63705 97.69261"><defs><style>.cls-1{fill:#1c4075;}</style></defs><title>эльф</title><path class="cls-1" d="M452.903,393.57139c.22115-1.80135.39325-3.20293.58717-4.78258h14.19988c.13962,1.52447.26694,2.91514.438,4.78326,4.96174,0,9.85734-.10428,14.74641.03036a118.40455,118.40455,0,0,1,13.63752.844c7.12916,1.02921,11.75265,5.446,12.46379,12.51974a129.07873,129.07873,0,0,1,.46263,23.69892c-.81533,9.60254-6.16553,14.0848-16.055,14.59886-7.07535.36775-14.1793.18646-21.27051.246-1.28827.01082-2.57671.00155-4.00627.00155-.1364,2.00714-.24076,3.54342-.36522,5.37516H453.49228c-.15478-1.51971-.33023-3.24195-.5475-5.37488-6.34662,0-12.57.17-18.77871-.05956a74.64442,74.64442,0,0,1-12.45383-1.41627c-5.65778-1.18139-9.39368-5.16444-9.76367-10.70247a177.56537,177.56537,0,0,1,.052-26.89776c.5955-6.95232,5.56057-11.27575,12.49936-11.97616,7.50564-.75764,15.10029-.64244,22.657-.87921C449.05371,393.52086,450.95387,393.57139,452.903,393.57139Zm15.20128,39.49273c7.259,0,14.31252.22869,21.3404-.0966,3.50742-.16234,5.67624-2.73759,5.85526-6.27011a113.307,113.307,0,0,0-.03389-13.67518c-.23481-3.32939-2.03524-6.26876-5.62657-6.5856-7.10536-.62688-14.255-.75255-21.5352-1.09236Zm-14.90741.09493c0-8.66125.04363-17.05236-.08012-25.441-.01023-.69619-1.15371-1.97216-1.76865-1.9709-6.35182.01289-12.71531.04952-19.0501.46668a6.40236,6.40236,0,0,0-6.2854,6.32447,128.32452,128.32452,0,0,0-.10568,14.3383,6.15081,6.15081,0,0,0,6.313,6.20033C439.02088,433.36123,445.84219,433.15905,453.19691,433.15905Z" transform="translate(-76.15562 -353.63321)"/><path class="cls-1" d="M187.57456,409.47678H173.39208c-1.80672-7.97186,2.58784-16.423,10.04942-18.96716a29.31767,29.31767,0,0,1,9.14261-1.8214c12.73559-.03982,25.4901-.09381,38.20244.5516,9.08648.46135,14.05595,5.30031,14.57652,14.39836a313.41425,313.41425,0,0,1,.06245,32.77869c-.39755,8.33666-5.0373,13.43992-13.42566,13.85715a398.97185,398.97185,0,0,1-44.28012.18094c-11.85753-.731-16.51476-8.3472-14.49868-20.536h14.21517c1.68484,7.68055,3.38654,9.05424,11.35832,9.10343q10.28409.06346,20.56884.00751c9.82994-.05222,13.01716-3.843,11.65149-14.22279H194.12042V414.35461h37.2783c-.1352-3.04266-.061-5.54228-.40285-7.98364-.404-2.885-2.09162-4.96272-5.13882-5.2197-4.0606-.34244-8.14465-.47378-12.22123-.54253-5.0505-.08521-10.10435-.06492-15.15551.00291C191.46078,400.70588,189.375,402.392,187.57456,409.47678Z" transform="translate(-76.15562 -353.63321)"/><path class="cls-1" d="M326.35276,451.08109H312.08483c0-1.35914,0-2.62219,0-3.88525.00038-14.307-.07031-28.61462.06168-42.9204.02616-2.83246-.76057-3.71687-3.64014-3.667-9.73543.1686-19.47662.13922-29.21334.01228-2.55835-.03334-3.29512.83322-3.28078,3.31834.05681,9.85668.12924,19.72081-.18583,29.57-.30233,9.45067-5.01692,15.6874-12.91474,17.252-3.24646.64312-6.67216.38153-10.29064.54376v-11.693c8.01607-2.28722,8.91368-3.48287,8.93724-12.34749.03037-11.42145.00859-22.84308.0093-34.26462.00007-1.30642,0-2.61285,0-4.16889h64.78514Z" transform="translate(-76.15562 -353.63321)"/><path class="cls-1" d="M337.01454,388.76563h14.196v23.274c1.78912.07834,3.06211.17955,4.33535.18252,8.77608.02036,17.55456-.10652,26.32782.05538,14.338.26456,20.02614,6.34944,19.586,20.67108a24.267,24.267,0,0,1-.26886,2.8673c-1.589,10.53389-5.94135,14.93294-16.64229,15.18279-15.73594.3674-31.48684.09471-47.534.09471ZM351.58,424.50516V438.966c9.6363,0,19.00766.19667,28.36483-.08252,4.71419-.1407,6.62568-2.49817,6.72881-6.79756.11247-4.6878-1.64668-7.30256-6.35726-7.47671C370.85235,424.25933,361.36633,424.50516,351.58,424.50516Z" transform="translate(-76.15562 -353.63321)"/><path class="cls-1" d="M141.49162,414.27028c-1.9126,11.77647-15.107,22.425-28.9926,23.25224-16.39271.97664-30.07846-7.9739-34.40976-23.02117,2.53489-.48036,5.03512-1.35277,7.5341-1.3492,6.23767.00891,12.4832.28826,18.70975.6989,6.23231.411,12.44027,1.49417,18.66846,1.57872C129.07592,415.51223,135.16237,414.70432,141.49162,414.27028Z" transform="translate(-76.15562 -353.63321)"/><path class="cls-1" d="M79.09165,391.88766c4.0314-12.47986,16.38575-20.99783,30.37186-21.186,13.91693-.18728,26.54408,8.05035,31.12471,20.89526-4.07361.63186-8.02977,1.81349-11.96077,1.735-7.78657-.15533-15.59319-.72214-23.32865-1.64551C96.5705,390.64453,87.90582,389.78773,79.09165,391.88766Z" transform="translate(-76.15562 -353.63321)"/><path class="cls-1" d="M92.64757,358.4746c18.80142-7.33746,44.61287-1.93477,58.84865,17.70884a46.148,46.148,0,0,1-2.38149,57.3794c-15.32176,17.96844-40.36593,21.01934-55.17947,14.85835,19.239,3.963,36.37747.11523,50.49489-13.95173a43.0534,43.0534,0,0,0,13.0512-33.24772C156.54727,376.02187,129.81291,349.49042,92.64757,358.4746Z" transform="translate(-76.15562 -353.63321)"/><path class="cls-1" d="M365.851,359.2513c6.33728-1.2431,6.37749-1.21777,8.66959,4.28345,1.0478,2.51483,2.1212,5.019,3.52193,8.329,1.36209-3.13767,2.42707-5.48917,3.40954-7.87465,2.25163-5.46717,2.23528-5.47391,8.85373-5.02626,0,4.57342.08233,9.20875-.10189,13.83345-.0236.59259-1.43392,1.12994-3.07408,2.33231v-13.107l-1.01172-.23674c-1.26111,2.84449-2.51123,5.6939-3.787,8.53178-.90433,2.01162-1.30384,4.176-4.56794,4.045-2.97192-.11917-3.06619-2.19068-3.8672-3.91037a42.21976,42.21976,0,0,0-4.61558-8.41431v11.89888H365.851Z" transform="translate(-76.15562 -353.63321)"/><path class="cls-1" d="M143.00994,400.897c1.47228,2.3668-.33669,2.79121-1.96971,3.269-9.78516,2.86285-19.68111,2.26078-29.64143,1.1365-7.49914-.84646-15.0342-1.56153-22.57073-1.81419-4.00638-.13429-8.04989.839-12.30134,1.33868-1.08683-2.10437.38629-2.93272,2.18463-3.00621,7.6298-.31183,15.29585-.96632,22.8936-.53217,10.26536.58656,20.4188,3.25235,30.79909,1.6659C135.93545,402.41479,139.42492,401.60069,143.00994,400.897Z" transform="translate(-76.15562 -353.63321)"/><path class="cls-1" d="M143.52553,408.50568c-1.12545.73606-2.1579,1.83383-3.39108,2.15093-9.74277,2.505-19.54143,1.44981-29.39149.52857-8.7011-.81374-17.46167-1.08086-26.20332-1.31206-2.32538-.06153-4.67772.896-7.13311,1.40992-1.54944-2.10234-.28506-3.12368,1.62206-3.24713,7.1529-.463,14.33277-1.15979,21.47614-.934,6.94353.21952,13.84275,1.95168,20.78338,2.12136,7.13253.17437,14.29162-.73783,21.43909-1.17454Z" transform="translate(-76.15562 -353.63321)"/><path class="cls-1" d="M142.79377,395.99043c-.86148.74717-1.60768,1.88883-2.60253,2.17953-8.4432,2.467-17.04615,2.19154-25.71172,1.46056-10.02006-.84521-20.06216-1.47187-30.106-1.96025-2.33362-.11348-4.71312.71661-7.28619,1.14858-.62746-1.93506.07577-3.18605,2.19129-3.22992,7.7532-.16084,15.55192-.74592,23.25352-.14548,10.871.84752,21.65868,3.05092,32.60238.98851,2.22381-.41908,4.41879-.99113,6.62707-1.49263Z" transform="translate(-76.15562 -353.63321)"/><path class="cls-1" d="M468.787,359.29948v11.64416l.83842.33746c2.28852-2.97763,4.87211-5.77886,6.78637-8.98025,2.11109-3.53057,4.872-4.1823,8.69481-3.158v14.6659c-1.99875.70866-3.19407.4591-3.13289-2.05494.07836-3.22108.019-6.44552.019-9.66852l-.89351-.49632a109.22907,109.22907,0,0,0-6.6467,8.924c-2.16583,3.57432-4.98409,4.4878-9.19957,3.24576,0-4.378-.10383-8.91618.11053-13.43928.03262-.68822,1.54027-1.30653,2.36565-1.95718Z" transform="translate(-76.15562 -353.63321)"/><path class="cls-1" d="M505.2712,361.66359c-2.23136,2.944-4.753,5.71685-6.61651,8.87774-2.0742,3.51846-4.80472,4.35776-8.75894,3.31813V359.24018c2.08606-1.00757,2.95406-.28526,2.91408,2.04446-.05491,3.203-.0137,6.40771-.0137,9.61167q.4724.20347.94477.407a112.70641,112.70641,0,0,0,7.00452-9.155c2.17878-3.49491,5.00643-3.92793,8.89441-2.95718,0,4.41886.06483,8.845-.07862,13.2643-.01882.57943-1.105,1.12421-1.69677,1.685-.51829-.62642-1.4564-1.23454-1.48465-1.88235-.14958-3.42668-.07025-6.86333-.07025-10.29653Z" transform="translate(-76.15562 -353.63321)"/><path class="cls-1" d="M350.55973,358.767c9.18709-.00783,9.18709-.00783,9.13317,9.15711-.03149,5.35077-.87082,6.23924-6.22553,6.30955-2.63019.03458-5.26842.00212-7.89211-.168-2.53056-.1641-3.89207-1.62213-3.95062-4.20635-.01629-.71789-.04134-1.43569-.04672-2.15364C341.51113,358.77472,341.51188,358.77471,350.55973,358.767Zm.31575,2.72284c-5.7126-.01114-5.90167.14711-5.92029,4.95488-.01864,4.81762.24824,5.06475,5.48019,5.07464,5.70394.0108,5.94514-.1914,5.93756-4.97766C356.36525,361.68841,356.16038,361.50015,350.87548,361.48985Z" transform="translate(-76.15562 -353.63321)"/><path class="cls-1" d="M417.58261,373.756c2.34-4.41327,4.62469-8.85711,7.04084-13.22829,1.42991-2.58687,5.84087-2.59821,7.26419-.0166a89.60711,89.60711,0,0,1,6.53029,14.1082c-1.31854-.60322-3.076-.85949-3.8765-1.8722-2.84063-3.59369-9.874-3.58547-12.62915.01509-.78065,1.02018-2.54132,1.29047-3.8525,1.90466Zm7.2266-6.35365H431.556c-1.09657-2.16628-2.01525-3.98111-3.26291-6.44584C426.99075,363.3661,426.05762,365.09258,424.80921,367.40237Z" transform="translate(-76.15562 -353.63321)"/><path class="cls-1" d="M272.48564,374.71767c2.92062-5.4983,5.21077-9.96566,7.65469-14.34724,1.29891-2.32878,5.83217-2.31307,7.10739.01468,2.35423,4.29744,4.56375,8.67413,6.83357,13.01781l-.50388.99241c-1.25274-.53045-3.18637-.73607-3.62478-1.655-1.11288-2.33275-2.76183-2.67179-4.93623-2.49771-3.0193.24176-6.62473-1.21427-8.07344,3.28232C276.74406,374.14234,274.69783,374.16457,272.48564,374.71767Zm11.25422-13.82417c-1.3958,2.59464-2.33561,4.34167-3.46623,6.44339h6.66955C285.88107,365.20047,285.00248,363.43321,283.73986,360.8935Z" transform="translate(-76.15562 -353.63321)"/><path class="cls-1" d="M247.31217,374.0385h-3.17562V361.71743h-9.99363v12.26208h-3.50337V359.0171h16.67262Z" transform="translate(-76.15562 -353.63321)"/><path class="cls-1" d="M413.09916,358.93859v14.95862c-2.14615.65145-3.40813.46335-3.27919-2.28813.1503-3.20795.03508-6.42833.03508-9.87778H399.65582v13.28c-1.69855-1.16478-3.32071-1.73613-3.353-2.3863-.22421-4.51971-.11837-9.05579-.11837-13.68637Z" transform="translate(-76.15562 -353.63321)"/><path class="cls-1" d="M456.36722,367.726h-9.83949c-.10877,2.03535-.21414,4.00718-.32371,6.05694-2.07926.73219-3.30155.52333-3.2482-2.00289.07353-3.48177-.0082-6.9666.0457-10.449.03731-2.41026.08946-2.40946,3.13362-2.21084.13094,1.71832.264,3.46489.41313,5.42188h9.77995c.14231-1.6668.29026-3.399.46813-5.4822l3.22536-.24779c0,4.73593.115,9.16151-.10992,13.56972-.03878.75989-1.52145,1.44611-3.02434,2.77316C456.6596,371.90084,456.52051,369.91467,456.36722,367.726Z" transform="translate(-76.15562 -353.63321)"/><path class="cls-1" d="M328.87539,365.97413l8.91321,7.80875c-6.88126,2.41616-8.30273-6.37125-13.37455-6.36984-2.56245,1.80054,1.56705,6.74774-4.12332,6.71323,0-5.059,0-9.91759-.00222-14.77772,2.71469-.578,2.71469-.578,3.50191,5.19553,5.29217.45394,6.97642-7.74625,13.38573-5.32038Z" transform="translate(-76.15562 -353.63321)"/><path class="cls-1" d="M192.23883,374.61322c-.80124-.71321-2.25815-1.39362-2.29574-2.145-.22-4.3969-.108-8.81043-.108-13.62455,4.20822,0,8.00886-.03153,11.80871.00987,3.09238.03367,4.11961,2.03627,4.21737,4.73553.10328,2.85165-.458,5.37208-3.9081,5.82188a17.50419,17.50419,0,0,1-3.95032.08338c-3.31247-.3273-5.79618.18385-4.883,4.782Zm1.073-7.82371a39.26315,39.26315,0,0,0,6.76836-.12007,3.44071,3.44071,0,0,0,2.17338-2.52518,3.35609,3.35609,0,0,0-2.14784-2.48455,41.7216,41.7216,0,0,0-6.7939-.119Z" transform="translate(-76.15562 -353.63321)"/><path class="cls-1" d="M270.40963,359.08182c0,4.54022.10835,8.9507-.10385,13.34568-.03649.75618-1.43661,1.44653-2.20684,2.16728l-.91535-.6879V361.81719h-10.154v12.19659c-1.3081.07437-2.20882.12556-3.32606.18909V359.08182Z" transform="translate(-76.15562 -353.63321)"/><path class="cls-1" d="M227.65314,358.86052c-3.03116,4.82683-5.7004,9.09049-8.39118,13.34049-.25169.39753-.595.94706-.97227,1.01773-1.42844.26761-2.88839.367-4.33655.52935l2.2532-3.995c-1.90146-2.96616-4.31141-6.72556-6.95411-10.848,6.6887-.63233,5.79118,6.24588,9.25791,8.17926C221.92328,365.00187,220.82085,358.31661,227.65314,358.86052Z" transform="translate(-76.15562 -353.63321)"/><path class="cls-1" d="M185.02057,359.01245c-.17106,1.64512-.17106,1.64512-9.44126,2.8263v12.13508c-1.27535.11229-2.17462.19147-3.32852.293V359.01245Z" transform="translate(-76.15562 -353.63321)"/><path class="cls-1" d="M506.62013,353.63321c-3.32318,4.634-11.22375,4.46891-13.69006,0Z" transform="translate(-76.15562 -353.63321)"/></svg>