<svg id="Слой_1" data-name="Слой 1" xmlns="http://www.w3.org/2000/svg" viewBox="0 0 481.35998 94.81043"><defs><style>.cls-1{fill:#de2a2c;}.cls-2{fill:#221e1f;}.cls-3{fill:#fff;}</style></defs><title>giacomini</title><path class="cls-1" d="M151.76637,309.9379a47.40431,47.40431,0,1,1-47.60064-47.45275A47.29529,47.29529,0,0,1,151.76637,309.9379Zm-49.38655,16.40045a46.12786,46.12786,0,0,0,6.17194-1.08641,47.78233,47.78233,0,0,0,5.60734-2.58041c.73158-.34065,1.18-.01946,1.0723.78492a5.86214,5.86214,0,0,1-.36989,1.1319,18.4786,18.4786,0,0,0-1.141,8.45188c.34114,2.96394,1.53524,5.91331-.04692,8.99833-.7188,1.40158.37478,2.19483,2.11759,2.22157,1.73377.02658,3.46243.33149,5.19521.49444,1.26535.119,2.53345.26083,3.801.26735.31058.0016.62368-.48643.93563-.74936a5.04245,5.04245,0,0,0-.963-.66616c-.72993-.28976-1.53521-.41035-2.23322-.755-1.03557-.51138-1.96856-1.234-3.01177-1.72553a2.46755,2.46755,0,0,1-1.56436-2.88721c.57682-3.579,1.11674-7.1657,1.79106-10.72667.45183-2.386,1.28751-4.70783,1.628-7.10433.43636-3.07132-.67349-4.87167-3.49628-4.94906a36.02861,36.02861,0,0,0-5.00287-.00445c-2.05373.23209-4.07387.76043-6.10912,1.15772-.634.12378-1.274.31187-1.57049-.5707-.57428-1.70956,1.31435-5.27565,3.055-5.72558,2.0844-.53878,2.78533-1.69916,2.30637-3.81811-.456-2.01753-.13467-2.58907,1.62186-3.735,2.20621-1.43932,4.32239-3.01589,6.50215-4.49683a2.63313,2.63313,0,0,0,1.09694-2.80857q-.58059-5.05917-1.01923-10.13417a3.02956,3.02956,0,0,1,1.33-3.13374,2.67178,2.67178,0,0,1,3.2142.55615c1.06147.94315,1.89954,2.1335,2.90751,3.14379a1.57969,1.57969,0,0,0,1.24152.42879A3.26821,3.26821,0,0,0,129.944,283.558c.14076-.6897-.04776-.99665-.80194-1.27641a8.70254,8.70254,0,0,1-2.801-1.71262c-1.83165-1.68462-2.43484-3.92658-2.67287-6.355a15.49225,15.49225,0,0,0-1.02423-4.26775c-.70708-1.74156-1.94849-2.19681-3.70619-1.51554a8.51074,8.51074,0,0,0-2.90121,1.61552,37.029,37.029,0,0,0-4.73208,5.35189,11.77117,11.77117,0,0,1-6.03982,5.00847c-2.00522.66525-3.99952,1.3907-5.931,2.24278a39.71478,39.71478,0,0,0-4.84044,2.57087,3,3,0,0,0-1.441,3.19944c.53953,3.21891.91854,6.47945,1.70093,9.63935,1.05283,4.25216,1.70181,8.50012.53212,12.76965a26.40925,26.40925,0,0,1-2.51453,5.51873c-1.58387,2.896-2.2552,5.85149-.72778,8.92031,2.09505,4.20926,4.32651,8.35058,6.49568,12.523.24546.47213.46618.95713.69837,1.43615l-.11862.29317c-3.11521-1.637-5.85567-.2349-8.64305.82582a9.82042,9.82042,0,0,1-1.71818.51085,3.65931,3.65931,0,0,1-3.18145-.57205c-1.7477-1.41056-2.68293-1.39944-4.13639.36675a6.50941,6.50941,0,0,1-4.55671,2.73309,1.40723,1.40723,0,0,0-.76753.30932,2.888,2.888,0,0,0-.45317.74593c.24193.0803.49427.25267.72419.22668,2.29836-.25983,4.5892-.59055,6.89025-.82046a21.26339,21.26339,0,0,1,3.80758-.11111c1.78564.14471,3.55175.65561,5.33349.69711,3.62888.0845,7.26772.06149,10.89228-.12018,1.90737-.09562,2.49565-1.051,2.45786-2.98336a34.06732,34.06732,0,0,0-1.8528-10.33031C103.39337,329.46046,102.89793,327.914,102.37982,326.33835Zm27.29759-37.60107-.33289.30371c.14265.35439.28336.70958.42832,1.063.60426,1.4734,1.27073,2.92457,1.80442,4.42306,2.45925,6.905,3.18514,14.12612,3.82257,21.36018a2.0369,2.0369,0,0,0,2.20955,2.11884c1.15852-.09476,1.75278-.89485,1.50961-2.3577-.61339-3.69019-1.118-7.41466-2.02226-11.0365a44.44664,44.44664,0,0,0-6.40784-14.97585A5.76329,5.76329,0,0,0,129.67741,288.73728Zm4.25928,1.11971a52.73927,52.73927,0,0,1,3.13183,5.94642,35.05849,35.05849,0,0,1,2.20792,11.8162c.03068,1.634.80885,2.51943,2.1111,2.495,1.11378-.02089,1.66616-.59782,1.42881-2.37227a49.05859,49.05859,0,0,0-1.65353-8.03967,22.47463,22.47463,0,0,0-4.83249-8.72914C135.68936,290.28005,134.97607,289.60706,133.93669,289.857Z" transform="translate(-56.95781 -262.48513)"/><path class="cls-1" d="M421.24332,331.538H405.03366c-.02625-.44143-.0668-.82918-.06991-1.21723q-.11829-14.816-.24624-29.63185a7.47887,7.47887,0,0,0-.409-2.33259c-.65654-1.8936-1.73238-2.557-3.85371-2.53681a3.24907,3.24907,0,0,0-3.412,2.62494,16.2013,16.2013,0,0,0-.50569,4.0155c-.06279,9.07791-.06475,18.15625-.08605,27.23445-.00137.59248-.00017,1.185-.00017,1.84H380.48853c-.02721-.43973-.07585-.86076-.076-1.28181-.0041-9.95823-.20224-19.92174.06117-29.873.20476-7.7352,3.2978-14.38313,10.42746-17.95223a22.87908,22.87908,0,0,1,21.56411.32446,1.70307,1.70307,0,0,0,1.34827-.01848,22.92978,22.92978,0,0,1,23.20936.71064c4.43482,2.59984,6.78779,6.95128,7.91444,11.8437a41.76458,41.76458,0,0,1,1.07809,8.644c.13734,8.63629.04937,17.27614.04937,25.91462V331.497H429.76092c0-1.31.00612-2.61772-.001-3.92534q-.07215-13.317-.16251-26.63388a7.92985,7.92985,0,0,0-.32384-2.11564c-.64456-2.22415-1.75278-3.05543-3.86092-2.99647-2.16363.0605-3.3281.96514-3.70863,3.30261a36.62677,36.62677,0,0,0-.37049,5.60422c-.05988,8.318-.06528,16.63632-.09,24.95452C421.2418,330.277,421.24332,330.86693,421.24332,331.538Z" transform="translate(-56.95781 -262.48513)"/><path class="cls-1" d="M350.6262,333.05385c-9.415-.2434-17.03812-3.978-22.6168-11.58253a24.87015,24.87015,0,0,1-4.48234-17.93845c1.42615-13.31047,12.02578-21.582,22.65589-23.16006a26.96494,26.96494,0,0,1,30.99372,22.8184c1.98082,15.8351-9.77942,27.35879-22.0304,29.36748C353.65266,332.80358,352.13353,332.8926,350.6262,333.05385Zm10.30761-26.53693a10.53193,10.53193,0,1,0-21.06322-.13882,10.53187,10.53187,0,1,0,21.06322.13882Z" transform="translate(-56.95781 -262.48513)"/><path class="cls-1" d="M278.39245,331.53115h-16.26c0-.54506,0-1.08387,0-1.62268q-.00027-4.13937.00177-8.27873c.001-.55065.00838-1.04487-.77634-1.04071-3.1137.01649-6.22754.00677-9.47929.00677v10.90626H235.62356c0-2.28446-.0136-4.58754.00247-6.89042.05608-8.0381-.03379-16.08129.233-24.11256a21.46072,21.46072,0,0,1,8.26286-16.74767c2.68751-2.14388,5.89425-2.95884,9.2117-3.402a25.76387,25.76387,0,0,1,10.91628.76024c6.42524,1.92325,10.39933,6.29492,12.462,12.548a27.8081,27.8081,0,0,1,1.52981,8.689c.02344,9.27766.09691,18.5552.15047,27.83279C278.39462,330.60951,278.39245,331.03966,278.39245,331.53115Zm-16.42955-25.3304c.01438-2.53031.28179-5.00229-.5376-7.39812-.69267-2.02522-1.97813-2.87327-4.29627-2.92339-2.27944-.04929-3.88149.861-4.58353,2.75534-.90846,2.45139-.50231,5.00975-.62537,7.56617Z" transform="translate(-56.95781 -262.48513)"/><path class="cls-1" d="M516.2125,331.54761H500.07787c-.02268-.42937-.05939-.81521-.06106-1.20121-.04134-9.47931-.06946-18.95868-.13324-28.43785a9.43421,9.43421,0,0,0-.38086-2.588,4.7551,4.7551,0,0,0-9.17253.00664,16.80116,16.80116,0,0,0-.58605,4.24762c-.03437,8.75931.01013,17.51891.02818,26.27843.00106.5163.00015,1.0326.00015,1.64609H473.67c-.02016-.36334-.05988-.74723-.06-1.13113-.00343-10.07967-.02748-20.15944.0041-30.239a20.5285,20.5285,0,0,1,18.4026-19.89938,25.328,25.328,0,0,1,10.87327,1.12567c6.86431,2.445,10.64446,7.66364,12.38012,14.46873a31.42981,31.42981,0,0,1,.90135,7.34412c.10362,8.95853.04107,17.919.0411,26.87868C516.21253,330.51758,516.2125,330.98816,516.2125,331.54761Z" transform="translate(-56.95781 -262.48513)"/><path class="cls-1" d="M192.40736,317.16764v-14.731h15.88169v29.47844c-2.95364.33227-5.94481.7835-8.95269.98349-6.45647.42921-12.82882-.09107-18.71616-3.01311-8.63031-4.28347-13.48543-11.27107-14.2189-20.94865-.50578-6.67313.81474-12.90937,5.04671-18.26475a27.05476,27.05476,0,0,1,17.92449-10.12011c6.30927-.92445,12.59617-.21894,18.9199.97578v15.60785c-3.30392-.40173-6.582-.861-9.87348-1.18279a19.77867,19.77867,0,0,0-8.969,1.07882,10.54684,10.54684,0,0,0-5.698,15.10341C185.22706,314.957,189.27646,317.37972,192.40736,317.16764Z" transform="translate(-56.95781 -262.48513)"/><path class="cls-1" d="M321.36428,315.96767v16.5412c-8.28009.88729-16.4671,1.79636-24.39829-1.846-10.91166-5.01114-16.58064-15.10961-15.43475-27.0768,1.33609-13.95323,11.9467-21.23263,22.035-23.05176,5.78335-1.04287,11.53294-.3274,17.32845.44436v16.18155c-2.22539-.3305-4.41053-.73237-6.6135-.96635-4.82262-.51225-9.321.2513-13.11158,3.588-3.75132,3.30214-3.81569,10.01956-.14256,13.41242a13.37722,13.37722,0,0,0,9.43646,3.49913c2.94888-.00639,5.8972-.35176,8.8454-.55181C319.94391,316.09846,320.57751,316.03485,321.36428,315.96767Z" transform="translate(-56.95781 -262.48513)"/><path class="cls-1" d="M213.79689,281.27265h16.08943v50.22659H213.79689Z" transform="translate(-56.95781 -262.48513)"/><path class="cls-1" d="M538.02833,331.54826H521.9401V281.32171h16.08823Z" transform="translate(-56.95781 -262.48513)"/><path class="cls-1" d="M467.82213,281.30832v50.223h-16.052v-50.223Z" transform="translate(-56.95781 -262.48513)"/><path class="cls-2" d="M313.84389,341.05049h3.80877c.22737,3.50849.45226,6.97877.67717,10.44905l.371.01653c.42783-1.62252.8983-3.23553,1.2632-4.87209.15389-.69038.45386-.884,1.12948-.89962,3.16216-.073,3.15932-.09134,3.93861,2.96568.2444.95866.50555,1.913.759,2.86932l.33881.00226c.23748-3.46393.475-6.92786.71886-10.48525h3.917a46.37776,46.37776,0,0,1-.28749,5.43478c-.499,3.0176-1.24075,5.99507-1.88062,8.98939-.16.74862-.61292.96626-1.37529.96664-3.03374.00153-3.03108.02739-4.06494-2.77512-.26868-.72816-.55957-1.4481-.84026-2.17184l-.32493-.01768c-.452,1.28873-.94863,2.56408-1.33966,3.87106a1.33,1.33,0,0,1-1.53091,1.09772c-3.08469-.0336-3.08513.00276-3.94948-3.0127A38.48164,38.48164,0,0,1,313.84389,341.05049Z" transform="translate(-56.95781 -262.48513)"/><path class="cls-2" d="M452.429,341.00814v15.23715h-3.68121v-7.405l-.23168-.055c-.51035,1.26939-1.11173,2.51159-1.50187,3.81691-.30472,1.01953-1.004.83165-1.69409.83095-.68406-.0007-1.39808.20244-1.70619-.80186a20.87388,20.87388,0,0,0-1.62994-3.76174v7.36734h-3.80042V341.07519h4.35261c.858,2.14772,1.72415,4.316,2.71465,6.79544.33319-.63649.551-.9797.7004-1.35051.64066-1.59079,1.23905-3.19909,1.90852-4.7774.12714-.29975.49467-.68427.77173-.7015C449.85828,340.96483,451.09247,341.00814,452.429,341.00814Z" transform="translate(-56.95781 -262.48513)"/><path class="cls-2" d="M538.31778,341.08468v15.2418c-1.33623,0-2.63959.04448-3.93527-.03561-.27609-.01706-.60246-.44437-.77253-.75548-1.10976-2.03028-2.18095-4.08167-3.27009-6.12331a2.36711,2.36711,0,0,0-.785-.92784v7.75911h-3.7162v-15.1601h4.56255l3.87378,7.87132.23391-.04122v-7.82867Z" transform="translate(-56.95781 -262.48513)"/><path class="cls-2" d="M472.58143,349.09878c-.2818,1.39524-.47762,2.94034-.92018,4.41119a4.34145,4.34145,0,0,1-3.83071,3.33271,19.32782,19.32782,0,0,1-4.96908-.167,4.15563,4.15563,0,0,1-3.14285-3.01067,14.28146,14.28146,0,0,1-.0549-9.3882,4.42114,4.42114,0,0,1,3.86268-3.30632,18.47362,18.47362,0,0,1,4.84983.124,4.45959,4.45959,0,0,1,3.4664,3.596C472.20435,346.06487,472.32406,347.50291,472.58143,349.09878Zm-4.0485-.05862c-.17423-1.14057-.26236-2.2172-.51741-3.25271a2.01978,2.01978,0,0,0-2.282-1.5028c-1.08829.00524-2.01319.24095-2.35063,1.40635a11.03,11.03,0,0,0,.03322,6.4678c.3477,1.11659,1.23352,1.33306,2.271,1.33312,1.04106.00008,1.95624-.22459,2.25281-1.34783C468.21183,351.1146,468.34587,350.04869,468.53293,349.04016Z" transform="translate(-56.95781 -262.48513)"/><path class="cls-2" d="M519.42045,348.91155c-.31093,1.55106-.50774,3.13652-.96211,4.64434a4.25311,4.25311,0,0,1-3.743,3.2654,18.64223,18.64223,0,0,1-5.0809-.165c-1.846-.347-2.83242-1.86292-3.32326-3.59687a14.99966,14.99966,0,0,1-.02151-8.26949,5.13773,5.13773,0,0,1,5.15971-4.02252,13.81154,13.81154,0,0,1,2.74755.07113c3.07529.49581,4.72725,2.60662,4.96063,6.23335.03838.59629.00542,1.19719.00542,1.796Zm-4.0638-.00125c-.18073-1.08329-.28708-2.15724-.55218-3.19044a1.96992,1.96992,0,0,0-2.20773-1.43218c-1.07136.001-2.01668.18439-2.37685,1.36235a10.91315,10.91315,0,0,0-.00378,6.46567c.35508,1.17879,1.28086,1.38029,2.36118,1.37842,1.06582-.00185,1.93268-.31891,2.21493-1.41492C515.05821,351.04637,515.17343,349.9747,515.35665,348.9103Z" transform="translate(-56.95781 -262.48513)"/><path class="cls-2" d="M399.01854,356.33442c-1.42143,0-2.58243.06031-3.73063-.03436a1.61708,1.61708,0,0,1-1.05387-.72794c-.87191-1.45137-1.66-2.95314-2.71125-4.36937v5.02913h-3.7297V341.06c2.2343,0,4.46646-.12625,6.677.03789a3.94213,3.94213,0,0,1,3.66352,3.42134c.36533,1.98479.31122,3.93034-1.52813,5.318-.31183.23525-.63445.45623-1.0367.74442C396.704,352.47469,397.79973,354.30195,399.01854,356.33442Zm-7.47706-12.23313v3.89442a7.51135,7.51135,0,0,0,2.6107-.92468,2.03447,2.03447,0,0,0-.06465-2.01932C393.54477,344.51658,392.54853,344.44143,391.54148,344.10129Z" transform="translate(-56.95781 -262.48513)"/><path class="cls-2" d="M349.299,356.33209a29.37551,29.37551,0,0,1-3.57914-.05364c-.34429-.04362-.80622-.69612-.86818-1.12033-.14394-.98582-.62941-1.26736-1.537-1.17262a6.70137,6.70137,0,0,1-1.55487-.00105c-1.33082-.17488-2.22179.15451-2.36359,1.68211a1.04241,1.04241,0,0,1-.767.636c-1.11.07367-2.22782.03028-3.49814.03028.59142-2.04346,1.12978-3.98256,1.71507-5.90738.8686-2.85656,1.77894-5.70042,2.65131-8.55586.18466-.60448.44458-.93159,1.16356-.88185,1.26931.08784,2.86643-.387,3.729.22111.84721.59729,1.00014,2.23341,1.37265,3.43993C346.94745,348.48582,348.09255,352.33506,349.299,356.33209Zm-5.57639-5.78754c-.45592-1.60447-.8821-3.10432-1.30828-4.60416l-.4445.04147c-.41285,1.4936-.8257,2.98721-1.2612,4.56269Z" transform="translate(-56.95781 -262.48513)"/><path class="cls-1" d="M424.807,341.062v3.42281h-6.40363c-.42876,1.838-.28737,2.03113,1.36887,2.03217,1.50756.00095,3.01512.00022,4.59316.00022v3.61155c-1.47184,0-2.89608-.0006-4.32035.00015-1.72828.00091-1.72936.00138-1.77053,1.76585-.00726.31275-.001.62581-.001,1.08046H424.795v3.35h-10.3255c0-2.67929-.00273-5.26343.00082-7.84758.0029-2.11753.01558-4.23508.01875-6.35262.00079-.53649-.03882-1.06841.74918-1.06636C418.38752,341.06681,421.53685,341.062,424.807,341.062Z" transform="translate(-56.95781 -262.48513)"/><path class="cls-2" d="M370.49751,341.1286h10.12916v3.348H374.2113V346.515h6.02759v3.59788c-1.44049,0-2.86467-.00081-4.28882.00021-1.75834.00126-1.75887.00191-1.77783,1.7418-.00345.31828-.00049.63662-.00049,1.07338h6.43268v3.39134H370.49751Z" transform="translate(-56.95781 -262.48513)"/><path class="cls-2" d="M481.79952,344.47924c-1.198,0-2.18836-.02824-3.1761.01027-.62338.02428-.82029-.21074-.8589-.82574-.16652-2.65035-.18519-2.65343,2.4036-2.65749,3.03024-.00473,6.06047-.00109,9.18352-.00109v3.402h-3.7878v11.85727h-3.76432Z" transform="translate(-56.95781 -262.48513)"/><path class="cls-2" d="M356.71972,356.23376V344.46135h-3.92365v-3.37394H364.291v3.28772h-3.7483v11.85863Z" transform="translate(-56.95781 -262.48513)"/><path class="cls-2" d="M495.5491,341.05937H499.168v15.17889H495.5491Z" transform="translate(-56.95781 -262.48513)"/><path class="cls-2" d="M428.79084,348.45941h5.81309v2.509h-5.81309Z" transform="translate(-56.95781 -262.48513)"/><path class="cls-3" d="M102.37982,326.33835c.51811,1.57566,1.01355,3.12211,1.53492,4.65977a34.06732,34.06732,0,0,1,1.8528,10.33031c.03779,1.93241-.55049,2.88774-2.45786,2.98336-3.62456.18167-7.2634.20468-10.89228.12018-1.78174-.0415-3.54785-.5524-5.33349-.69711a21.26339,21.26339,0,0,0-3.80758.11111c-2.30105.22991-4.59189.56063-6.89025.82046-.22992.026-.48226-.14638-.72419-.22668a2.888,2.888,0,0,1,.45317-.74593,1.40723,1.40723,0,0,1,.76753-.30932,6.50941,6.50941,0,0,0,4.55671-2.73309c1.45346-1.76619,2.38869-1.77731,4.13639-.36675a3.65931,3.65931,0,0,0,3.18145.57205,9.82042,9.82042,0,0,0,1.71818-.51085c2.78738-1.06072,5.52784-2.46284,8.64305-.82582l.11862-.29317c-.23219-.479-.45291-.964-.69837-1.43615-2.16917-4.17243-4.40063-8.31375-6.49568-12.523-1.52742-3.06882-.85609-6.02427.72778-8.92031a26.40925,26.40925,0,0,0,2.51453-5.51873c1.16969-4.26953.52071-8.51749-.53212-12.76965-.78239-3.1599-1.1614-6.42044-1.70093-9.63935a3,3,0,0,1,1.441-3.19944,39.71478,39.71478,0,0,1,4.84044-2.57087c1.93147-.85208,3.92577-1.57753,5.931-2.24278a11.77117,11.77117,0,0,0,6.03982-5.00847,37.029,37.029,0,0,1,4.73208-5.35189,8.51074,8.51074,0,0,1,2.90121-1.61552c1.7577-.68127,2.99911-.226,3.70619,1.51554a15.49225,15.49225,0,0,1,1.02423,4.26775c.238,2.42841.84122,4.67037,2.67287,6.355a8.70254,8.70254,0,0,0,2.801,1.71262c.75418.27976.9427.58671.80194,1.27641a3.26821,3.26821,0,0,1-2.49673,2.75986,1.57969,1.57969,0,0,1-1.24152-.42879c-1.008-1.01029-1.846-2.20064-2.90751-3.14379a2.67178,2.67178,0,0,0-3.2142-.55615,3.02956,3.02956,0,0,0-1.33,3.13374q.44325,5.07314,1.01923,10.13417a2.63313,2.63313,0,0,1-1.09694,2.80857c-2.17976,1.48094-4.29594,3.05751-6.50215,4.49683-1.75653,1.14595-2.07789,1.71749-1.62186,3.735.479,2.11895-.222,3.27933-2.30637,3.81811-1.74061.44993-3.62924,4.016-3.055,5.72558.29647.88257.9365.69448,1.57049.5707,2.03525-.39729,4.05539-.92563,6.10912-1.15772a36.02861,36.02861,0,0,1,5.00287.00445c2.82279.07739,3.93264,1.87774,3.49628,4.94906-.34048,2.3965-1.17616,4.71831-1.628,7.10433-.67432,3.561-1.21424,7.14765-1.79106,10.72667a2.46755,2.46755,0,0,0,1.56436,2.88721c1.04321.49148,1.9762,1.21415,3.01177,1.72553.698.34466,1.50329.46525,2.23322.755a5.04245,5.04245,0,0,1,.963.66616c-.31195.26293-.62505.751-.93563.74936-1.26752-.00652-2.53562-.14836-3.801-.26735-1.73278-.163-3.46144-.46786-5.19521-.49444-1.74281-.02674-2.83639-.82-2.11759-2.22157,1.58216-3.085.38806-6.03439.04692-8.99833a18.4786,18.4786,0,0,1,1.141-8.45188,5.86214,5.86214,0,0,0,.36989-1.1319c.1077-.80438-.34072-1.12557-1.0723-.78492a47.78233,47.78233,0,0,1-5.60734,2.58041A46.12786,46.12786,0,0,1,102.37982,326.33835Zm-1.77043-29.94909c1.11968.04353,1.46359-.2778,1.43446-1.10842a12.181,12.181,0,0,0-.15584-1.30534c-.67893-4.70093,1.142-7.80137,5.33025-9.06851a6.26714,6.26714,0,0,0,1.36167-.42889,4.56539,4.56539,0,0,0,.88944-.92828,4.23546,4.23546,0,0,0-1.18653-.22949c-3.879.38445-6.912,2.51041-9.78532,4.90083a1.63234,1.63234,0,0,0-.30028,1.38367c.527,2.04066,1.13523,4.06175,1.77538,6.0704C100.08038,296.01338,100.48573,296.2567,100.60939,296.38926Zm5.36925,2.3a11.13036,11.13036,0,0,0,8.77687-2.41558,2.59813,2.59813,0,0,0-.63015-4.47286,7.102,7.102,0,0,1-3.77857,3.94917,28.04493,28.04493,0,0,1-2.84154.87917C106.5938,296.93185,105.78948,297.35856,105.97864,298.68931Zm7.82475-14.25322c.06237.36571.02667.69774.17266.89592a8.88846,8.88846,0,0,0,.99412,1.00329c.32849-.38792.88627-.75108.93149-1.1696a3.50651,3.50651,0,0,0-.40166-1.90779c-.37726-.71271-1.09856-.61529-1.41893.12281A6.46071,6.46071,0,0,0,113.80339,284.43609Z" transform="translate(-56.95781 -262.48513)"/><path class="cls-3" d="M129.67741,288.73728a5.76329,5.76329,0,0,1,1.01148.89876,44.44664,44.44664,0,0,1,6.40784,14.97585c.90421,3.62184,1.40887,7.34631,2.02226,11.0365.24317,1.46285-.35109,2.26294-1.50961,2.3577a2.0369,2.0369,0,0,1-2.20955-2.11884c-.63743-7.23406-1.36332-14.45521-3.82257-21.36018-.53369-1.49849-1.20016-2.94966-1.80442-4.42306-.145-.35344-.28567-.70863-.42832-1.063Z" transform="translate(-56.95781 -262.48513)"/><path class="cls-3" d="M133.93669,289.857c1.03938-.24993,1.75267.42306,2.39364,1.11654a22.47463,22.47463,0,0,1,4.83249,8.72914,49.05859,49.05859,0,0,1,1.65353,8.03967c.23735,1.77445-.315,2.35138-1.42881,2.37227-1.30225.02443-2.08042-.861-2.1111-2.495a35.05849,35.05849,0,0,0-2.20792-11.8162A52.73927,52.73927,0,0,0,133.93669,289.857Z" transform="translate(-56.95781 -262.48513)"/></svg>