<svg id="Слой_1" data-name="Слой 1" xmlns="http://www.w3.org/2000/svg" viewBox="0 0 426.81639 237.76959"><defs><style>.cls-1{fill:#de2928;}</style></defs><title>henkel</title><path id="path5197" class="cls-1" d="M307.6567,221.42274c117.8135,0,213.43359,53.2715,213.43359,118.8897,0,65.62889-95.62009,118.87989-213.43359,118.87989-117.7627,0-213.3828-53.251-213.3828-118.87989C94.2739,274.69424,189.894,221.42274,307.6567,221.42274Zm0,10.7237c-111.8047,0-202.6094,48.5547-202.6094,108.166,0,59.63569,90.8047,108.07708,202.6094,108.07708,111.8057,0,202.61041-48.44139,202.61041-108.07708C510.26711,280.70114,419.4624,232.14644,307.6567,232.14644Zm-37.4834,119.58h-42.001c.4961,10.336,6.3047,15.127,14.9932,15.127,6.4541,0,10.873-3.6338,12.01461-7.293h13.752c-3.52441,12.5059-13.752,18.295-26.36231,18.295-17.8731,0-28.9941-12.29692-28.9941-29.8624,0-17.0146,11.7666-29.9716,28.9941-29.9716C261.93211,318.02144,271.26611,334.27044,270.1733,351.72644Zm-28.001-22.9912c-8.7373,0-13.206,5.8135-13.9004,13.25h27.2559C254.4848,334.04684,251.1587,328.73524,242.1723,328.73524Zm209.85839,22.9912H410.0298c.4462,10.336,6.3046,15.127,14.94331,15.127,6.50389,0,10.92289-3.6338,12.06449-7.293h13.75189c-3.52438,12.5059-13.75189,18.295-26.36229,18.295-17.9228,0-28.99409-12.29692-28.99409-29.8624,0-17.0146,11.76659-29.9716,28.99409-29.9716C443.78949,318.02144,453.12349,334.27044,452.03069,351.72644ZM423.98,328.73524c-8.6875,0-13.1563,5.8135-13.9004,13.25h27.3056C436.3423,334.04684,433.01611,328.73524,423.98,328.73524Zm-283.88189,47.5811H155.688v-33.8145h33.66011v33.8145H204.937v-78.5361H189.34811v32.1562H155.688v-32.1562H140.09811Zm138.66409,0h14.6963v-30.7012c0-11.5283,4.0703-16.25,12.5107-16.25,7.2481,0,10.5254,4.6123,10.5254,13.94138v33.00982h14.64551v-34.9111c0-14.0508-4.16991-23.3838-20.80171-23.3838a20.22579,20.22579,0,0,0-17.3272,9.4423h-.3477v-7.9033H278.7622Zm64.8887,0h14.6464V345.58l21.6455,30.7363h18.2207l-23.83-31.8486,21.09961-24.9073H377.9575l-19.6602,24.4707v-46.2509H343.6509Zm116.96869,0h14.64652v-78.5361H460.61959v78.5361" transform="translate(-94.2739 -221.42274)"/></svg>