<svg id="Слой_1" data-name="Слой 1" xmlns="http://www.w3.org/2000/svg" viewBox="0 0 521.89655 77.82617"><defs><style>.cls-1{fill:#ef4023;}</style></defs><title>kalitva</title><path class="cls-1" d="M356.12445,320.43227c0,10.32094.08522,20.64288-.03535,30.9624-.06175,5.28376-.51453,10.10864-7.73927,4.89677-1.47793-1.06618-4.4382-.19684-6.70188-.03428-11.5511.82937-23.16174,2.90839-34.63014,2.29183-14.81034-.79621-21.70188-9.25688-21.91857-24.11614-.21382-14.66375.14378-29.33716-.16672-43.9975-.11947-5.64141,1.82791-8.14753,7.45991-7.6319a15.36587,15.36587,0,0,0,1.629-.00117c13.54075-.20748,13.531-.2077,13.524,12.99978-.00672,12.76532-.1703,25.534.06736,38.295.22862,12.27691,4.29241,16.465,16.62273,17.468a50.307,50.307,0,0,0,10.53653-.44416c10.0242-1.31573,13.80943-5.37162,14.00046-15.51538.26078-13.84789.15845-27.70257.21382-41.55434.0076-1.90115-.38577-3.931.15589-5.66752.55237-1.77092,2.02918-3.25348,3.10126-4.86229,1.27671,1.71113,3.60127,3.38809,3.65839,5.139.34514,10.58125.17172,21.17943.17172,31.77194Z" transform="translate(-44.76477 -282.46809)"/><path class="cls-1" d="M190.79275,359.52265c-10.18633-.74738-19.84652,3.96505-25.86409-7.241-.86262-1.60637-4.79219-2.07427-7.337-2.17256-7.32543-.28282-14.66876-.142-22.00468-.10049-7.15182.04046-14.99549-1.78611-18.54476,7.59335-.428,1.1311-3.47321,1.27186-7.43,2.56711,3.94954-8.93491,6.79952-15.84023,10.017-22.56986,7.72351-16.15436,15.45216-32.31188,23.60876-48.248,1.37856-2.6934,4.871-5.88189,7.44107-5.92972,2.40647-.04479,5.86187,3.29416,7.17665,5.9692,10.29482,20.94586,20.193,42.08675,30.18527,63.18092C188.83683,354.25175,189.42006,356.0327,190.79275,359.52265ZM144.734,307.54l-2.72724.0828-16.7337,34.4616h35.74553C155.14176,329.61791,149.93787,318.57892,144.734,307.54Z" transform="translate(-44.76477 -282.46809)"/><path class="cls-1" d="M566.66133,359.50026c-10.43949-.89971-20.15217,4.26364-26.08153-7.20414-.82715-1.59974-4.77566-2.13788-7.30517-2.20619-9.22774-.24939-18.46953.05251-27.69976-.14462-4.96646-.10607-8.86645.7919-11.58612,5.637-1.10848,1.97483-4.1584,2.85984-6.32508,4.24067q-.73526-.81365-1.47041-1.62729c.79979-2.17428,1.4317-4.42869,2.42549-6.51038,9.69893-20.31589,19.30081-40.68163,29.36172-60.81761,1.60158-3.20538,5.28506-7.31907,8.11209-7.40211,2.69456-.07914,6.59036,4.04448,8.12913,7.20964C544.99611,312.83762,555.29615,335.23067,566.66133,359.50026Zm-66.00086-17.417h36.099c-6.073-12.57361-11.43193-23.66859-16.79082-34.76357l-2.48313.29037C512.12588,318.59155,506.7663,329.573,500.66047,342.08331Z" transform="translate(-44.76477 -282.46809)"/><path class="cls-1" d="M433.49046,320.771c.00578-10.315.147-20.63292-.05779-30.94388-.09306-4.69079,1.38905-7.21484,6.42372-7.062,5.4241.16455,10.88567-.25256,16.27669.21272,11.153.96263,17.60048,10.58125,13.39241,20.87225-2.11512,5.17277-.842,7.72687,2.906,11.0214,10.11691,8.8929,12.53233,17.60021,8.50371,28.11662-3.98353,10.39848-12.9415,16.61762-25.56331,16.54795-26.38876-.1457-21.32152,3.62092-21.86738-20.84986C433.37139,332.71725,433.48463,326.74287,433.49046,320.771Zm21.765,30.46426c12.16138.4739,19.96768-6.93028,19.7429-17.9751-.21931-10.77566-8.316-17.69135-19.7429-16.3827Zm.15792-62.37179v19.35c5.90974-.99845,9.00634-3.687,9.26545-9.061C464.95434,293.43835,462.1171,290.15587,455.41334,288.86346Z" transform="translate(-44.76477 -282.46809)"/><path class="cls-1" d="M66.26442,313.85842c0,12.11074-.45435,24.2447.16332,36.32385.397,7.76271-2.50786,9.993-9.80945,9.60495-6.51813-.34637-12.1912.59212-11.83784-9.36392.70329-19.81576.60024-39.68448.05107-59.50973-.26131-9.43387,5.60733-8.01811,11.22271-8.14024,5.64005-.12265,11.2407-.65071,10.30922,8.0556-.56257,5.25812-.10354,10.62561-.10354,17.15136,14.28331-6.69691,19.829-23.44583,35.14756-25.5122l1.74476,2.1259c-6.55959,6.16467-12.81322,12.70377-19.767,18.386-6.62113,5.4104-6.95674,10.41119-2.17238,17.29213,6.81485,9.80128,12.86472,20.13634,19.18067,30.28118,1.51306,2.43032,2.78673,5.0097,4.1705,7.52051l-2.1259,2.11923c-2.725-2.21817-6.194-3.9441-8.04458-6.74087C86.907,342.13751,79.94328,330.47771,72.72343,318.985c-1.25951-2.005-2.82315-3.81888-4.24632-5.721Z" transform="translate(-44.76477 -282.46809)"/><path class="cls-1" d="M280.83605,358.16874c-14.34356,4.47475-19.63069,2.29973-25.66442-10.51869q-10.74438-22.82613-21.53612-45.62984c-.6588-1.389-1.6317-2.629-3.317-5.29669-1.85153,3.62573-3.24145,6.06139-4.37369,8.61147-6.93464,15.61866-13.69223,31.31764-20.8114,46.85116-1.34917,2.94383-4.05554,5.26562-6.13571,7.87442l-2.6523-1.48321c.49633-2.135.67779-4.40677,1.53739-6.38377,9.19354-21.14388,18.28522-42.33846,28.0112-63.23694,1.32494-2.84691,5.975-5.7955,9.07059-5.77974,4.55578.0232,11.67627,1.35533,13.235,4.41029,11.58139,22.69842,22.06131,45.959,32.84786,69.06137C281.22977,357.039,280.923,357.65778,280.83605,358.16874Z" transform="translate(-44.76477 -282.46809)"/><path class="cls-1" d="M383.64443,324.51225c0-8.96509-.22882-17.93811.08021-26.89254.20685-5.99375-2.17126-8.587-8.11236-8.09849a11.99362,11.99362,0,0,1-4.84775-.18567c-1.551-.55683-2.80723-1.93482-4.19215-2.95432,1.50289-1.17538,2.91671-3.1958,4.52564-3.36543a132.68921,132.68921,0,0,1,13.83663-.22755c10.32336-.00251,20.65354-.178,30.96439.1857,2.10312.07423,4.13364,2.20666,6.1976,3.39031-1.92058,1.05811-3.76264,2.83521-5.77483,3.055-11.207,1.22441-11.2337,1.09533-11.24352,12.27739-.0146,16.57187-.31635,33.15181.11777,49.71221.21612,8.24292-4.42617,8.483-10.41836,8.32355-5.83446-.15524-11.74216.81522-11.214-8.33137.516-8.9353.11229-17.92373.11229-26.88882Z" transform="translate(-44.76477 -282.46809)"/></svg>