<svg id="Слой_1" data-name="Слой 1" xmlns="http://www.w3.org/2000/svg" viewBox="0 0 505.82323 152.81231"><defs><style>.cls-1{fill:#142348;}</style></defs><title>kontur</title><path class="cls-1" d="M392.07633,411.68842v-34.228c1.18371,0,2.28078.001,3.37789-.00015,9.8447-.01024,19.69027.04454,29.5335-.08066a33.11,33.11,0,0,0,6.74824-1.066c3.66112-.82472,5.64591-3.97241,5.78734-7.55462.07856-1.98945.01411-3.98457.01411-6.39687-1.18735,0-2.1996.02153-3.21073-.00354-6.11206-.15154-12.30026.22941-18.31529-.61712-6.71774-.94544-13.49514-2.34963-19.37017-6.21765-6.29354-4.14354-9.28176-10.497-10.17044-17.504-1.01648-8.01483-1.03378-16.16859-1.2553-24.26828-.1849-6.76071-.03791-13.5305-.03791-20.47607h34.56166c0,1.21658-.01221,2.33141.00193,3.44591.11885,9.35984.05723,18.72716.43762,28.07646.21259,5.22549,3.1412,7.73493,8.28579,7.9342,2.85842.11072,5.72471.01988,9.03825.01988V293.23223h34.70957c.07015.83848.199,1.65869.19862,2.47883-.01326,25.80662.01786,51.61348-.09458,77.4197-.03816,8.75434-2.13144,17.10915-7.28951,24.25514a30.81009,30.81009,0,0,1-8.48869,7.51811,43.18814,43.18814,0,0,1-22.64983,6.78362c-13.47295.235-26.95114.16945-40.42717.2205A10.297,10.297,0,0,1,392.07633,411.68842Z" transform="translate(-61.1949 -292.79791)"/><path class="cls-1" d="M477.34507,292.79791c17.47213.30423,34.67778.1953,51.8269,1.12693a42.17608,42.17608,0,0,1,17.37278,5.15556c12.793,7.01489,20.04282,18.04695,20.43094,33.03472.219,8.45915-.30595,16.75219-4.05788,24.59476-3.60154,7.52839-9.3586,12.30061-16.93565,15.72828-8.73426,3.95118-17.87522,4.87141-27.15881,5.58384-1.99194.15286-3.98944.23316-6.23084.36094v33.2819H477.34507Zm35.30608,51.22869c4.32453-.36407,8.32482-.47593,12.24447-1.09685,3.60465-.571,5.29725-2.95955,5.41693-6.64186a7.57881,7.57881,0,0,0-6.26185-8.05264c-3.66686-.70054-7.47154-.6795-11.39955-.99144Z" transform="translate(-61.1949 -292.79791)"/><path class="cls-1" d="M95.94733,411.77648H61.29588V293.26092H95.73393c.05334,1.00571.15282,2.01547.15353,3.02531.00929,13.18553.05225,26.37141-.04191,39.55629-.01632,2.2856.48681,3.36138,2.986,3.08493,2.36584-.2617,4.76261-.27654,7.14734-.3285,6.1435-.13386,10.18761-4.51366,10.78429-10.39583.33648-3.317.54648-6.65908.57931-9.99217.08089-8.21205.0265-16.42544.0265-24.87915h35.6641c-1.29091,1.28127-1.94212,2.30953-2.87555,2.7937a57.026,57.026,0,0,0-18.81943,15.92645,59.891,59.891,0,0,0-12.67782,31.95934c-1.4708,16.972,2.798,32.38313,13.64218,45.6525,5.26656,6.4444,11.38918,12.03811,19.24185,15.34164,3.35181,1.41007,1.36215,4.23081,1.98126,6.67482H118.55081c0-1.80649.0012-3.50211-.0002-5.19773-.00752-9.077.03207-18.15439-.05713-27.23054a36.88637,36.88637,0,0,0-.74092-6.80917c-.84447-4.23465-3.51746-6.7-7.86615-7.09539-4.5243-.41139-9.076-.52114-13.93908-.78Z" transform="translate(-61.1949 -292.79791)"/><path class="cls-1" d="M380.28552,327.46471H355.98429v84.23665h-35.4758V327.54209H296.03582v-34.2146h84.2497Z" transform="translate(-61.1949 -292.79791)"/><path class="cls-1" d="M233.00929,335.4022h22.79525V293.23714h35.11035V411.678H255.922V364.893H233.16863A65.7112,65.7112,0,0,0,233.00929,335.4022Z" transform="translate(-61.1949 -292.79791)"/><path class="cls-1" d="M149.875,350.31287c-.39448-15.42588,12.9392-28.10691,26.734-28.087,13.78292.01992,26.93261,12.7,26.76351,28.17517-.16424,15.03161-12.02529,27.87058-26.68408,27.936C161.8571,378.40315,149.6234,365.237,149.875,350.31287Z" transform="translate(-61.1949 -292.79791)"/><path class="cls-1" d="M197.42331,411.76755c-1.01334-3.41461-.02052-5.091,3.1059-6.32322,9.60914-3.78726,16.9-10.70879,22.77914-18.92683,3.11256-4.35086,5.06554-9.53407,7.50926-14.35812.451-.89041.7452-1.8603,1.40061-3.52879v43.137Z" transform="translate(-61.1949 -292.79791)"/><path class="cls-1" d="M196.91334,293.25407h35.32557v37.70378C225.84635,313.67486,214.63715,300.9073,196.91334,293.25407Z" transform="translate(-61.1949 -292.79791)"/><path class="cls-1" d="M308.351,441.0626c1.82385-6.35587,3.52321-12.27788,5.19564-18.10609,7.1397-.577,7.14624-.57893,9.085,5.99314,1.07517,3.6446,2.12087,7.29787,3.19649,10.94235.04574.1549.25951.26022.64456.62516,1.10326-1.91953,2.16634-3.7691,3.16625-5.5088a27.72,27.72,0,0,1-2.56055-4.75391c-1.32675-4.28968.7755-7.22052,5.21878-7.42109,2.94223-.13281,5.89532-.02517,9.06572-.02517v18.119H337.1256v-5.66381l-.71788-.70233a11.09551,11.09551,0,0,0-2.54657,1.87894c-1.07079,1.40633-1.61416,4.06094-2.81865,4.3484-2.79836.66782-5.85914.2542-8.813.22493a1.136,1.136,0,0,1-.88687-.572c-.97131-3.98577-4.15876-1.77806-6.3579-2.26213a1.31883,1.31883,0,0,0-1.12392.61137C313.20748,442.23076,310.652,440.8063,308.351,441.0626Zm28.51868-14.74224c-1.88228.39967-3.53854.67679-5.122,1.18218-.19726.063-.21532,1.86292.03527,1.9612a49.01025,49.01025,0,0,0,5.08669,1.45811Zm-21.91417,8.24556h4.65611c-.74123-2.71309-1.40453-5.14087-2.06781-7.56867l-.57331-.00957C316.31492,429.45325,315.65935,431.91881,314.95551,434.56592Z" transform="translate(-61.1949 -292.79791)"/><path class="cls-1" d="M406.48749,428.41712c-1.15511,3.59707-2.39416,7.17031-3.42507,10.80263a2.26389,2.26389,0,0,1-2.64407,1.896c-1.43089-.01449-2.23583-.34828-2.66939-1.87591a78.27593,78.27593,0,0,0-3.87063-10.75747v12.40981h-4.34424V422.811c2.06623,0,4.22063-.11949,6.34423.08349.535.05115,1.18245,1.06289,1.41685,1.75546,1.03385,3.05544,1.93569,6.15557,3.08376,9.88391,1.00717-3.47552,1.95865-6.35642,2.65283-9.298.44951-1.9051,1.29349-2.73431,3.32225-2.48852a42.49078,42.49078,0,0,0,4.9488.03812v18.09643h-4.15849V428.46013Z" transform="translate(-61.1949 -292.79791)"/><path class="cls-1" d="M190.60472,445.61022H186.4809c0-2.43061-.00565-4.78859.00753-7.14649.00155-.27758.01022-.69952.17758-.81068,4.05309-2.69214,2.6537-6.91005,2.97533-10.62818.11266-1.30241.018-2.62276.018-4.08611H203.35c0,2.98311-.18245,5.91948.04624,8.82348.28509,3.62033.93332,7.21106,1.3701,10.82118a26.58818,26.58818,0,0,1,.01674,3.00061h-4.10026l-.378-4.29949h-9.31656Zm2.60391-8.65389h5.328V426.863h-4.13461C194.00117,430.25347,193.6156,433.51435,193.20863,436.95633Z" transform="translate(-61.1949 -292.79791)"/><path class="cls-1" d="M469.84773,422.93228h4.23159v11.31537l.49447.07548c1.0965-2.35562,2.17159-4.72151,3.294-7.06474,2.33325-4.87137,2.34354-4.86644,8.05383-4.24971V440.907h-4.24V429.7577l-.571-.12775c-1.14622,2.64528-2.4618,5.2327-3.39091,7.95216-.92805,2.71633-2.39658,4.116-5.38431,3.5142a13.83331,13.83331,0,0,0-2.48767-.02178Z" transform="translate(-61.1949 -292.79791)"/><path class="cls-1" d="M238.5789,441.06086V422.81863a89.05247,89.05247,0,0,1,10.08673.11544c1.54662.17908,3.6659,1.25434,4.25581,2.51688.94078,2.01353.90234,4.54634-1.69887,5.99573,2.59316,1.79221,2.84917,4.24514,2.1065,6.95556-.6811,2.48571-2.7089,2.65127-4.78911,2.65647C245.30531,441.06681,242.07062,441.06086,238.5789,441.06086Zm4.556-3.17731c2.19284-.55643,3.931-.92982,5.59388-1.51653a3.47868,3.47868,0,0,0-.14806-1.993c-1.7379-.40571-3.53027-.57813-5.44582-.84032Zm.1487-11.32305c-.339,3.43305-.31252,3.54357,2.01093,3.4893,1.39314-.03254,3.73737.37981,3.29963-1.84856C247.97247,425.0363,245.19271,427.34934,243.28359,426.5605Z" transform="translate(-61.1949 -292.79791)"/><path class="cls-1" d="M164.22388,431.6125c2.26278,1.33332,3.12832,3.78635,2.338,6.63748-.6204,2.238-2.32794,2.80462-4.40323,2.79681-3.32415-.01251-6.64837-.00336-10.23415-.00336V422.802c3.11114,0,6.22382-.08578,9.32888.03107,1.96964.07413,4.13436.09366,4.9162,2.54444C166.96867,427.88248,166.60622,430.06862,164.22388,431.6125Zm-7.8139,6.388c2.20082-.66859,3.90787-1.12844,5.54391-1.76951a2.79175,2.79175,0,0,0-.1301-1.74863c-1.71685-.45741-3.48605-.7183-5.41381-1.06977Zm.016-7.45715c2.0472-.54472,3.63831-.89541,5.15184-1.45565.20734-.07675.15111-1.72065.0098-1.75371-1.6548-.38712-3.34924-.60479-5.16164-.88721Z" transform="translate(-61.1949 -292.79791)"/><path class="cls-1" d="M130.97837,440.95343h-3.80945V429.80114l-.6943-.25624c-.41653.82233-.87348,1.62706-1.24087,2.47079-.68123,1.56455-1.26766,3.171-1.96869,4.72616-2.21107,4.905-2.22454,4.89891-8.09832,4.03346V422.98874h3.96332v11.1691l.664.13c1.09023-2.32418,2.17457-4.65114,3.27193-6.972,2.24934-4.75718,2.25221-4.75582,7.91234-4.39988Z" transform="translate(-61.1949 -292.79791)"/><path class="cls-1" d="M185.00817,432.01527c-.00038,8.1509-4.58231,11.36841-12.49357,8.76719-2.07336-.68172-3.56931-1.99191-3.68335-4.25991a82.623,82.623,0,0,1-.03807-8.84558,4.51734,4.51734,0,0,1,4.09419-4.48194,27.96715,27.96715,0,0,1,6.52931-.32974c3.82427.34761,5.4773,2.37619,5.58424,6.284C185.027,430.10391,185.00481,431.05989,185.00817,432.01527Zm-11.54694-.03363c0,.95249-.29387,2.045.07609,2.8212.43985.92276,1.43853,2.19256,2.2158,2.20712,1.40621.02642,3.90157-.54573,4.048-1.25757a27.51776,27.51776,0,0,0,.09287-7.60133c-.04091-.51979-1.15145-1.224-1.86838-1.37686C174.36709,425.9941,173.41439,427.11773,173.46123,431.98164Z" transform="translate(-61.1949 -292.79791)"/><path class="cls-1" d="M503.21291,422.97676v17.926h-4.261c-.09591-1.9032-.19442-3.8577-.29135-5.78139-2.44941-1.05587-2.96869.82408-3.46918,2.24694-1.12595,3.20094-3.06514,4.62595-6.83,3.33638,1.06028-2.01739,2.13036-4.05331,3.20043-6.08925l-.90407.17092c-.667-2.51838-1.71753-5.01074-1.8907-7.56264-.16537-2.43672,1.53185-4.1147,4.114-4.2155C496.20251,422.87864,499.53282,422.97676,503.21291,422.97676Zm-4.56072,3.25591a48.98422,48.98422,0,0,0-5.08353,1.27034c-.21928.0773-.22895,1.87733.02212,1.97674a48.25385,48.25385,0,0,0,5.06141,1.4646Z" transform="translate(-61.1949 -292.79791)"/><path class="cls-1" d="M386.91228,432.16944c0,1.05076.03756,2.1031-.00686,3.152-.15,3.54471-1.91531,5.4547-5.46549,5.72462-10.08688.76687-11.17309-1.63312-10.91639-9.83.08829-2.82-.37723-6.09292,2.88215-7.50373a12.13784,12.13784,0,0,1,11.29121.37089c1.13746.67086,1.71587,2.61513,2.12556,4.0943a15.43714,15.43714,0,0,1,.07067,3.992Zm-11.52018-.18486-.62851.26223c.703,1.59356.98225,3.97777,2.1918,4.62593,3.08529,1.65329,5.28962-.07127,5.33681-3.62524.01645-1.23927.00035-2.47973-.03309-3.71876-.06609-2.44792-1.61481-2.89031-3.69209-2.86259-2.0956.028-3.27493.79309-3.18,3.02959C375.41934,430.45739,375.3921,431.22156,375.3921,431.98458Z" transform="translate(-61.1949 -292.79791)"/><path class="cls-1" d="M112.45483,431.95324c.0016,8.0105-1.8,9.68038-9.90047,9.177-4.80456-.29853-6.38351-1.96047-6.45106-6.83039-.02383-1.71814-.02606-3.43765.01231-5.1554.09157-4.09918,1.74764-5.9163,5.80666-6.35921a22.94775,22.94775,0,0,1,2.57569-.05732c6.07461.0248,7.86973,1.78562,7.95567,7.79315C112.46046,430.9984,112.45453,431.47586,112.45483,431.95324Zm-4.32744-.0411c-.54439-1.61947-.65512-3.74961-1.77046-4.69676-.89171-.75724-4.15678-.5176-4.37332.04605a21.63922,21.63922,0,0,0-1.13032,7.06074c-.02584.89566.98021,1.8293,1.55149,2.72282.06592.10307.363.05113.55046.08482C106.848,437.82959,107.65889,436.95681,108.12739,431.91214Z" transform="translate(-61.1949 -292.79791)"/><path class="cls-1" d="M272.4977,422.86307H276.783c.10855,2.17961.2145,4.30654.32743,6.57387h6.15659c.11918-2.12323.23831-4.24533.36521-6.50582h4.27833V440.839h-4.44719v-6.56018h-6.3308c-.10164,2.1228-.20351,4.25039-.3153,6.58507H272.4977Z" transform="translate(-61.1949 -292.79791)"/><path class="cls-1" d="M466.36728,440.9278h-4.34665v-6.62293h-6.34842v6.56572h-4.6391V422.99052h4.46861v6.40683h6.44144v-6.44678h4.42412Z" transform="translate(-61.1949 -292.79791)"/><path class="cls-1" d="M295.786,422.98757v6.42676h6.34342v-6.48972h4.495v17.9385h-4.37347v-6.52842h-6.35971v6.49966h-4.52349V422.98757Z" transform="translate(-61.1949 -292.79791)"/><path class="cls-1" d="M357.81464,440.95924h-4.33783V422.88887h4.45328v6.47364l.90615.48523a23.1385,23.1385,0,0,0,3.03478-3.84714c1.59976-3.215,4.05554-3.83042,7.56067-2.91174a61.049,61.049,0,0,1-4.34613,6.05868c-1.74486,1.91588-1.24213,3.50183.036,5.22271,1.52054,2.04725,3.06125,4.07953,4.63948,6.17987-4.16892,1.17919-5.00838.89275-7.2616-2.224-1.09935-1.5207-2.25694-2.99929-3.38818-4.49694l-.96628.40818C358.03651,436.44389,357.9281,438.65044,357.81464,440.95924Z" transform="translate(-61.1949 -292.79791)"/><path class="cls-1" d="M72.15476,426.92293H65.74884v13.91874H61.1949V422.96994h15.159v17.92879H72.15476Z" transform="translate(-61.1949 -292.79791)"/><path class="cls-1" d="M429.86686,440.97886h-4.35275V427.2621a4.421,4.421,0,0,0-.88643-.42734c-5.54975-.53648-5.54643-.53472-5.55154,4.91964q-.00388,4.14713-.03641,8.29416a5.12949,5.12949,0,0,1-.1709.791h-4.19462V423.00614h15.19265Z" transform="translate(-61.1949 -292.79791)"/><path class="cls-1" d="M79.74768,422.84044c3.39309,0,6.54053-.15765,9.66518.04181,3.5265.22511,4.86811,1.77833,5.06226,5.30631.04709.85586.029,1.71829-.0097,2.57541-.20742,4.58949-1.30422,5.65006-5.90578,5.71762-1.31571.01933-2.63194.003-4.15469.003l-.38746,4.377H79.74768Zm4.17513,9.36891c2.52841-.90794,5.49168,1.38008,5.9023-2.56956.29744-2.86106-1.71018-3.063-3.69351-2.85905C82.49139,427.15516,84.8367,429.86976,83.92281,432.20935Z" transform="translate(-61.1949 -292.79791)"/><path class="cls-1" d="M431.69759,440.8737c1.75127-6.10588,3.45112-12.03234,5.12793-17.87842,7.08717-.72883,7.11307-.73652,8.99827,5.622,1.18742,4.00516,2.28323,8.03748,3.48749,12.29567-2.05159-.16535-4.532,1.54344-5.24429-1.95565-2.297-.08811-5.19324-1.08776-6.75656-.06C434.68175,440.62556,435.03816,441.16767,431.69759,440.8737Zm11.21422-6.27752c-.74266-2.707-1.41191-5.14655-2.08117-7.58608l-.63673.04221c-.61135,2.4734-1.22274,4.94681-1.86469,7.54387Z" transform="translate(-61.1949 -292.79791)"/><path class="cls-1" d="M134.22932,435.562c1.78952-.07167,3.4508-.69828,4.98161,1.36929.56048.757,2.96988.23545,4.51576.0875.27127-.026.7288-1.1759.58829-1.6573a2.59659,2.59659,0,0,0-1.37872-1.50907,12.64213,12.64213,0,0,0-2.92482-.39285v-3.09088c.38981-.11449.66459-.17175.92109-.27461a24.05924,24.05924,0,0,0,3.16543-1.38464c.13866-.0805-.23341-1.637-.46612-1.6637a14.13423,14.13423,0,0,0-4.39656-.03574,31.973,31.973,0,0,0-4.85364,1.86014c-.31231-3.69424.98256-5.49815,3.74762-5.83963a18.489,18.489,0,0,1,6.79.111,6.315,6.315,0,0,1,3.72539,3.27909,3.6852,3.6852,0,0,1-2.154,5.03639c2.87288,1.671,2.91134,4.25964,2.334,6.88828-.54613,2.48667-2.70674,2.68038-4.75648,2.74488a51.96857,51.96857,0,0,1-5.4409-.06382C135.36609,440.78617,134.13358,439.23618,134.22932,435.562Z" transform="translate(-61.1949 -292.79791)"/><path class="cls-1" d="M221.54239,428.88671c-1.83772-.02751-3.741.95661-5.18766-1.45-.41656-.693-2.48314-.74859-3.66168-.49208-.67414.14672-1.39223,1.45726-1.54426,2.33808a13.48285,13.48285,0,0,0-.07722,4.82782c.21656,1.08587,1.05443,2.56063,1.959,2.8768,1.36975.47873,2.98533.61975,4.18483-1.28078.59957-.95,2.59416-1.01952,3.99673-1.50063,1.01753,4.37348-.42836,6.66777-4.13618,6.85476-8.90486.44908-11.21053.07225-10.804-9.6938.04757-1.14312-.0276-2.29626.09051-3.43055.27566-2.64712,1.53424-4.57591,4.36413-4.83414a28.56717,28.56717,0,0,1,6.80064-.06927C220.75739,423.52316,221.77548,425.23616,221.54239,428.88671Z" transform="translate(-61.1949 -292.79791)"/><path class="cls-1" d="M256.4231,422.9307h12.30542v3.64774h-7.7279v3.4782h7.24251v3.62675H260.922v3.74572h8.09915c.07714,1.29264.13208,2.21348.20265,3.39628H256.4231Z" transform="translate(-61.1949 -292.79791)"/><path class="cls-1" d="M236.64983,422.93472v3.61992l-4.52527.37351v13.94h-4.64164V426.953l-4.3771-.34214v-3.67616Z" transform="translate(-61.1949 -292.79791)"/></svg>