<svg id="Слой_1" data-name="Слой 1" xmlns="http://www.w3.org/2000/svg" viewBox="0 0 513.83516 104.75247"><defs><style>.cls-1{fill:#cf3b29;}.cls-2{fill:#fff;}</style></defs><title>kukmara</title><path class="cls-1" d="M288.727,283.74144c1.2165-.95093,2.11585-1.672,3.03394-2.36828,3.165-2.40023,6.345-4.83263,10.28248-5.80267,6.66368-1.64164,12.97834-1.01983,18.21433,3.85631,1.656,1.54213,2.76264,3.67567,4.10884,5.54708a9.44421,9.44421,0,0,1,.53752,1.00147c.54986-.4593,1.03787-.84068,1.49667-1.2544,3.52058-3.1745,7.17347-6.2075,11.55578-8.098,6.62788-2.85928,13.19964-2.69332,19.27407,1.43654,4.1456,2.81849,6.36829,7.10495,7.21172,11.93677a64.66025,64.66025,0,0,1,.8266,10.44188c.1014,10.22011.03775,20.4419.02924,30.663-.00507,6.11211-4.137,10.34792-10.25571,10.47324-2.74417.05621-5.49171-.03793-8.2352.03305-1.14444.0296-1.40527-.39556-1.40239-1.46977.02859-10.68564.05984-21.37181-.02587-32.0569a84.20618,84.20618,0,0,0-.65992-10.58947c-.51379-3.798-2.90825-5.608-6.76573-5.93491-4.07552-.34542-7.38233,1.38261-10.49146,3.674a2.03925,2.03925,0,0,0-.44026,1.45151q-.03643,16.78878-.01931,33.57769c0,3.33664-.02918,6.67377.02284,10.00962.01488.95592-.21007,1.3469-1.24729,1.33955q-8.61573-.0611-17.232.0009c-1.13351.00905-1.422-.38614-1.42044-1.47459.016-11.27661.03611-22.55376-.06875-33.82961a53.095,53.095,0,0,0-.79018-9.17128c-.69383-3.7331-3.10965-5.35622-6.9105-5.59729-3.94928-.25049-7.08817,1.54937-10.136,3.64552a1.995,1.995,0,0,0-.47078,1.44106c-.03428,4.77243-.02107,9.54522-.02116,14.3179-.00016,9.67207-.02253,19.34426.027,29.01608.00641,1.2503-.29175,1.677-1.60206,1.66044-5.61653-.07091-11.23456-.05717-16.85165-.01885-1.041.0071-1.37108-.30423-1.36928-1.36341.03032-17.86571.0049-35.73149.037-53.59719a9.95008,9.95008,0,0,1,10.07073-10.01668c2.78737-.027,5.576.03253,8.36222-.03119,1.06389-.02433,1.387.342,1.345,1.37871C288.67466,279.76248,288.727,281.56075,288.727,283.74144Z" transform="translate(-50.4658 -247.1204)"/><path class="cls-1" d="M123.3264,255.46613c-1.21358,1.63184-2.30064,3.11216-3.40685,4.578Q107.876,276.00356,95.8282,291.95976c-1.83929,2.43864-1.87612,4.42893-.15318,6.96422q14.05055,20.6753,28.10635,41.347c.23022.3387.44456.68821.77439,1.20056-.517.05288-.87317.12089-1.22941.1211-6.80138.00386-13.60411-.08024-20.40345.0362a6.42337,6.42337,0,0,1-6.03652-3.31572c-6.69668-10.34083-13.51047-20.60582-20.28732-30.89468a10.29537,10.29537,0,0,0-.70924-.84491c-1.36269,1.90945-2.707,3.69054-3.91607,5.55914a3.64487,3.64487,0,0,0-.23484,1.84123c-.01334,8.6602-.03793,17.32065.02239,25.98046.00888,1.27472-.31994,1.67307-1.60047,1.66074-6.0827-.05857-12.16634-.05345-18.24932-.01735-1.0674.00633-1.44739-.25241-1.44571-1.40771q.05428-37.1968.03816-74.39374A10.12772,10.12772,0,0,1,60.99123,255.3476c3.50333-.00528,7.00667-.001,10.70394-.001v37.87267l.33408.11788c.31587-.411.64646-.81162.94546-1.23457q12.67617-17.9309,25.36744-35.851a2.05476,2.05476,0,0,1,1.35447-.86412c7.64586-.0504,15.29217-.03244,22.93838-.02683C122.75987,255.36072,122.88471,255.39719,123.3264,255.46613Z" transform="translate(-50.4658 -247.1204)"/><path class="cls-1" d="M218.501,251.59135V301.4474l.29208.11389c.29959-.37112.6125-.73235.8968-1.11485q8.52951-11.47578,17.07708-22.938a2.2351,2.2351,0,0,1,1.503-.85694c7.09617-.055,14.1929-.03713,21.2895-.03127.28058.00023.56111.05839,1.086.11672-1.57235,1.98617-3.0191,3.8256-4.47847,5.655q-7.61418,9.54459-15.2336,19.085a5.40323,5.40323,0,0,0-.15648,6.69041q10.53153,16.24848,21.05684,32.501c.136.21.25132.43337.45209.78219a8.61084,8.61084,0,0,1-.99542.123c-7.05423.00791-14.1085-.00586-21.16259.0265a1.95956,1.95956,0,0,1-1.90954-1.09517q-7.72642-12.70563-15.52563-25.367c-.32422-.52859-.67395-1.04154-1.13023-1.7441-1.46205,2.0811-3.25718,3.58446-3.16587,6.44509.21555,6.75173.04276,13.5152.09844,20.27334.0097,1.17767-.34711,1.51219-1.4968,1.50272q-8.42666-.06939-16.85408.00786c-1.22562.01229-1.56089-.38025-1.55937-1.59061q.04894-38.90489.0304-77.80988c.002-5.39093,2.9878-9.33462,7.90337-10.5303a1.681,1.681,0,0,1,.36636-.09645C210.6776,251.59041,214.47033,251.59135,218.501,251.59135Z" transform="translate(-50.4658 -247.1204)"/><path class="cls-1" d="M411.04606,334.95163c-1.05241.88255-2.0831,1.79257-3.16067,2.64324-7.09844,5.60389-15.10267,7.35325-23.66925,4.58027-7.17567-2.32275-11.28814-7.7486-12.55306-15.16979a23.89462,23.89462,0,0,1,1.1596-13.07535c2.1499-5.37045,6.413-8.53724,11.6068-10.62938a49.64077,49.64077,0,0,1,13.63879-3.097c4.11049-.4193,8.22057-.84519,12.33579-1.21257.82236-.07342,1.05368-.36155,1.04876-1.1628a7.41948,7.41948,0,0,0-5.14025-7.35776,30.30839,30.30839,0,0,0-18.6657-.228c-2.90346.84833-5.72133,1.98693-8.59072,2.9564a25.009,25.009,0,0,1-2.50456.54444c.14911-3.59544-.06467-6.96816.51032-10.20059.76168-4.28232,4.35891-6.908,9.01-7.67311a84.30863,84.30863,0,0,1,18.79438-.97458c6.04715.36342,12.00716,1.28591,17.31938,4.51806a17.253,17.253,0,0,1,8.65,14.89728c.32408,12.36586.24491,24.74433.19679,37.117-.0232,5.965-4.37834,10.10376-10.33665,10.157-2.5339.02264-5.06813.01443-7.60217.00815-1.70129-.00421-1.70191-.0137-1.70293-1.77468q-.00135-2.37258-.00019-4.74515Zm.244-23.905c-4.59918.54846-9.12019.59555-13.436,2.04528-5.11277,1.71741-6.81523,4.28511-6.47385,9.68669a6.02287,6.02287,0,0,0,4.52439,5.88288c5.60118,1.71518,10.558.41717,14.86949-3.44821a2.31052,2.31052,0,0,0,.58414-1.54713c.05053-3.75256.03153-7.50608.02732-11.25929C411.38515,312.03527,411.335,311.66378,411.2901,311.04659Z" transform="translate(-50.4658 -247.1204)"/><path class="cls-1" d="M521.36346,334.9283c-.99019.82142-1.97577,1.64853-2.9714,2.46331a24.94032,24.94032,0,0,1-15.89019,5.93593c-5.12617.0733-9.801-.96428-13.77806-4.33687a19.55,19.55,0,0,1-7.0882-14.95024,23.33644,23.33644,0,0,1,1.91453-11.10736c2.31486-4.80193,6.336-7.66481,11.12229-9.60669a49.39477,49.39477,0,0,1,13.75155-3.13169c4.36-.43916,8.71649-.913,13.08184-1.37234a7.0921,7.0921,0,0,0-3.27178-7.55991c-2.735-1.6033-5.78278-1.986-8.86174-2.24287-7.07322-.59012-13.57932,1.52361-19.98535,4.15282a15.064,15.064,0,0,1-2.23321.53759,6.99885,6.99885,0,0,1-.18357-1.02537c-.01191-2.40723-.07714-4.817.00749-7.2213.17581-4.995,4.00621-8.70044,9.44826-9.59748a84.41521,84.41521,0,0,1,18.794-.96719c5.91663.3517,11.746,1.26412,16.98347,4.34572a17.52562,17.52562,0,0,1,8.68908,12.99413,47.02276,47.02276,0,0,1,.48244,7.05841c.05093,10.51593.02624,21.03221.02686,31.54837.00037,6.38533-4.36164,10.75875-10.716,10.74845-2.61848-.00425-5.23725-.03287-7.85524.00123-.86816.0113-1.19372-.27388-1.16526-1.16608.05641-1.76805.01668-3.53916.01668-5.309Zm.31864-16.89707q0-2.46813,0-4.93625c-.00016-2.09056.00006-2.08807-2.14765-1.81561-.29206.03705-.5938.00616-.88313.05444-3.56251.5946-7.19078.94238-10.66993,1.85665-5.84067,1.53483-7.31825,6.1655-5.85113,11.60943a5.25762,5.25762,0,0,0,3.641,3.73924,14.69237,14.69237,0,0,0,15.15186-3.20684,2.68035,2.68035,0,0,0,.723-1.73364C521.738,321.74685,521.67971,319.88759,521.6821,318.03123Z" transform="translate(-50.4658 -247.1204)"/><path class="cls-1" d="M189.85691,277.372c0,.72487-.00238,1.26663.00036,1.80836q.10927,21.54165.22029,43.0833c.02659,5.05359-.379,10.04313-2.40009,14.75459-3.32291,7.7463-9.47673,12.007-17.47786,13.735a45.84884,45.84884,0,0,1-21.68758-.37164c-10.05046-2.666-16.73115-9.9771-17.84481-20.305-.6312-5.85376-.50754-11.79754-.56792-17.70237-.11273-11.02353-.11063-22.04824-.15931-33.07245-.00762-1.72519-.01495-1.74384,1.73976-1.74718,2.82749-.00537,5.67207-.17645,8.47868.07107a8.26526,8.26526,0,0,1,7.657,8.53588q.12525,13.49439.19553,26.98925c.02431,3.84365-.1256,7.69585.09023,11.528a27.18585,27.18585,0,0,0,1.2986,6.78708,8.629,8.629,0,0,0,7.69959,6.24077,23.79715,23.79715,0,0,0,6.65427-.12653c4.223-.75512,6.70682-3.60209,7.59687-7.69257a33.4651,33.4651,0,0,0,.76823-7.01224c.01833-12.08-.0815-24.16025-.14157-36.2404-.01663-3.346,1.10468-6.18564,4.05429-7.929a9.56144,9.56144,0,0,1,4.14734-1.27558C183.32815,277.24365,186.49616,277.372,189.85691,277.372Z" transform="translate(-50.4658 -247.1204)"/><path class="cls-1" d="M457.50307,276.61339v9.19238c.62508-.4734,1.01993-.7426,1.38145-1.05086,3.7402-3.18927,7.61615-6.131,12.41505-7.62284a23.36874,23.36874,0,0,1,8.01583-.70834c.88431.0354,1.30434.39142,1.28661,1.41576-.06721,3.88425-.05161,7.77058-.01894,11.65573a5.22035,5.22035,0,0,1-5.93291,5.45559c-5.66421-.68678-11.051.6741-16.30892,2.68926-.85711.32849-.82418.9258-.82344,1.6127q.00933,8.61549.00523,17.231c.00006,7.89754-.02448,15.79524.02506,23.69248.00712,1.13883-.35524,1.43557-1.43655,1.42819q-8.55169-.05842-17.104.00346c-1.01656.00652-1.28711-.38448-1.286-1.345.02094-17.86446-.024-35.72908.039-53.59334.02067-5.86855,4.41186-10.0413,10.27394-10.05488C451.11486,276.60751,454.19521,276.61339,457.50307,276.61339Z" transform="translate(-50.4658 -247.1204)"/><path d="M564.22705,260.41225c.882,7.30781-6.29071,13.36025-12.91046,13.24479a13.26768,13.26768,0,1,1-.09976-26.53517C557.79308,247.01374,565.06693,252.87093,564.22705,260.41225Zm-23.564.03891a10.63874,10.63874,0,1,0,10.5435-10.69025A10.65439,10.65439,0,0,0,540.66306,260.45116Z" transform="translate(-50.4658 -247.1204)"/><path class="cls-2" d="M540.66306,260.45116a10.63872,10.63872,0,1,1,10.51732,10.5925A10.628,10.628,0,0,1,540.66306,260.45116Zm7.70419.887c1.66886-.27352,2.26182-.08735,3.07267.98954.65881.875,1.26947,1.78729,1.87895,2.69818,1.17448,1.75537,1.66781,1.94052,3.964,1.2834-1.311-1.84668-2.57761-3.631-3.85382-5.42868.13162-.054.35941-.15414.592-.24179a3.30443,3.30443,0,0,0,2.32921-3.50814,2.98993,2.98993,0,0,0-2.74451-3.10786c-2.12828-.233-4.2914-.13225-6.43725-.22707-.92528-.04089-1.25127.27642-1.23859,1.22895q.06833,5.1313-.00643,10.26408c-.01244.95.24,1.3582,1.26742,1.35807,1.01847-.00012,1.20443-.48323,1.18463-1.3306C548.34429,263.97784,548.36725,262.63816,548.36725,261.33817Z" transform="translate(-50.4658 -247.1204)"/><path d="M548.36725,261.33817c0,1.3-.023,2.63967.00823,3.97808.0198.84737-.16616,1.33048-1.18463,1.3306-1.02738.00013-1.27986-.408-1.26742-1.35807q.06711-5.13145.00643-10.26408c-.01268-.95253.31331-1.26984,1.23859-1.22895,2.14585.09482,4.309-.00593,6.43725.22707a2.98993,2.98993,0,0,1,2.74451,3.10786,3.30443,3.30443,0,0,1-2.32921,3.50814c-.23256.08765-.46035.1878-.592.24179,1.27621,1.79771,2.54283,3.582,3.85382,5.42868-2.29617.65712-2.7895.472-3.964-1.2834-.60948-.91089-1.22014-1.8232-1.87895-2.69818C550.62907,261.25082,550.03611,261.06465,548.36725,261.33817Zm.20842-5.49365c-.65064,3.17037-.42644,3.45873,2.43831,3.377.33763-.00964.67539-.02956,1.012-.05756,1.18277-.09837,1.82029-.692,1.74919-1.70775a1.60924,1.60924,0,0,0-1.75958-1.60465C550.881,255.82094,549.745,255.84452,548.57567,255.84452Z" transform="translate(-50.4658 -247.1204)"/><path class="cls-2" d="M548.57567,255.84452c1.16934,0,2.30532-.02358,3.43989.007a1.60924,1.60924,0,0,1,1.75958,1.60465c.0711,1.01574-.56642,1.60938-1.74919,1.70775-.33658.028-.67434.04792-1.012.05756C548.14923,259.30325,547.925,259.01489,548.57567,255.84452Z" transform="translate(-50.4658 -247.1204)"/></svg>