<svg id="Слой_1" data-name="Слой 1" xmlns="http://www.w3.org/2000/svg" viewBox="0 0 378.50394 236.77165"><defs><style>.cls-1{fill:#fff;stroke:#fff;stroke-miterlimit:10;stroke-width:10px;}.cls-2{font-size:68.84445px;font-family:HelveticaNeueCyr-Bold, HelveticaNeueCyr;font-weight:700;}.cls-2,.cls-5{fill:#143964;}.cls-3{fill:#E83D3D;}.cls-4{fill:#b3232d;}</style></defs><title>Безымянный-1</title><path id="path5195" class="cls-1" d="M126.84967,332.774c0-65.01941,85.5165-113.43513,184.22947-113.43513,98.71385,0,184.27447,48.41572,184.27447,113.43513,0,65.0399-85.56062,113.33652-184.27447,113.33652-98.713,0-184.22947-48.29662-184.22947-113.33652" transform="translate(-121.84967 -214.3389)"/><text class="cls-2" transform="translate(82.9469 168.04587) scale(0.92043 1)">KAMA</text><polygon class="cls-3" points="75.093 123.108 168.116 31.555 242.169 73.567 242.169 66.829 248.006 61.28 262.233 61.677 262.233 85.06 342.852 130.242 245.452 118.748 168.481 54.939 90.779 118.748 75.093 123.108"/><path class="cls-4" d="M361.86385,328.67282l-71.89829-82.77851-70.00079,77.9296c-.15438.17186.056.43684.23511.29618l69.98186-54.94424Z" transform="translate(-121.84967 -214.3389)"/><polygon class="cls-5" points="242.393 90.165 242.393 66.782 246.003 64.404 246.003 90.165 242.393 90.165"/></svg>