<svg id="Слой_1" data-name="Слой 1" xmlns="http://www.w3.org/2000/svg" viewBox="0 0 545.33193 308.88487"><defs><style>.cls-1,.cls-3{fill:#fff;}.cls-2{fill:#2a2868;}.cls-3{font-size:88.35857px;font-family:HelveticaNeueCyr-Bold, HelveticaNeueCyr;font-weight:700;}.cls-4{fill:#de2b28;}.cls-5{fill:#b3232d;}</style></defs><title>Безымянный-3</title><path id="path5195" class="cls-1" d="M34.454,391.44582c0-88.56272,126.55191-154.5096,272.63266-154.5096,146.08206,0,272.69927,65.94688,272.69927,154.5096,0,88.59062-126.61721,154.37527-272.69927,154.37527-146.08075,0-272.63266-65.78465-272.63266-154.37527" transform="translate(-34.454 -236.93622)"/><path id="path5195-2" data-name="path5195" class="cls-2" d="M50.19708,391.44194c0-83.44932,119.24511-145.58858,256.89151-145.58858,137.64763,0,256.95426,62.13926,256.95426,145.58858,0,83.47561-119.30663,145.462-256.95426,145.462-137.6464,0-256.89151-61.9864-256.89151-145.462" transform="translate(-34.454 -236.93622)"/><text class="cls-3" transform="translate(118.68946 215.11651)">KAMA</text><polygon class="cls-4" points="107.739 157.44 237.451 39.936 340.711 93.856 340.711 85.208 348.85 78.087 368.688 78.595 368.688 108.607 481.105 166.596 345.289 151.844 237.959 69.948 129.612 151.844 107.739 157.44"/><path class="cls-5" d="M372.16024,383.11472,271.90452,276.87244,174.29467,376.89137a.25192.25192,0,0,0,.32785.38014L272.206,306.75319Z" transform="translate(-34.454 -236.93622)"/><polygon class="cls-1" points="341.023 115.159 341.023 85.148 346.057 82.096 346.057 115.159 341.023 115.159"/></svg>