<svg id="Слой_1" data-name="Слой 1" xmlns="http://www.w3.org/2000/svg" viewBox="0 0 438.91887 88.80213"><defs><style>.cls-1{fill:#137f45;}.cls-2{fill:#fff;}.cls-2,.cls-3{stroke:#000;stroke-miterlimit:10;}</style></defs><title>макрофлексс</title><path class="cls-1" d="M303.88032,437.44087q-20.00454.00015-40.00907.00009H217.08412q-18.64647,0-37.29293-.00168-42.38385-.03255-84.76769-.08a10.03342,10.03342,0,0,1-10.42488-10.314q-.01966-33.99291.00145-67.98582a9.8947,9.8947,0,0,1,10.09571-10.23877q.50854-.0072,1.01718-.00877,42.71943-.09016,85.43887-.16893c8.92575-.00962,17.85163.156,26.77746.15508,9.43446-.001,18.86888-.142,28.30339-.15112,6.6653-.00643,13.33073.15434,19.99606.151,7.68252-.00387,15.36506-.16452,23.04745-.15471,22.37629.02857,44.7525.13058,67.12879.15652,8.58681.01,17.17375-.151,25.76066-.15451,7.45669-.003,14.9134.15344,22.3701.15276,7.68233-.00071,15.36468-.15781,23.047-.15286,9.82984.00633,19.65967.161,29.48944.15333,15.368-.012,30.736-.13168,46.10406-.15449,6.55208-.00972,13.10867.28188,19.655.11467a10.453,10.453,0,0,1,10.63124,10.77573q.03607,17.88646.00662,35.77307c0,10.172-.11376,20.34577.03771,30.51556.1117,7.50254-5.35973,11.66993-11.61891,11.60727-17.29024-.17314-34.58388-.00444-51.87616.00749q-29.1579.02013-58.31575.00329-24.07175,0-48.14348-.00029Q328.71641,437.44074,303.88032,437.44087Z" transform="translate(-84.58957 -348.64264)"/><path class="cls-2" d="M147.60732,395.73663q-2.22192,6.968-4.44376,13.93607c-.80344,2.52018-1.62949,5.03353-2.39545,7.56507a1.34386,1.34386,0,0,1-1.5569,1.11546q-3.30286-.09943-6.61041-.001c-1.018.03119-1.447-.28524-1.75352-1.30732-1.94073-6.47034-3.97536-12.91252-5.98052-19.36353a3.04523,3.04523,0,0,0-.90788-1.57465l-1.91949,22.0941H106.482c1.84539-14.15262,3.68057-28.22679,5.52462-42.36912a10.29114,10.29114,0,0,1,1.20092-.14583c5.02939-.0095,10.059.01909,15.088-.02806a1.4972,1.4972,0,0,1,1.7459,1.31518c1.6158,5.62578,3.32818,11.22384,5.01477,16.82921.20884.69409.46141,1.375.829,2.46213,1.25518-4.29991,2.40291-8.21395,3.53931-12.13129.70574-2.43281,1.35459-4.8833,2.12547-7.295.14681-.45928.74125-1.1011,1.1364-1.10629,5.53152-.07263,11.0643-.04927,16.80518-.04927,1.9127,14.19578,3.81431,28.30932,5.73216,42.54339H149.73138q-.91863-11.19579-1.83627-22.37943Z" transform="translate(-84.58957 -348.64264)"/><path class="cls-2" d="M347.70437,396.7984c.01828,13.06537-9.44263,22.53815-22.52246,22.55072-13.54211.013-23.59093-9.34689-23.60466-21.98638-.0144-13.27579,9.41894-22.735,22.68438-22.74649C337.90936,374.60441,347.68626,383.85558,347.70437,396.7984Zm-15.3501.29336c.02476-4.88177-3.09794-8.33823-7.57517-8.38477-4.48256-.04661-7.72635,3.36191-7.7977,8.19364-.07156,4.84791,3.095,8.36035,7.57014,8.39689C329.02013,405.334,332.33011,401.85305,332.35427,397.09176Z" transform="translate(-84.58957 -348.64264)"/><path class="cls-2" d="M215.81833,375.731h15.41822v17.076l.32387.11083c.23259-.37713.48766-.74236.69437-1.13317,2.63378-4.97945,5.24633-9.97023,7.91212-14.93244.25625-.477.82779-1.11079,1.26091-1.117,5.34341-.07662,10.68829-.05,16.33425-.05-.4418.76713-.7206,1.29573-1.0398,1.79869-3.807,5.9984-7.59854,12.00682-11.4539,17.974a1.77825,1.77825,0,0,0,.11275,2.358c4.34839,6.18175,8.63825,12.40468,12.94238,18.61753.372.537.71337,1.09531,1.23395,1.89819-2.69374,0-5.09885,0-7.504,0a31.17146,31.17146,0,0,0-5.41382.0523c-4.10823.73526-6.29849-1.03766-8.00239-4.66854A100.53389,100.53389,0,0,0,231.3776,401.48v16.74027H215.81833Z" transform="translate(-84.58957 -348.64264)"/><path class="cls-2" d="M275.56772,403.44249V418.232H261.27357V375.67867c.57374,0,1.17116,0,1.76858,0,5.7651.00011,11.53487-.13653,17.29331.05935a30.0346,30.0346,0,0,1,8.29572,1.32017,13.46838,13.46838,0,0,1,8.37,17.27029c-1.176,3.472-3.68292,5.583-7.252,6.87006,1.73033,2.889,3.3912,5.67226,5.06246,8.44933,1.67895,2.78987,3.36824,5.57352,5.24881,8.68375-1.52525,0-2.73424,0-3.94323,0-3.67388,0-7.34906-.05529-11.02082.03241a2.03758,2.03758,0,0,1-2.1747-1.36735c-2.00657-4.1001-4.09659-8.15938-6.16029-12.23147-.24391-.48129-.51443-.94911-.77263-1.42318Zm.11695-8.99954c2.37364-.18839,4.83677.67089,6.33815-1.70372a3.4488,3.4488,0,0,0-.18288-4.27841c-1.69814-1.91186-3.99323-1.20347-6.15527-1.22769Z" transform="translate(-84.58957 -348.64264)"/><path class="cls-2" d="M213.07193,418.32972c-5.07513,0-9.93077.02482-14.78508-.04453a1.727,1.727,0,0,1-1.187-.99639c-.5276-1.40644-.464-3.52717-1.42355-4.153-1.16966-.76283-3.14541-.31346-4.77334-.34323-1.6946-.031-3.3929.04989-5.08445-.02847-1.19744-.05547-1.87172.22607-2.06021,1.5683a32.69722,32.69722,0,0,1-1.03273,3.92981H166.98282c.57631-1.86775,1.10686-3.66012,1.68164-5.43818,3.80874-11.78236,7.64794-23.555,11.41292-35.35126.42164-1.3211.94485-1.86551,2.42713-1.83511,5.19632.10654,10.39644.06969,15.59443.01792a1.54816,1.54816,0,0,1,1.76981,1.30186q6.46758,20.18057,13.01061,40.337A9.78061,9.78061,0,0,1,213.07193,418.32972Zm-19.90132-15.6749c-1.01557-3.972-1.99871-7.81716-2.98186-11.66235l-.38995.02285c-.96219,3.84492-1.92436,7.68983-2.91275,11.6395Z" transform="translate(-84.58957 -348.64264)"/><path class="cls-2" d="M455.39193,375.6789c2.6811,0,5.086,0,7.49086,0,2.93844.00008,5.87919-.06165,8.81336.05045a2.51132,2.51132,0,0,1,1.77226,1.0781c1.4676,2.5291,2.78638,5.14452,4.26147,7.9236,1.12268-2.34465,2.29611-4.53785,3.22877-6.82906a3.10239,3.10239,0,0,1,3.48754-2.28077c4.45675.1811,8.92592.05748,13.39.05739.54472,0,1.08944,0,2.05066,0l-13.49636,19.8595c4.98441,7.49266,9.94875,14.95514,15.07367,22.659-.693.05764-1.15563.12878-1.61834.12956-4.80317.00812-9.6068-.02883-14.40922.03019a2.14031,2.14031,0,0,1-2.24668-1.31167c-1.75942-3.39853-3.628-6.74058-5.49137-10.17157-1.83862,3.40019-3.70116,6.74-5.44787,10.13936a2.12615,2.12615,0,0,1-2.22154,1.34433c-5.25172-.05785-10.50444-.02573-16.10709-.02573.413-.69553.6851-1.19858.99827-1.67464,4.34072-6.59835,8.66773-13.2059,13.05311-19.77449a2.01152,2.01152,0,0,0-.01772-2.65792c-3.88744-5.61124-7.70315-11.27221-11.53926-16.919C456.11242,376.85793,455.83845,376.3899,455.39193,375.6789Z" transform="translate(-84.58957 -348.64264)"/><path class="cls-2" d="M420.99628,375.77008h28.30454v11.71449H435.47835v3.50168h12.81741v11.35186H435.48321v4.09351H449.7918v11.80727H420.99628Z" transform="translate(-84.58957 -348.64264)"/><path class="cls-2" d="M353.01455,375.76966h28.78834v12.12755H368.65357v4.279h11.49169V403.478H368.51745v14.76306h-15.5029Z" transform="translate(-84.58957 -348.64264)"/><path class="cls-2" d="M387.05293,375.747H402.487v28.61244h13.26357v13.87643H387.05293Z" transform="translate(-84.58957 -348.64264)"/><path class="cls-2" d="M501.61456,370.54689a3.8288,3.8288,0,0,1-3.90711,3.64118,3.72681,3.72681,0,1,1,3.90711-3.64118Zm-5.60291,2.28233q.11694-2.15174.2339-4.30347c.5039-.03676,1.00825-.11008,1.51161-.10357,1.65224.02139,1.90291.44917,1.51381,2.03742-.11666.47615.2216,1.06376.44184,1.97371,1.19785-1.80744,1.01334-3.08892-.19209-4.03-1.00051-.781-2.21235-1.08061-3.22818.16132-.34828.43914-1.00879.89795-.98258,1.31349a16.14074,16.14074,0,0,0,.704,2.95015l3.26242.37766c-.75858-1.03654-1.18618-1.62084-1.39648-1.90816C497.127,371.91517,496.56933,372.37236,496.01165,372.82922Z" transform="translate(-84.58957 -348.64264)"/><path class="cls-3" d="M496.29577,368.56623c1.0126-1.2435,2.22444-.94392,3.22495-.16289,1.20543.941,1.38994,2.22253.19209,4.03-.22024-.90995-.5585-1.49756-.44184-1.97371.3891-1.58825.13843-2.016-1.51381-2.03742-.50336-.00651-1.00771.06681-1.51314.10271Z" transform="translate(-84.58957 -348.64264)"/><path class="cls-3" d="M496.0117,372.82956c.55763-.4572,1.11526-.91439,1.86821-1.53176.2103.28732.6379.87162,1.39648,1.90816l-3.26242-.37766Z" transform="translate(-84.58957 -348.64264)"/><path class="cls-3" d="M496.01393,372.8283a16.14389,16.14389,0,0,1-.704-2.95015c-.02621-.41554.6343-.87435.9842-1.3127l-.05014-.04056q-.11469,2.153-.23232,4.3045Z" transform="translate(-84.58957 -348.64264)"/></svg>