<?xml version="1.0" encoding="utf-8"?>
<!-- Generator: Adobe Illustrator 22.1.0, SVG Export Plug-In . SVG Version: 6.00 Build 0)  -->
<svg version="1.1" id="Слой_1" xmlns="http://www.w3.org/2000/svg" xmlns:xlink="http://www.w3.org/1999/xlink" x="0px" y="0px"
	 viewBox="0 0 501.1 373.5" style="enable-background:new 0 0 501.1 373.5;" xml:space="preserve">
<style type="text/css">
	.st0{fill:#FFFFFF;stroke:#6B2063;stroke-miterlimit:10;}
	.st1{fill:#442772;stroke:#6B2063;stroke-miterlimit:10;}
	.st2{fill:#6A2A84;stroke:#786891;stroke-miterlimit:10;}
	.st3{fill:#442770;stroke:#6B2063;stroke-miterlimit:10;}
	.st4{fill:#4F1D70;}
</style>
<title>метилан</title>
<g>
	<polygon class="st0" points="18.6,368.1 18.6,66.9 247.1,5.3 488.9,75.7 497.4,358.3 258.2,288.6 	"/>
	<path class="st1" d="M5.7,67.8l247-67.2L497,75.2l3.6,292.9l-248.2-65.5L0.5,372.9L5.7,67.8z M475.7,326.7l-4.5-233.8L257.1,32
		L33.6,93.2l2.2,229.5l219.6-58.9L475.7,326.7z"/>
	<path class="st2" d="M489.7,80.7L252.6,8.1L13,73.4L8,363.2L252.3,295l240.9,63.5L489.7,80.7z M255.2,271.4L28.5,332.2L26.2,87.6
		l230.9-63.2l221.2,62.9l4.8,249.1L255.2,271.4z"/>
	<polygon class="st3" points="467.4,303.5 467.4,315.1 252.4,252.9 41.3,316.4 41.3,302 257.2,243.9 	"/>
	<g>
		<path class="st4" d="M74.8,214.5c3-27.7,5.9-55.2,8.9-82.9c1.8,0,3.5,0,5.2,0c5.7,0,11.4,0.1,17,0c1.7,0,2.4,0.4,2.7,2.2
			c2,13.1,4.1,26.2,6.2,39.3c0.1,0.6,0.3,1.1,0.7,1.7c0.9-5,1.8-10.1,2.7-15.1c1.7-8.9,3.3-17.8,5-26.7c0.1-0.5,1-1.3,1.5-1.3
			c7.2-0.1,14.3,0,21.5-0.1c1.5,0,1.6,0.8,1.7,1.9c1.2,13.2,2.3,26.5,3.5,39.7c1.1,12.6,2.3,25.3,3.4,37.9c0.1,1,0.1,2,0.2,3.2
			c-6.8,0-13.4,0-20.2,0c-1-16.9-2-33.8-3-50.6c-0.1,0-0.2,0-0.3-0.1c-0.1,0.4-0.3,0.8-0.4,1.2c-3,15.9-5.9,31.9-8.8,47.9
			c-0.2,1.3-0.7,1.8-2.2,1.8c-3.6-0.1-7.2-0.1-10.8,0c-1.5,0-2-0.6-2.2-2c-2.4-15.6-4.9-31.2-7.4-46.8c-0.1-0.7-0.2-1.4-0.4-2
			c-0.2,0-0.4,0-0.6,0c0,4.7,0.2,9.4-0.1,14c-0.7,10.5-1.7,21-2.5,31.5c-0.4,5.1-0.4,5.1-5.5,5.1C85.5,214.5,80.3,214.5,74.8,214.5z
			"/>
		<path class="st4" d="M416.8,214.4c-6.5,0-12.9,0-19.4,0c0-0.9-0.1-1.8-0.1-2.6c0-11.3,0-22.6,0-33.9c0-1.8-0.1-3.6-0.7-5.2
			c-0.4-1-1.7-2.3-2.7-2.4c-1.1-0.1-2.9,0.9-3.3,1.8c-0.8,1.8-1.1,4-1.1,6c-0.1,11.2,0,22.4,0,33.6c0,0.8,0,1.6,0,2.6
			c-6.6,0-13.1,0-19.7,0c0-19.2,0-38.4,0-57.7c6.5,0,12.9,0,19.6,0c0,1.8,0,3.6,0,6c0.6-0.7,0.8-0.9,1-1.2c3.2-5.5,8.4-6.6,14.1-6.1
			c5.7,0.5,9.2,3.8,10.8,9.1c1,3.4,1.7,6.9,1.7,10.4c0.2,12.6,0.1,25.2,0.1,37.9C417,213.2,416.9,213.7,416.8,214.4z"/>
		<path class="st4" d="M344.3,161.3c0-1.5,0-3,0-4.6c6.4,0,12.7,0,19.1,0c0,19.2,0,38.4,0,57.7c-6.2,0-12.4,0-18.8,0
			c-0.1-1.3-0.3-2.5-0.4-4c-0.4,0.3-0.7,0.3-0.9,0.5c-7.5,7.7-18.8,6.1-24-3.6c-4.3-8-5.2-16.7-4.7-25.5c0.4-6.2,1.8-12.1,4.8-17.5
			c3.8-6.8,9.7-10,16.3-8.7C339.5,156.2,342.1,158.3,344.3,161.3z M344.8,184.3c-0.3-3.5-0.5-6.6-0.9-9.8c-0.5-3.3-2-5-4.2-5.3
			c-2.1-0.3-3.9,1.2-5.2,4.3c-0.2,0.5-0.5,1.1-0.6,1.7c-1.6,5.2-1.9,10.5-0.8,15.7c0.5,2.5,1.3,5,2.6,7.2c1.7,2.9,5.4,2.5,7-0.4
			c0.6-1,1-2.2,1.1-3.3C344.2,190.9,344.5,187.4,344.8,184.3z"/>
		<path class="st4" d="M237.6,156.5c4.3,0,8.5,0,12.6,0c2.1,0,4.8-0.6,6.2,0.4c1.3,0.9,1.2,3.7,1.7,5.7c2,8.6,3.9,17.3,5.9,25.9
			c0.1,0.5,0.3,1,0.9,1.5c0.8-4,1.5-7.9,2.3-11.9c1.2-6.7,2.4-13.4,3.6-20c0.1-0.6,0.7-1.5,1.1-1.5c5.6-0.1,11.2-0.1,17-0.1
			c-7.2,26.6-14.6,52.9-24.5,78.6c-5.5-1.5-11-3-16.7-4.6c1.1-3.3,2.2-6.5,3.3-9.7c0.1-0.4,0.3-0.8,0.4-1.3c2-5.3,2-10.3,0.2-15.8
			c-4.9-14.9-9.1-30.1-13.6-45.1C238,158.1,237.9,157.4,237.6,156.5z"/>
		<path class="st4" d="M205.5,190c-10.2,0-20.1,0-30.3,0c0.2,4.7,0.8,9,4.4,12.2c3,2.6,8.5,1.3,10.9-2.6c0.8-1.3,1.6-1.6,3-1.5
			c3.6,0.1,7.2,0,11.1,0c-0.8,5.2-3.1,8.8-6.5,11.8c-9.5,8.3-26,7.9-34.4-0.9c-4.9-5.2-6.7-11.7-7.2-18.6c-0.6-9,0.7-17.5,6-25.1
			c5.1-7.3,12.2-10.5,21-9.9c9,0.6,14.9,5.8,18.5,13.8C205,175.6,205.4,182.6,205.5,190z M174.6,178.2c4.9,0,9,0,13.8,0
			c-1-2.8-1.5-5.4-2.8-7.5c-2-3.4-6.4-3.3-8.3,0.1C176.1,172.9,175.6,175.5,174.6,178.2z"/>
		<path class="st4" d="M310.8,214.4c-6.6,0-13,0-19.5,0c0-29.1,0-58.2,0-87.4c6.5,0,12.9,0,19.5,0
			C310.8,156.1,310.8,185.1,310.8,214.4z"/>
		<path class="st4" d="M209.7,166.5c-2,0-3.7,0-5.6,0c0.5-3.5,0.9-6.6,1.3-9.9c1.4-0.1,2.7-0.2,4.3-0.3c0-3.2,0.2-6.2-0.1-9.2
			c-0.2-2.4,0.5-3.5,3-4c5.1-1,10.2-2.3,15.3-3.5c0.4-0.1,0.8-0.1,1.5-0.1c0,4.8,0.1,9.5-0.1,14.2c-0.1,2.1,0.5,3,2.7,2.7
			c0.7-0.1,1.5-0.2,2.2,0c0.5,0.1,1.2,0.7,1.2,1.1c0.1,2.9,0.1,5.7,0.1,8.9c-2.1,0-3.9,0-5.9,0c-0.1,0.9-0.2,1.4-0.2,2
			c0,9.7,0,19.5,0,29.2c0,0.6,0,1.2,0.1,1.8c0.4,3.5,1.3,4.4,5.1,4.9c0,2.9,0,5.9,0,8.9c0,0.4-0.6,1-1,1.1c-6.1,1.5-12.1,1.7-18-1
			c-3.5-1.7-5.5-4.6-5.9-8.5c-0.1-1.2-0.1-2.4-0.1-3.5c0-10.8,0-21.5,0-32.3C209.7,168.4,209.7,167.7,209.7,166.5z"/>
		<path class="st4" d="M388.8,129.3c0-8.3,6.7-14.8,15.2-14.8c8.3,0.1,14.9,6.7,14.9,15c0,8.3-6.8,15.1-15.1,15.1
			C395.3,144.5,388.8,137.9,388.8,129.3z M390.6,129.4c-0.1,7.5,5.6,13.3,13.2,13.4c7.2,0.1,13.3-6,13.3-13.2
			c0-7.3-5.7-13.1-12.9-13.2C396.4,116.3,390.7,121.8,390.6,129.4z"/>
		<path class="st4" d="M397.3,138.2c0-6,0-11.8,0-17.5c3.5,0,6.8-0.2,10.2,0.1c1.8,0.1,3,1.4,3.4,3.3c0.4,1.9,0,3.5-1.6,4.7
			c-0.3,0.2-0.6,0.4-0.5,0.4c0.9,3.2,1.6,6.1,2.5,9.2c-0.6,0.1-1,0.1-1.3,0.1c-3.7,0.1-3.7,0.1-4.2-3.5c-0.6-3.8-1-4.2-4.1-3.7
			c0,2.3,0,4.6,0,7.1C400.1,138.2,398.8,138.2,397.3,138.2z M401.6,127.9c1.9-0.6,3.4-0.9,4.9-1.6c0.2-0.1,0.2-1.8-0.1-1.9
			c-1.5-0.5-3.1-0.7-4.8-1.1C401.6,125,401.6,126.1,401.6,127.9z"/>
	</g>
</g>
</svg>
