<svg id="Слой_1" data-name="Слой 1" xmlns="http://www.w3.org/2000/svg" viewBox="0 0 398.59048 292.42031"><defs><style>.cls-1{fill:#fff;}.cls-2{fill:#edcb33;}.cls-3{fill:#cb2629;}</style></defs><title>момент</title><path d="M299.26023,267.09072q83.41211-.00022,166.82427.00061a32.48227,32.48227,0,0,1,32.28969,32.21562q.00017,113.73029.00122,227.46057a32.8616,32.8616,0,0,1-32.85986,32.7413q-125.04275.00425-250.08555.00121-41.17815,0-82.35627-.00044c-18.84258-.00114-33.28963-14.401-33.2888-33.15595q.005-113.42843.00121-226.85685a32.28175,32.28175,0,0,1,32.34817-32.40515Q215.69727,267.08843,299.26023,267.09072Zm-1.67711,239.5226q51.892,0,103.78394.00044c15.99.0007,31.97994.03061,47.96982-.003,6.11074-.01286,10.43238-4.09007,10.59831-9.99018.29613-10.52966.74268-21.06233.71166-31.59251-.08464-28.74083-.46172-57.48087-.49907-86.2215-.00438-3.39135-1.00128-4.89078-4.07663-6.12607-19.17-7.70024-38.26343-15.59159-57.369-23.45184q-49.54289-20.3826-99.094-40.745a5.61669,5.61669,0,0,0-3.84886-.009c-12.36947,4.99721-24.684,10.13025-37.0168,15.21823q-45.4782,18.76234-90.96011,37.51578c-9.7386,4.01481-19.50367,7.9663-29.20816,12.06161-1.21188.51139-2.87967,1.61294-3.0387,2.64164a65.15825,65.15825,0,0,0-.55626,10.18246q.21363,53.67647.50314,107.35271c.04314,9.57214,3.56348,13.16454,13.06242,13.165Q223.064,506.61572,297.58312,506.61332Z" transform="translate(-99.78493 -267.09018)"/><path class="cls-1" d="M298.85037,506.23607q-74.51918-.00011-149.03833-.00121c-9.49894-.00048-13.01928-3.59288-13.06242-13.165q-.24191-53.67642-.50315-107.35271a65.15826,65.15826,0,0,1,.55627-10.18246c.159-1.0287,1.82681-2.13025,3.03869-2.64164,9.7045-4.09531,19.46957-8.0468,29.20817-12.06161q45.48306-18.75063,90.96011-37.51578c12.33282-5.088,24.64733-10.221,37.0168-15.21823a5.61664,5.61664,0,0,1,3.84886.009q49.5779,20.29707,99.094,40.745c19.10557,7.86025,38.199,15.7516,57.369,23.45185,3.07535,1.23528,4.07225,2.73471,4.07663,6.12606.03735,28.74063.41443,57.48067.49907,86.2215.031,10.53018-.41554,21.06285-.71167,31.59251-.16592,5.90011-4.48756,9.97733-10.59831,9.99018-15.98988.03363-31.97986.00372-47.96982.003Q350.74236,506.23434,298.85037,506.23607ZM178.32866,388.53685c-2.1691.24493-3.72473.54828-5.28466.57243-4.42244.06845-8.84693.05281-13.27.00882-2.10357-.02091-3.00715.73463-2.999,3.01874q.10718,29.85867.00707,59.7179c-.00591,2.13691.5492,3.13561,2.88672,3.02758,3.41091-.15764,6.83984-.156,10.25082.00074,2.17658.1,2.77753-.75708,2.74582-2.80022-.15913-10.25037-.2255-20.5022-.30688-30.75366-.00733-.9215.11088-1.844.17079-2.766.70308.32541.92654.65452,1.00709,1.01553,2.20824,9.89508,4.24739,19.83119,6.65142,29.67824,1.64729,6.74731-.14084,5.41348,6.757,5.57959,1.40669.03389,2.82148-.08206,4.22072.02516,1.79959.13789,2.61534-.438,3.027-2.36594,2.24258-10.50247,4.66054-20.96764,7.03836-31.441.19533-.86046.54146-1.68668.81753-2.5288l.73716.19484v36.12044c4.27228,0,8.28753-.12387,12.29035.04571,2.46853.10456,3.31053-.67012,3.29959-3.2179-.08763-20.40831-.04558-40.81719-.05869-61.22588a17.77193,17.77193,0,0,0-.2033-2.082,54.34458,54.34458,0,0,1-5.61583.74025c-4.11949.10114-8.25229-.119-12.35953.1272-1.23779.07417-3.24783,1.04309-3.47986,1.96185-2.0533,8.13053-3.81438,16.33588-5.60171,24.53221-.968,4.43928-1.8192,8.904-2.72309,13.35728l-.68489.11713C184.53024,415.59224,181.41177,401.98743,178.32866,388.53685Zm102.696,37.205.63809-.03594c2.25894,9.00117,4.59909,17.98322,6.72063,27.01665.54112,2.30406,1.97486,2.23286,3.59286,2.09695,1.82619-.15344,4.20672.94231,4.86263-2.107.67526-3.13952,1.45885-6.25686,2.24433-9.37144,1.46033-5.79046,2.95646-11.57185,4.4377-17.357l.40342.15657v28.70068c3.487,0,6.91364-.19031,10.30811.05842,2.87223.21042,3.56927-.87236,3.54927-3.58754-.1098-14.88138-.047-29.76406-.06291-44.64627-.0011-1.01912-.16048-2.03808-.22987-2.86228-1.8038.22786-3.15679.5171-4.51548.54715-3.4173.0756-6.86127-.19915-10.24458.15042-1.425.14724-3.54678,1.23356-3.93475,2.37474-1.501,4.4153-2.47144,9.01506-3.55911,13.56531-.6722,2.81223-1.19923,5.65919-1.79141,8.49053l-.66942.00888c-2.29225-8.52483-4.58449-17.04967-6.68407-24.858H267.33132v50.75325c4.37945,0,8.49158-.05264,12.60127.02515,1.71272.03242,2.02556-.86621,1.974-2.25956q-.45052-12.183-.878-24.367C280.99934,427.40456,281.02466,426.57275,281.02466,425.74182Zm84.92251,29.0858c4.88638,0,9.489.081,14.08162-.09727.609-.02361,1.62786-1.34138,1.66907-2.10251.18457-3.40685.01728-6.83074.099-10.24558.21893-9.15556-1.82152-7.45618,8.07694-7.70387,2.0511-.05134,2.55831.83233,2.53931,2.70239-.04991,4.92252.1607,9.84927.03727,14.76857-.0544,2.16929.67738,2.81393,2.75429,2.72656a89.01251,89.01251,0,0,1,9.64242.01565c2.65624.177,3.4373-.71284,3.41693-3.38043-.1158-15.17335-.049-30.34814-.061-45.52241a21.85066,21.85066,0,0,0-.207-2.26594c-2.09423.24477-3.828.54545-5.5719.62655a65.27449,65.27449,0,0,1-6.62989.0014c-2.3912-.13236-3.49439.62139-3.33819,3.24218.20287,3.40467.03035,6.83065.055,10.2472.03617,5.02835.04954,5.02827-5.20309,5.01906-5.29577-.00931-5.512-.225-5.52188-5.649-.00818-4.49836-.00166-8.99673-.00166-12.92453h-15.8371Zm-100.804-24.65937c-.73016-4.6462-.94445-8.20118-1.88935-11.55-1.77129-6.27751-4.94377-11.62716-11.48939-14.13517-4.15521-1.59206-8.33919-.58644-12.49429-.10965a17.3258,17.3258,0,0,0-10.29249,5.14511c-9.30518,9.11823-10.08749,23.12057-4.98034,34.01225,3.72777,7.95006,10.27662,11.55041,18.83069,11.51561,8.44655-.03437,15.11331-3.6247,18.524-11.505C263.30591,439.02691,264.09221,434.00709,265.14318,430.16825Zm97.26345,7.794c-2.42833.32044-4.30654.68486-6.199.78817-2.30593.12585-4.6564-.19981-6.92462.11852a7.9597,7.9597,0,0,0-3.98551,1.94455c-1.47394,1.33722-2.96751,2.10962-4.45986.6636a12.37242,12.37242,0,0,1-2.8719-4.48024c-1.04529-2.82939-.36489-3.62754,2.63017-3.63932,6.5359-.02571,13.07356-.09076,19.60721.03245,2.40321.04534,3.30184-.79922,3.002-3.156-.36721-2.886-.33539-5.85377-.98975-8.66674-2.34516-10.08119-7.28071-19.65386-22.28084-16.96883-9.21929,1.65023-14.58655,7.73262-17.83457,15.78756-2.65665,6.58838-2.37481,13.566-.51171,20.42783,2.41356,8.88931,9.16835,14.1906,18.71467,14.69615,9.7163.51451,17.60183-4.325,20.76444-12.82C361.664,441.08733,362.0084,439.39085,362.40663,437.96221Zm80.83781-34.2739c-2.10958.252-3.55454.5643-5.00148.574-7.53618.0504-15.073.00541-22.60935.03985-1.45961.00667-2.91826.21884-4.544.34959,0,2.7977.00062,5.29916-.00011,7.80063-.00126,4.119.00688,4.29729,3.971,4.1072,2.88446-.13832,3.56356.97244,3.52993,3.67156-.13149,10.54951-.00445,21.102-.09226,31.65239-.01838,2.20542.65988,3.07447,2.92,2.99145,3.61262-.13263,7.24255-.18773,10.84829.01871,2.53529.14516,3.29634-.7215,3.27067-3.21907-.10939-10.65047.01168-21.30329-.091-31.9539-.02284-2.36945.73494-3.36263,3.10953-3.11768a7.89224,7.89224,0,0,0,2.991-.05707c.66588-.20047,1.60071-1.02411,1.62281-1.60027C443.31475,411.16233,443.24444,407.37069,443.24444,403.68831Zm5.32542,45.163a4.9768,4.9768,0,0,0-4.9276-5.2929,5.46446,5.46446,0,0,0-5.25687,5.142,5.11607,5.11607,0,0,0,4.94262,5.0178A4.75142,4.75142,0,0,0,448.56986,448.85128Z" transform="translate(-99.78493 -267.09018)"/><path class="cls-1" d="M136.80274,375.53467l160.22377-67.43726L461.415,378.42934l-.2126,117.814s-2.15272,10.02206-6.37551,10.00612-311,0-311,0-7.02273-1.357-7.0773-13.17963S136.80274,375.53467,136.80274,375.53467Z" transform="translate(-99.78493 -267.09018)"/><path class="cls-2" d="M461.08593,480.74615l-.7132,17.9972s.12449,14.26346-14.87551,10.38333-302.5-.37721-302.5-.37721-9.59719-1.102-8.34455-12.80242l1.25264-11.70047Z" transform="translate(-99.78493 -267.09018)"/><path class="cls-3" d="M177.43649,396.30267c2.99918,13.08441,6.03275,26.31886,9.0663,39.55329l.66625-.11394c.87928-4.332,1.70728-8.67523,2.649-12.99366,1.73867-7.97321,3.45181-15.95517,5.44922-23.86437.22571-.89375,2.181-1.83629,3.38513-1.90845,3.99543-.23953,8.01572-.02535,12.02306-.12373a52.86616,52.86616,0,0,0,5.463-.7201,17.287,17.287,0,0,1,.19776,2.02532c.01275,19.85311-.02815,39.7064.05709,59.55914.01064,2.47842-.80843,3.232-3.20976,3.13029-3.89385-.16495-7.7998-.04446-11.95578-.04446V425.66486l-.71708-.18953c-.26856.8192-.60527,1.62292-.79529,2.46-2.31308,10.18826-4.66522,20.36854-6.84675,30.5851-.40043,1.87545-1.194,2.43568-2.94457,2.30153-1.36116-.1043-2.73743.00849-4.10582-.02447-6.71009-.16159-4.97063,1.13593-6.57307-5.4277-2.3386-9.579-4.32223-19.24461-6.47035-28.87032-.07836-.35118-.29574-.67133-.97968-.98788-.05828.897-.17327,1.79433-.16614,2.69074.07916,9.97239.14372,19.94514.29853,29.91646.03084,1.98752-.55375,2.8213-2.67108,2.724-3.31812-.15249-6.6537-.15407-9.97176-.00072-2.27388.10509-2.81389-.86642-2.80813-2.94516q.08014-29.046-.00688-58.09221c-.008-2.22193.871-2.95689,2.9173-2.93656,4.30268.0428,8.60673.058,12.90878-.00858C173.81315,396.836,175.32643,396.54093,177.43649,396.30267Z" transform="translate(-99.78493 -267.09018)"/><path class="cls-3" d="M280.1947,433.393c0,.80831-.02463,1.61748.00381,2.42478q.41765,11.85215.85414,23.70363c.05012,1.35542-.25419,2.22958-1.92029,2.19805-3.99781-.07567-7.998-.02447-12.25822-.02447V412.32336h18.2481c2.04243,7.59574,4.27226,15.88851,6.50211,24.18126l.6512-.00863c.57606-2.75427,1.08874-5.52373,1.74265-8.2594,1.05805-4.42638,2.002-8.90091,3.46221-13.196.37741-1.11011,2.44146-2.16686,3.82764-2.31009,3.2912-.34005,6.64142-.07278,9.96569-.14632,1.32171-.02924,2.63786-.31061,4.39256-.53227.0675.80177.22254,1.793.22361,2.78437.01544,14.47707-.04561,28.9546.0612,43.43087.01945,2.64126-.65862,3.69457-3.45265,3.48988-3.30206-.242-6.63544-.05683-10.0275-.05683V433.78081l-.39244-.15231c-1.44091,5.6277-2.89631,11.25171-4.31688,16.88454-.7641,3.02979-1.52637,6.06227-2.18324,9.11632-.638,2.96634-2.95378,1.90042-4.73025,2.04968-1.574.13221-2.96867.20147-3.495-2.03986-2.06379-8.78752-4.34023-17.52506-6.53768-26.28119Z" transform="translate(-99.78493 -267.09018)"/><path class="cls-3" d="M365.37927,461.732V412.566h15.406c0,3.82087-.00634,8.19678.00161,12.57268.0096,5.27634.22,5.48612,5.37156,5.49519,5.10964.00895,5.09664.009,5.06145-4.88244-.02393-3.32354.14389-6.65625-.05345-9.96823-.152-2.54945.9212-3.28268,3.24731-3.15393a63.4934,63.4934,0,0,0,6.44941-.00136c1.69644-.07889,3.383-.37138,5.42021-.60949a21.25609,21.25609,0,0,1,.2014,2.20425c.01171,14.76119-.05328,29.52288.05937,44.28316.01981,2.595-.74,3.46057-3.32392,3.28841a86.58541,86.58541,0,0,0-9.37992-.01522c-2.02037.085-2.73223-.5421-2.67931-2.65234.12006-4.78539-.08481-9.578-.03626-14.36652.01849-1.81916-.47492-2.67878-2.47017-2.62883-9.629.24095-7.6441-1.41217-7.85707,7.49415-.07947,3.32188.08326,6.65256-.09628,9.96666-.04009.74041-1.03116,2.02231-1.62363,2.04528C374.61,461.81087,370.13263,461.732,365.37927,461.732Z" transform="translate(-99.78493 -267.09018)"/><path class="cls-3" d="M263.39658,437.79507c-1.02235,3.73434-1.78725,8.61751-3.688,13.0091-3.3178,7.66574-9.80307,11.15834-18.01969,11.19177-8.3212.03386-14.69177-3.46849-18.31806-11.20212-4.96812-10.59518-4.20711-24.21633,4.84476-33.08634a16.85423,16.85423,0,0,1,10.0123-5.005c4.042-.4638,8.11207-1.442,12.15416.10667,6.36743,2.43974,9.45355,7.64376,11.17661,13.75037C262.47785,429.81715,262.6863,433.27536,263.39658,437.79507Zm-26.68031-2.116c.63377,4.68213-.15614,9.15717,3.50674,12.27138.85213.7245,2.56372,1.68437,3.04769,1.34592a7.84179,7.84179,0,0,0,2.54138-3.56411,10.0322,10.0322,0,0,0,.35119-3.9974,133.324,133.324,0,0,0-1.07859-13.59956c-.20734-1.30736-2.06378-3.00486-3.442-3.32394-2.13591-.49446-3.22938,1.53382-3.65654,3.39857C237.381,430.85144,237.06437,433.559,236.71627,435.679Z" transform="translate(-99.78493 -267.09018)"/><path class="cls-3" d="M360.69916,445.35938c-.38739,1.38974-.72246,3.04-1.30286,4.599-3.07652,8.26369-10.74738,12.97148-20.19917,12.471-9.28644-.49179-15.85735-5.64877-18.2052-14.29609-1.81239-6.675-2.08655-13.46269.49777-19.87172,3.15961-7.83566,8.38075-13.75247,17.34907-15.35778,14.59178-2.61193,19.393,6.70014,21.67429,16.50689.63654,2.73639.60559,5.62333.9628,8.43081.29169,2.2926-.58247,3.11417-2.92026,3.07006-6.35579-.11985-12.71548-.05657-19.07345-.03156-2.91353.01146-3.5754.78788-2.55857,3.54025a12.03559,12.03559,0,0,0,2.79372,4.35827c1.45173,1.40665,2.90464.65528,4.33845-.64554a7.74291,7.74291,0,0,1,3.877-1.8916c2.20647-.30968,4.493.00713,6.73611-.1153C356.50986,446.02559,358.33694,445.67109,360.69916,445.35938Zm-15.3686-13.23457c-.977-2.41045-1.453-4.32105-2.49107-5.8502-.55943-.82418-2.64771-1.67862-3.06361-1.33389a11.64757,11.64757,0,0,0-3.02195,4.18783c-.22766.51146.76166,2.2122,1.40745,2.34667A58.206,58.206,0,0,0,345.33056,432.12481Z" transform="translate(-99.78493 -267.09018)"/><path class="cls-3" d="M441.6631,412.06931c0,3.58214.0684,7.27056-.07284,10.95091-.0215.56048-.93088,1.36169-1.57864,1.55671a7.67765,7.67765,0,0,1-2.90962.05552c-2.30994-.23829-3.0471.72785-3.02488,3.0328.09985,10.36067-.01792,20.72349.0885,31.084.025,2.42958-.71537,3.27265-3.18164,3.13144-3.50758-.20082-7.03869-.14722-10.553-.0182-2.19859.08076-2.85838-.76463-2.84051-2.91.08542-10.26319-.03815-20.52841.08976-30.79073.03271-2.62564-.62791-3.70616-3.43384-3.5716-3.85623.18491-3.86415.0115-3.86293-3.99539.00071-2.43338.0001-4.86674.0001-7.58828,1.58151-.12719,3.00045-.33359,4.42033-.34007,7.3312-.0335,14.66283.01026,21.99386-.03877C438.20533,412.61825,439.611,412.31444,441.6631,412.06931Z" transform="translate(-99.78493 -267.09018)"/><polygon class="cls-2" points="36.542 112.656 199.29 44.156 360.363 111.716 360.363 104.156 199.29 34.656 36.542 100.656 36.542 112.656"/></svg>