<svg id="Слой_1" data-name="Слой 1" xmlns="http://www.w3.org/2000/svg" viewBox="0 0 445.08415 379.08912"><defs><style>.cls-1{fill:#ca2629;fill-rule:evenodd;}</style></defs><title>sti</title><path class="cls-1" d="M110.275,335.3181v41.65223c0,4.63526,6.15136,11.06227,8.9804,13.34a127.6941,127.6941,0,0,0,24.25,15.17528c6.32545,3.11195,12.397,6.7099,18.59189,10.04671,1.34924.72538,2.39381,1.12435,3.72128,1.86426l32.962,17.61986c9.71305,5.63634,19.92663,10.04674,29.55988,15.82088l51.79328,27.42722c1.371.73991,2.11089,1.25493,3.598,1.98759,9.93793,4.93267,19.45512,10.67057,29.37854,15.625l7.31924,3.83733c2.67671,1.33475,16.95251,8.61772,18.59916,10.04675H163.83819l-.36995-76.99354c-1.94406-.457-48.62328-24.736-53.19328-27.15151,0,8.21871-.46425,115.67882.10156,120.03846,2.98863,22.937,12.77422,36.69051,37.45944,36.55993,3.53268-.02174,5.52752.37721,8.92963.36271,12.08509-.04351,24.27174.74716,36.45839.74716,6.19488,0,12.397.01449,18.59915-.00725,3.3876-.00725,5.4042.3772,8.92237.3772H375.4797c9.94516,0,21.58777-7.856,26.63652-15.39288,7.70372-11.49754,6.83324-30.00238,6.83324-43.37868a31.11664,31.11664,0,0,0-1.9876-10.28612c-2.91608-8.79178-11.34519-14.653-19.8178-17.37323-5.60005-1.80623-25.86036-13.4996-32.86769-16.97426-9.655-4.7876-18.91832-10.13377-28.508-15.00843-4.113-2.0819-8.255-3.96066-12.25194-6.34723-2.78551-1.66837-5.55653-2.72748-8.26951-4.38135-3.89537-2.37205-8.1607-4.33787-12.22292-6.369-1.60313-.79794-2.43733-1.42177-4.084-2.23422L235.99332,398.1809c-10.968-5.44045-21.68208-11.70065-32.59929-17.24269-4.2218-2.14712-8.41459-4.02592-12.47681-6.49955-3.06116-1.86423-27.19509-13.57213-28.19614-15.32034-.6601-1.15338-1.16063-3.14095-1.857-4.4612,42.69681,0,84.233-.36992,126.83547-.36992l.36995,38.6781c0,4.83837.37,8.29125.37,13.02084l44.70615,23.73493a59.47653,59.47653,0,0,0,6.62286,3.41665V358.00124c0-7.69648.798-18.17121-.73265-24.55468-4.04044-16.84365-17.22814-26.61478-33.15784-29.32776-29.67595-5.056-118.42088-.885-146.14551-.058-1.90053.058-2.285.39173-4.43942.399l-9.69129.37c-2.16893-.01449-2.93785-.50781-4.79486-.38448-11.28716.74716-18.60641,8.197-24.13393,16.80741-1.40726,2.19068-6.398,11.23639-6.398,14.06545Z" transform="translate(-110.09572 -184.60531)"/><path class="cls-1" d="M359.48472,235.63419h-217.967c-3.26428,0-11.06954,4.31612-13.51412,5.82493-1.02281.63838-1.94406,1.33474-2.85081,1.98037-15.46544,11.10582-14.87787,27.36918-14.87787,45.38077,0,2.70567.23213,3.91708.38446,6.31093.13057,2.03111.73265,3.93164.73265,5.96275,1.0881-.2902,5.027-4.37416,9.13274-6.855,12.44054-7.50061,25.75155-7.64568,41.44912-7.64568,10.80839,0,21.20332.36992,32.35991.36992h98.19684c22.0085,0,42.96519.37,65.08977.37,0,26.165.3772,51.1694.3772,77.36346l.37,58.02437c0,6.855.36995,12.87577.36995,19.3463,1.5596.36271,27.17334,14.90688,31.36613,16.98878l6.27467,3.39485c1.16062.70364,1.90778,1.01555,3.15546,1.68293,2.03111,1.09533,8.0519,4.71506,9.41564,5.085l.3772-183.37277h68.43385c.86324,0,1.11711-.26115,1.11711-1.11714v-49.0948c-11.37421,0-22.80643-1.17512-34.21691-1.11708l-13.02087-.37c-1.68293-.09427-2.03111-.38442-4.07671-.38442-6.19488-.01455-11.18563-.36273-17.49656-.36273v-27.5215H359.48472Z" transform="translate(-110.09572 -184.60531)"/><path class="cls-1" d="M429.41287,417.14275v40.54234l-.3772,60.25862c0,20.92043,1.80625,22.61785-10.997,39.59211-1.5596,2.07462-3.26427,3.75755-4.62076,5.78866h65.45972V302.211H429.41287Z" transform="translate(-110.09572 -184.60531)"/><path class="cls-1" d="M501.938,214.43087c0-10.83742,5.00524-18.86751,13.63745-23.19088a24.51787,24.51787,0,0,1,28.30492,4.686c14.94318,14.94318,5.67262,41.93513-18.13488,41.93513a24.391,24.391,0,0,1-16.46648-6.96381c-3.45288-3.43833-7.341-9.77832-7.341-16.46648Zm-4.09124-2.23422c0,5.01973.56582,8.8426,2.4736,12.78149a24.957,24.957,0,0,0,5.80319,8.32755c10.12652,10.0975,24.6562,11.55558,36.58895,3.67049l3.96791-3.09746a34.50528,34.50528,0,0,0,5.73062-8.03734c5.1068-10.97524,3.05394-24.23549-5.36791-32.70811-8.741-8.79905-21.55153-10.85915-32.82416-5.85391-6.23115,2.7637-10.65607,7.92857-13.6447,13.88407a26.21558,26.21558,0,0,0-2.7275,11.03322Z" transform="translate(-110.09572 -184.60531)"/><path class="cls-1" d="M529.08954,212.9438h-8.92239V202.90434c2.72026,0,9.10372-.40622,11.026.87048,2.58965,1.71917,2.35752,9.169-2.10364,9.169ZM515.32876,231.543h4.83839V217.78223c8.29853,0,6.03529-1.313,9.91617,6.44151.914,1.828,3.07568,5.60007,3.47466,7.31924h5.94822l-7.43529-14.50791c8.86435-2.0674,7.81977-18.59917-2.60417-18.59917h-14.138Z" transform="translate(-110.09572 -184.60531)"/></svg>