<svg id="Слой_1" data-name="Слой 1" xmlns="http://www.w3.org/2000/svg" viewBox="0 0 296.48257 300.0449"><defs><style>.cls-1{fill:#fff;}.cls-2{fill:#c8262a;}.cls-3{fill:#ca2729;}.cls-4{fill:#e4e53f;}.cls-5,.cls-7{fill:#ca2629;}.cls-6{fill:#b8262e;}.cls-7{font-size:33.90144px;font-family:HelveticaNeueCyr-Bold, HelveticaNeueCyr;font-weight:700;}</style></defs><title>vershina</title><rect class="cls-1" x="75.2827" y="55.90521" width="113.74407" height="170.44196"/><path class="cls-2" d="M400.276,455.83c-1.72747,3.84256-3.56766,7.59854-5.55328,11.25145h-201.762c-1.98562-3.65291-3.82581-7.40889-5.55328-11.25145h3.71309l-.5975,1.41416,207.17024-.71738-.30663-.69678Z" transform="translate(-160.40011 -229.48286)"/><path class="cls-3" d="M422.9669,397.93855a126.95936,126.95936,0,0,1-15.26651,60.5383q-2.37387,4.40794-5.06738,8.60463h-9.25583c1.96622-2.79359,3.78843-5.666,5.499-8.60463A119.58345,119.58345,0,0,0,414.974,398.391c0-66.20588-53.64843-119.97933-120.1011-120.70611l-2.11024-3.77733-2.07823,3.7931C224.887,279.18733,171.98989,332.65336,171.98989,398.391a119.58335,119.58335,0,0,0,16.09781,60.08584c1.71059,2.93863,3.5328,5.811,5.499,8.60463H182.47667q-2.7099-4.19038-5.08377-8.60463a127.13551,127.13551,0,0,1-15.25012-60.5383c0-71.16087,58.37977-128.85828,130.41187-128.85828C364.57074,269.08027,422.9669,326.77768,422.9669,397.93855Z" transform="translate(-160.40011 -229.48286)"/><path class="cls-4" d="M289.90282,277.69279,190.00675,458.469h-3.71309A118.68811,118.68811,0,0,1,170.037,398.38313C170.037,332.64548,223.45613,279.17944,289.90282,277.69279Z" transform="translate(-160.40011 -229.48286)"/><path class="cls-4" d="M415.128,398.391a118.68827,118.68827,0,0,1-16.25666,60.08584H395.982L293.84175,277.6849C360.95018,278.41168,415.128,332.18513,415.128,398.391Z" transform="translate(-160.40011 -229.48286)"/><path class="cls-5" d="M396.97481,458.48473H292.34839L340.779,372.39108l-48.2856-81.26636-48.57567,81.26636,48.43063,86.09365H190.7087l99.89607-180.77618c.93645-.01576,1.8725-.03153,2.82512-.03153.46822,0,.93645,0,1.40467.01577Z" transform="translate(-160.40011 -229.48286)"/><path class="cls-6" d="M432.786,229.48286a24.09708,24.09708,0,1,0,24.09672,24.09708A24.09668,24.09668,0,0,0,432.786,229.48286Zm0,44.08952A19.99244,19.99244,0,1,1,452.778,253.57994,19.99309,19.99309,0,0,1,432.786,273.57238Z" transform="translate(-160.40011 -229.48286)"/><text class="cls-7" transform="translate(259.88394 36.05714)">R</text><path class="cls-5" d="M285.25392,484.1306c0,2.90132-.00076,5.41259.00013,7.92388.00261,7.24409-.03113,14.48848.02674,21.73213.0238,2.97731-.78915,6.35015,4.32023,6.24322,5.12766-.1073,4.10178-3.60914,4.134-6.48795.0946-8.45042.2772-16.91291-.07486-25.34977-.17475-4.18775,2.04407-4.0739,4.91692-4.1404,3.00994-.06965,4.62481.51611,4.51426,4.17765-.27113,8.97942-.13836,17.97278-.07369,26.95983.03026,4.20623,3.57556,6.44323,7.27821,4.477.82319-.43715,1.31226-2.19318,1.32826-3.35064.12048-8.71792.08465-17.438.09653-26.15741.00252-1.85072.00037-3.70146.00037-5.35888.60781-.32138.82822-.53318,1.06032-.54685,8.03652-.47362,8.12736-.47187,8.20793,7.38135.11829,11.52764.15885,23.05768.00713,34.58373-.01306.99047-1.698,2.79687-2.628,2.81115-13.14259.20162-26.289.14206-39.43431.19036-2.25939.00828-2.91381-.91352-2.89655-3.1855.09481-12.47453.12571-24.95229-.08162-37.42462-.0571-3.43479.77192-5.05952,4.42943-4.50957A38.491,38.491,0,0,0,285.25392,484.1306Z" transform="translate(-160.40011 -229.48286)"/><path class="cls-5" d="M190.47248,484.17942c0,5.89823.40094,11.29854-.19795,16.58557-.23855,2.106-2.68825,3.96143-4.31012,6.17493,8.289,5.83241,2.99891,14.34173,4.78067,21.94316h-30.342c0-4.36476-.00753-8.37349.0015-12.38214.02147-9.53141.07683-19.0629.05642-28.59421-.00445-2.07757.117-3.76081,2.86689-3.74553C172.1591,484.21026,180.9908,484.17942,190.47248,484.17942Zm-14.76039,35.50091c1.91568-.45775,5.12159,1.3729,5.3223-2.724.15212-3.10485-2.70722-5.78077-6.24689-5.82573-2.5447-.03231-4.58237-.01111-4.65288,3.69536C170.05369,519.08018,171.731,520.37637,175.71209,519.68033Zm.20687-25.934c-2.71329.26165-6.07575-1.11658-5.77749,3.8231.18756,3.10642.733,4.71848,4.28832,4.47216,3.86194-.26758,6.66727-2.28085,6.65489-5.43315C181.068,492.3673,177.68988,494.40618,175.919,493.74637Z" transform="translate(-160.40011 -229.48286)"/><path class="cls-5" d="M361.872,484.59246v43.92728c-.37542.216-.5972.45276-.82572.45943-10.02338.29339-8.35116,1.17617-8.42219-7.92557-.03952-5.06543-.00708-10.13139-.00708-15.19711l-1.30826-.397c-1.233,2.21448-2.57445,4.3765-3.6765,6.65432q-3.48558,7.2043-6.75488,14.51263c-1.9621,4.39443-5.80713,1.98485-8.79578,2.30274-.50269.05349-1.87661-2.8008-1.89621-4.32381-.15866-12.33394-.0153-24.67157-.14353-37.00619-.03192-3.07042,1.3787-3.78242,3.94877-3.377,2.23093.35185,5.698-1.68887,5.52074,3.25988-.24276,6.78-.06067,13.57519-.06067,20.36384q.74724.16888,1.49446.33771c2.04859-4.18437,4.11022-8.36247,6.13941-12.55623.81492-1.6842,1.53841-3.41239,2.33818-5.10421C352.96734,483.02477,353.19507,482.91756,361.872,484.59246Z" transform="translate(-160.40011 -229.48286)"/><path class="cls-5" d="M435.19921,484.18153c1.45851,15.05108,2.87072,29.62463,4.32367,44.61872h-9.425c-.138-1.361-.27852-2.64286-.39632-3.9268-.60475-6.59134-1.08786-6.96093-7.88013-6.48544-2.634.18437-4.09387,1.08943-4.22871,4.10446-.32247,7.21013-2.227,8.29922-9.76657,5.86387,1.39247-13.62784,2.748-27.31221,4.26567-40.97864.12523-1.12782,1.31845-3.03065,2.06746-3.05633C421.07063,484.08434,427.99344,484.18153,435.19921,484.18153ZM423.37175,508.6537c3.88573.87385,5.12983-.67973,4.34831-4.50672a42.65443,42.65443,0,0,1-.537-6.79123c-.0925-2.293-.64764-3.68545-3.4886-3.60257-2.75477.08035-3.39087,1.3786-3.47088,3.71735a52.96247,52.96247,0,0,1-.6257,7.18551C419.0514,507.82181,419.91514,509.39076,423.37175,508.6537Z" transform="translate(-160.40011 -229.48286)"/><path class="cls-5" d="M400.89193,484.39387v44.40274h-9.417c0-4.70358-.12761-9.339.04491-13.96326.11492-3.08075-1.1869-3.90773-4.0754-3.78653-7.39942.31034-7.27557-1.496-7.26578,7.45493.00364,3.33344.00059,6.66686.00059,9.83076-.47974.316-.68751.56346-.92092.59061-8.23648.95786-8.29811.88413-8.27288-7.40051q.049-16.09744.04582-32.19511c.00329-5.30373-.008-5.30292,5.29-5.27879,1.04834.00477,2.09672.00069,4.0372.00069,0,4.74583.146,9.25375-.04628,13.74721-.15349,3.58653,1.7566,4.52194,4.74246,4.19477,2.7498-.30129,6.64687,1.11976,6.43316-4.11312-.131-3.20873.36624-6.44833.16212-9.64735-.21308-3.33961.88452-4.7945,4.3049-4.2654C397.39871,484.18886,398.87147,484.22561,400.89193,484.39387Z" transform="translate(-160.40011 -229.48286)"/><path class="cls-5" d="M246.12117,528.85755h-8.843V484.358H266.9879v30.96136c-4.64342,0-9.13426.0105-13.625-.00236-7.19528-.02061-7.19811-.0272-7.2399,7.02494C246.11112,524.34218,246.12117,526.34252,246.12117,528.85755Zm11.41237-22.512V493.44168c-3.79924.46607-8.55158-.2961-10.349,1.65872-1.69982,1.84865-1.62314,7.76606.11134,9.65937C249.06687,506.69293,253.80583,505.9071,257.53354,506.3455Z" transform="translate(-160.40011 -229.48286)"/><path class="cls-5" d="M228.95314,493.4679c-5.69166,0-11.02968.06626-16.36478-.02934-2.48626-.04454-3.7787.68143-3.55231,3.44126.1953,2.38075-.45566,5.077,3.35074,5.04366,1.98508-.01741,3.97208.18143,6.26956.29844v9.13054h-9.2717c-.13283,1.25532-.28508,2.15728-.31476,3.06322-.17165,5.23947.05793,5.48786,5.25213,5.51277,4.90873.02356,9.81766.00507,14.77153.00507v9.29517c-4.964,0-9.74876.00878-14.53343-.00268-4.02342-.00962-8.0468-.06325-12.07014-.05725-2.1077.00314-3.12572-.7635-3.11162-3.094q.11693-19.31473-.0004-38.63045c-.01626-2.70337,1.1973-3.48875,3.68021-3.44793,6.96605.11451,13.93535.03694,20.9011.16163,5.23888.09375,5.24319.18078,5.16878,5.41738C229.113,490.63677,229.03494,491.69728,228.95314,493.4679Z" transform="translate(-160.40011 -229.48286)"/></svg>