<svg id="Слой_1" data-name="Слой 1" xmlns="http://www.w3.org/2000/svg" viewBox="0 0 517.64272 348.82785"><defs><style>.cls-1{fill:#cb2b2b;}.cls-2{fill:#fff;}</style></defs><title>вгт лого</title><rect width="517.64272" height="348.82785"/><rect class="cls-1" y="273.59047" width="517.64272" height="75.23738"/><path class="cls-2" d="M330.75026,502.09424c.87611-1.01259,1.6191-2.029,2.51681-2.88265,4.99649-4.75105,12.1801-3.54445,15.37471,2.55579a20.75951,20.75951,0,0,1,2.0804,9.59805c.07089,6.77883.00466,13.559.05511,20.33816.00891,1.20013-.3819,1.61107-1.57016,1.55181-1.63552-.08155-3.27815-.02042-5.14057-.02042,0-.86676.00005-1.53625,0-2.20572-.00069-5.925.07638-11.85152-.04248-17.77413a30.08743,30.08743,0,0,0-.89567-6.55987,4.48158,4.48158,0,0,0-3.86413-3.638,4.5631,4.5631,0,0,0-4.99272,2.54583,15.36529,15.36529,0,0,0-1.60428,5.96828c-.19819,6.48865-.07494,12.98714-.07558,19.48182-.00007.6653,0,1.33057,0,2.17525-2.05857,0-3.87114-.00449-5.6837.0015-1.32391.00439-1.00331-.99444-1.00563-1.717-.01979-6.20979-.00681-12.41964-.01657-18.62948a18.89968,18.89968,0,0,0-.12921-3.2392,15.25607,15.25607,0,0,0-1.09151-3.91755c-1.48052-3.09444-4.86579-3.68075-7.38132-1.33674a9.88828,9.88828,0,0,0-2.95906,7.577c-.02561,6.32369-.00927,12.64754-.01,18.97132-.00008.67385,0,1.34768,0,2.15884H307.699V497.295h5.761c.07349,1.03642.15129,2.13392.2624,3.701,2.492-3.13878,5.35642-4.80867,9.10827-4.60329C326.68312,496.60354,328.99719,498.93809,330.75026,502.09424Z" transform="translate(-38.81643 -203.95088)"/><path class="cls-2" d="M220.18441,538.74808c4.587,2.81157,9.22088,4.657,13.94632,1.50384,3.74436-2.49849,3.59524-6.76913,3.7133-11.02559-.40281.2802-.588.38037-.7389.51816-5.54977,5.06945-12.928,4.37991-17.35157-1.71366-3.31844-4.57127-4.07539-9.81575-3.58979-15.29453a20.73565,20.73565,0,0,1,4.27139-11.52542c3.3292-4.13394,8.216-5.81908,12.7645-4.35417a11.21133,11.21133,0,0,1,2.73962,1.35326,26.28983,26.28983,0,0,1,2.48192,2.14469l.26118-3.064h5.84246a4.24653,4.24653,0,0,1,.17619.89646c-.071,9.91286-.1162,19.82617-.262,29.738a50.885,50.885,0,0,1-.6415,7.647c-1.50874,8.99184-8.191,13.86341-17.2213,12.44165a38.5213,38.5213,0,0,1-6.9151-2.27431,1.44468,1.44468,0,0,1-.895-2.05844C219.28132,542.1221,219.68046,540.52486,220.18441,538.74808Zm17.66333-24.12333-.237-.005a45.13659,45.13659,0,0,0-.03056-4.93656c-.397-3.58832-2.90809-6.38971-5.92921-6.85485-3.03965-.468-5.92876,1.33136-7.36691,4.87857a18.73375,18.73375,0,0,0-.0478,14.45465,6.93868,6.93868,0,0,0,4.654,4.41452c4.02412,1.11507,7.93092-1.787,8.62416-6.51255C237.77715,518.27282,237.74532,516.43893,237.84774,514.62475Z" transform="translate(-38.81643 -203.95088)"/><path class="cls-2" d="M207.979,514.975a22.78968,22.78968,0,0,1-2.20455,10.59733c-2.72885,5.37891-7.06386,8.49648-13.18234,8.43115-6.209-.0663-10.38423-3.49954-12.67561-9.05046a24.2052,24.2052,0,0,1,.32588-19.90926c2.58807-5.65885,7.07989-8.83542,13.50147-8.63265,6.3301.1999,10.40877,3.73774,12.55849,9.40313,1.09075,2.87464,1.42977,6.03457,2.10866,9.06552Zm-6.89595.18724a17.48845,17.48845,0,0,0-2.10432-8.87019c-2.86029-4.93015-8.97618-5.15629-11.744-.199a17.65764,17.65764,0,0,0-.08647,17.95759c2.872,5.1785,8.684,5.04806,11.76646-.04248A16.6624,16.6624,0,0,0,201.083,515.16224Z" transform="translate(-38.81643 -203.95088)"/><path class="cls-2" d="M150.84883,515.0987a22.01617,22.01617,0,0,1-2.47951,11.03751c-2.80942,5.11414-7.122,7.97877-13.01176,7.86856-5.89709-.11036-10.01066-3.28821-12.31716-8.54586a24.08469,24.08469,0,0,1,.3041-20.82763c2.64243-5.50063,7.15527-8.46347,13.41231-8.21679,6.08927.2401,10.14557,3.58252,12.27319,9.04655,1.17484,3.01719,1.56568,6.33966,2.31,9.52448Zm-6.88774.15813a17.13025,17.13025,0,0,0-2.21756-9.1798c-2.87118-4.71085-8.84408-4.86312-11.56838-.06162a17.59738,17.59738,0,0,0-.09725,18.10026c2.85051,5.08785,8.61288,4.96037,11.679-.0253A16.3904,16.3904,0,0,0,143.96109,515.25683Z" transform="translate(-38.81643 -203.95088)"/><path class="cls-2" d="M281.7614,497.1409a6.23217,6.23217,0,0,1-.119,1.0603c-3.9582,11.994-7.81807,24.02231-11.96459,35.95094a40.55737,40.55737,0,0,1-4.69267,8.86006,14.29182,14.29182,0,0,1-8.94413,6.20426c-.56391-2.224-1.101-4.34207-1.66345-6.56046a16.51218,16.51218,0,0,0,8.9014-9.10038,5.45631,5.45631,0,0,0,.16788-4.26953c-3.40769-9.95955-6.757-19.939-10.12063-29.91367-.21533-.63855-.39173-1.29028-.67139-2.21847,2.3107,0,4.44821-.07657,6.571.06564.41628.02789.96088.84406,1.13363,1.39476,2.31606,7.383,4.57655,14.7834,6.851,22.17946.099.322.19945.64355.45454,1.46635.28342-.89724.44786-1.37378.58478-1.8581,2.04342-7.22721,4.11382-14.447,6.09386-21.69157.33236-1.21608.8457-1.66966,2.10192-1.59539C278.18432,497.21792,279.93367,497.1409,281.7614,497.1409Z" transform="translate(-38.81643 -203.95088)"/><path class="cls-2" d="M425.92829,517.08293c-.721,5.55,3.31681,10.56171,8.60819,10.44525,2.95123-.06493,5.88635-.86305,9.06669-1.3686.2514,1.24219.68924,2.94209.8751,4.66911.04316.40131-.68686,1.10365-1.205,1.31525-10.08714,4.11934-21.93132,1.94818-23.89232-12.73447-.76514-5.72861-.083-11.28769,2.919-16.343,2.52976-4.26,6.22588-6.70646,11.34443-6.68444a10.75883,10.75883,0,0,1,9.66237,5.42342c2.675,4.35152,3.20923,9.17259,2.87,14.16122-.081,1.19256-.85831,1.12073-1.68339,1.11967q-8.37522-.01071-16.75045-.00334C427.12951,517.083,426.516,517.08293,425.92829,517.08293Zm13.55771-6.07047c.48464-4.65781-2.35781-8.58287-6.1967-8.65063-3.87254-.06834-7.40756,4.14413-7.16563,8.65063Z" transform="translate(-38.81643 -203.95088)"/><path class="cls-2" d="M61.14113,517.08291c-.57917,5.96355,3.48206,10.67365,9.1623,10.4531,2.77921-.10789,5.53141-.91166,8.52487-1.441.27122,1.33946.669,3.03822.9164,4.75857.04727.32874-.416.88956-.78291,1.09614-10.71638,6.03366-22.60738.15555-24.31061-12.043a25.77765,25.77765,0,0,1,2.3797-15.96486c2.3889-4.53318,5.99894-7.38483,11.34822-7.55173a10.90169,10.90169,0,0,1,10.51651,6.01923c2.35186,4.22766,2.85414,8.82287,2.48124,13.579-.09835,1.2544-.89232,1.0918-1.67609,1.09234q-8.37656.00567-16.75313.00221C62.33624,517.08291,61.72485,517.08291,61.14113,517.08291Zm13.51816-6.06711c.55349-4.46315-2.16148-8.436-5.8262-8.64585-4.02451-.23037-7.64312,3.87743-7.54226,8.64585Z" transform="translate(-38.81643 -203.95088)"/><path class="cls-2" d="M501.37436,504.97264c-.369-1.295-.88565-2.90522-1.24872-4.54937a1.54026,1.54026,0,0,1,.67905-1.1802c4.33847-2.83887,9.0482-3.7636,14.00786-2.10714,4.41374,1.47412,6.11391,5.17846,6.918,9.40852a19.69714,19.69714,0,0,1,.36249,3.39468c.05222,3.87348.03886,7.74788.04366,11.62194.00472,3.80347.001,7.60694.001,11.657-1.417,0-3.21866.03815-5.01548-.03862-.28972-.01238-.69746-.4928-.80408-.83393a11.52273,11.52273,0,0,1-.248-2.04458c-.49323.3608-.80566.556-1.08.79509-3.47319,3.0274-8.09942,3.80584-11.74482,1.968-3.58407-1.807-5.76658-6.27276-5.30946-10.864.6662-6.69127,4.94956-10.87137,12.37311-12.02,1.618-.25035,3.25594-.3715,4.8621-.54966.62206-4.82091-2.26964-7.83886-6.91712-6.98529A49.338,49.338,0,0,0,501.37436,504.97264Zm14.31407,10.328a54.60667,54.60667,0,0,0-6.58143,1.224c-3.6957,1.17473-5.28261,4.62168-4.10027,8.34654a4.03732,4.03732,0,0,0,4.88365,2.95313,6.37888,6.37888,0,0,0,5.32294-5.34538A55.13277,55.13277,0,0,0,515.68843,515.30061Z" transform="translate(-38.81643 -203.95088)"/><path class="cls-2" d="M377.7905,509.63891c.719-4.48611-2.22868-7.78753-6.54444-7.05258a52.21192,52.21192,0,0,0-7.25447,2.33753c-.35631-1.22378-.87944-2.82069-1.24944-4.45233a1.52542,1.52542,0,0,1,.64419-1.20537c4.44781-2.9146,9.24975-3.79554,14.32756-2.03676a9.06673,9.06673,0,0,1,5.83809,6.4903,31.5136,31.5136,0,0,1,1.105,7.55681c.14294,7.22341.05022,14.4515.05022,21.94662-1.33059,0-3.13437.0479-4.93094-.04452-.32032-.01647-.74613-.56726-.88248-.95583a9.33758,9.33758,0,0,1-.248-1.93045c-1.04175.79185-1.884,1.548-2.83159,2.13371-6.57158,4.06217-14.26456.329-15.17009-7.337-.93458-7.9119,3.71925-13.57977,12.285-14.9113C374.54538,509.92642,376.18322,509.81343,377.7905,509.63891Zm.27244,5.74135a51.98351,51.98351,0,0,0-6.04123,1.04143c-3.857,1.13822-5.53067,4.42-4.45774,8.29551a4.0844,4.0844,0,0,0,4.9362,3.11632A6.9194,6.9194,0,0,0,378.029,521.662C378.21344,519.75557,378.06294,517.81669,378.06294,515.38026Z" transform="translate(-38.81643 -203.95088)"/><path class="cls-2" d="M397.9415,503.397h-4.34273v-6.19968h4.3429c0-2.37031.0769-4.51738-.02993-6.65524a1.68569,1.68569,0,0,1,1.51185-2.00334c1.63847-.42429,3.23778-.99985,5.15161-1.60519v10.14365h7.43762v6.28307h-7.33626c-.04007.71672-.09677,1.26438-.09735,1.81207q-.0087,8.11222-.00134,16.22446c0,.11384-.00175.22783.00284.34153.21166,5.32709,1.58637,6.32114,6.17708,5.18981a4.1037,4.1037,0,0,1,.80959-.00653c.09593,1.81119.25516,3.56048.22756,5.30676-.00584.37084-.63254.93185-1.07568,1.06562-5.99594,1.81011-11.75192.13121-12.37165-7.18939-.56491-6.6726-.30458-13.41512-.40452-20.12688C397.9314,505.19309,397.9415,504.40815,397.9415,503.397Z" transform="translate(-38.81643 -203.95088)"/><path class="cls-2" d="M112.6703,525.49748c.36039,1.85585.758,3.46184.93681,5.09183a1.9408,1.9408,0,0,1-.79458,1.54242,15.14336,15.14336,0,0,1-21.4727-7.009,23.366,23.366,0,0,1,.29677-19.71322,15.67822,15.67822,0,0,1,20.65947-7.72239c1.23263.526,1.85158,1.08495,1.32257,2.54759a40.77171,40.77171,0,0,0-1.08438,4.21985,44.15422,44.15422,0,0,0-6.13068-1.44934c-4.01894-.375-6.96372,1.52212-8.61928,5.13848a16.54968,16.54968,0,0,0-.19687,13.76027c2.09747,4.97007,6.91066,6.79,12.23391,4.81993C110.71623,526.39268,111.57761,525.97091,112.6703,525.49748Z" transform="translate(-38.81643 -203.95088)"/><path class="cls-2" d="M161.01,481.10363h6.821v1.92511c0,16.05035-.02381,32.10077.03634,48.15089.00612,1.6319-.41282,2.26492-2.074,2.07967a20.7633,20.7633,0,0,0-3.41154-.011c-1.03217.05611-1.422-.3317-1.38671-1.37422.05962-1.76235.015-3.52823.015-5.29263q-.00019-21.685,0-43.37007Z" transform="translate(-38.81643 -203.95088)"/><path class="cls-2" d="M534.21841,481.10881h6.61108c.03364.63025.08875,1.18249.08892,1.73472.00463,16.16459-.01487,32.32925.0351,48.49367.00455,1.474-.34524,2.05715-1.89087,1.9273-1.56771-.13167-3.155-.029-4.84423-.029Z" transform="translate(-38.81643 -203.95088)"/><path class="cls-2" d="M463.011,533.1569h-6.66443V497.14608c1.54467,0,3.18088-.0598,4.80637.04529a1.46048,1.46048,0,0,1,1.00563.95832,21.3715,21.3715,0,0,1,.0478,3.21054c.67179-.83243,1.03169-1.293,1.40686-1.74075a7.97357,7.97357,0,0,1,6.98892-3.21213c1.085.08007,1.65655.44128,1.60579,1.66172-.07991,1.92149-.02129,3.84877-.02129,5.75627-.31214.09738-.47337.20444-.61631.184-3.98663-.57019-6.31463.709-7.56845,4.56777a20.64937,20.64937,0,0,0-.94618,5.8517c-.12328,5.57488-.04417,11.15421-.04471,16.73181C463.01091,531.77191,463.011,532.38321,463.011,533.1569Z" transform="translate(-38.81643 -203.95088)"/><path class="cls-2" d="M487.81682,533.22108c-1.997,0-3.91478.03526-5.82841-.038-.28654-.011-.61609-.4948-.80742-.82785-.12415-.21623-.0384-.55582-.03845-.84013q-.00112-16.38263.004-32.76521c.00025-.44471.06521-.88939.11051-1.46819h6.55976Z" transform="translate(-38.81643 -203.95088)"/><path class="cls-2" d="M488.55837,488.16474a4.25219,4.25219,0,0,1-4.03481,4.58054c-2.26079.02648-4.00387-1.96777-4.01235-4.59056-.00847-2.61428,1.68448-4.61444,3.95144-4.66855C486.80735,483.43023,488.54463,485.41474,488.55837,488.16474Z" transform="translate(-38.81643 -203.95088)"/><path class="cls-2" d="M346.53855,370.21566H319.0378V339.4504h66.647c.032.6317.08919,1.23506.08927,1.83844q.00657,44.11286.04162,88.22567a2.07324,2.07324,0,0,1-1.80634,2.36018c-22.15091,6.73945-44.75919,10.22112-68.00979,9.01021-12.98828-.67644-25.73794-2.70741-37.8301-7.57037-23.10214-9.29074-38.59676-25.56615-45.97858-48.79922a97.07,97.07,0,0,1,.93886-62.85835c8.911-25.40522,27.295-41.9598,52.799-51.34822a123.53826,123.53826,0,0,1,41.0916-7.22016c15.95805-.24686,31.69069,1.20877,46.92937,6.1566,1.98414.64424,3.90463,1.47427,5.9886,2.26938-2.8637,10.62125-5.67892,21.06246-8.52936,31.63447-2.55444-.91583-4.90756-1.90162-7.34557-2.611-18.52311-5.38929-37.30367-7.12482-56.06731-1.79051-21.16253,6.0163-33.15171,20.33756-36.67392,41.332-2.07951,12.39486-1.35317,24.70225,3.3551,36.51838,7.35542,18.45958,21.56052,28.72477,41.39931,31.81258a76.85659,76.85659,0,0,0,26.89979-.64077c3.57663-.70873,3.56219-.778,3.56219-4.27078v-30.9474C346.53857,371.87359,346.53855,371.19562,346.53855,370.21566Z" transform="translate(-38.81643 -203.95088)"/><path class="cls-2" d="M219.01131,264.82625c-2.09544,6.05052-4.07333,11.76018-6.05031,17.47014Q186.09086,359.903,159.25286,437.52021a2.23873,2.23873,0,0,1-2.5488,1.8183q-21.87189-.09112-43.74433-.006a2.02151,2.02151,0,0,1-2.34087-1.617Q82.49323,352.153,54.30043,266.61135c-.1583-.48072-.28318-.97184-.4919-1.69433.74274-.0346,1.34615-.087,1.94957-.08725,13.52745-.00466,27.055.02513,40.58214-.04279,1.54987-.00777,2.05828.51807,2.45751,1.88583,9.35051,32.035,18.91545,64.01172,28.06008,96.102,3.41984,12.00084,5.88119,24.26028,8.78436,36.40071a3.50252,3.50252,0,0,0,.86936,1.728,7.11916,7.11916,0,0,0,.4531-1.14068c7.05895-33.28406,17.62946-65.63426,27.56068-98.15406,3.56627-11.67773,7.18826-23.3394,10.72233-35.0263a2.059,2.059,0,0,1,2.374-1.79434c13.11717.06566,26.23484.03817,39.35235.03818Z" transform="translate(-38.81643 -203.95088)"/><path class="cls-2" d="M451.90274,298.0409H403.8532V264.97054H541.46706v33.04195H492.71429v141.1847H451.90274Z" transform="translate(-38.81643 -203.95088)"/></svg>