<svg width="58" height="61" viewBox="0 0 58 61" fill="none" xmlns="http://www.w3.org/2000/svg">
<g clip-path="url(#clip0_28_108)">
<path d="M44.8182 9.24511C44.9592 8.89993 44.6771 8.57275 44.6771 8.57275C44.6771 8.57275 42.4604 4.78772 34.6652 3.93377C30.475 3.48653 24.7929 4.34048 20.8053 6.51815C13.5534 10.4458 12.4653 16.9367 12.4653 16.9367C12.4248 17.1003 12.3648 17.5881 12.5254 17.7922C12.6859 17.9948 12.9276 17.9948 13.2307 17.8942C15.7881 17.0193 23.3837 14.4754 28.1787 13.1922C35.0074 11.3612 40.6279 10.2416 44.2133 9.63232C44.4955 9.57079 44.7176 9.48974 44.8182 9.24511Z" fill="#DFDFDF"/>
<path d="M52.6149 39.8104C48.5253 49.0899 40.6896 55.5418 30.3955 55.6829C22.9215 55.785 16.3135 53.2006 11.5394 48.6832L8.65789 49.9243V45.4069C5.5152 41.1341 3.68272 35.6997 3.68272 29.5539C3.68272 13.7835 15.6291 1.37031 32.3091 1.37031C35.0285 1.37031 37.4868 1.79804 39.3388 2.22577C36.4783 1.31028 33.6388 0.800003 30.4751 0.800003C12.5855 0.800003 0.540039 15.4524 0.540039 30.5715C0.540039 47.0353 13.3314 60.8322 30.1134 60.8322C46.148 60.8322 54.7911 49.4156 57.5706 42.5374L52.6149 39.8104Z" fill="#DFDFDF"/>
<path d="M48.4651 36.5537C50.8213 36.2896 52.4527 35.3321 53.3397 34.4376C54.1456 33.6242 54.3452 32.5256 54.3452 31.6911C54.3872 30.4695 54.3452 26.6439 54.3452 26.6439L48.1214 28.0082V29.4729C48.1424 30.4485 48.6061 30.9782 49.6132 30.7951C49.9344 30.7351 50.4176 30.591 50.4176 30.591V31.7917C50.4176 31.7512 50.5197 32.464 48.9468 32.7687C46.8937 33.0944 45.9662 31.8127 45.9452 29.554C45.9872 27.1332 47.3365 25.7494 48.9889 25.3622C50.8408 24.9345 51.8884 25.3832 52.4932 25.4643C54.5478 25.769 55.1316 22.6563 53.2586 21.9224C51.8689 21.3536 50.0769 21.2515 48.363 21.5982C46.0668 22.065 41.5749 23.9995 41.5554 30.2879C41.5344 35.2916 45.1813 36.9214 48.4651 36.5537ZM28.2192 41.9056C28.2192 41.9056 30.1327 41.2347 30.2933 41.1927C31.8242 40.6644 32.3885 39.7279 32.3885 38.1416C32.3689 36.4112 32.3689 33.0328 32.3689 33.0328L36.8203 38.2016C37.5452 38.955 38.4517 39.0166 39.2786 38.7719C40.1236 38.5273 40.8485 37.7349 40.8695 36.6153V23.7744C40.8695 23.7744 39.7214 24.019 38.7744 24.2847C37.6863 24.5893 36.8413 25.3007 36.8413 27.1737V31.6296C36.8413 31.6296 34.302 28.4344 32.6706 26.7865C31.8046 25.9115 30.3549 26.4413 30.3549 26.4413L28.2192 27.0912V41.9041V41.9056ZM26.8685 27.4183C26.8685 27.4183 25.5388 27.804 24.4522 28.2108C23.0414 28.721 22.216 29.554 22.216 31.7106V44.0232C22.216 44.0232 23.4452 43.597 24.6128 43.1483C26.2442 42.5179 26.8685 41.6625 26.8685 39.9335V27.4198V27.4183ZM20.2409 30.3479C19.7745 30.116 19.2389 30.0646 18.7369 30.2037C18.2349 30.3427 17.802 30.6624 17.5215 31.1013L13.7545 37.5923V32.362L9.28207 34.214L9.26256 48.9879L12.4052 47.6642C12.4052 47.6642 13.0296 47.4811 13.3928 46.8913C13.735 46.342 13.7139 45.446 13.7139 45.446V40.7665L17.2198 44.5305C17.9852 45.3454 19.396 45.7522 20.6432 44.7346C21.7718 43.8191 21.5902 42.2523 20.9658 41.5394L17.7841 38.3052C17.7841 38.3052 20.5831 33.8283 21.0469 33.0959C21.6502 32.0783 21.3485 30.8567 20.2409 30.3494V30.3479ZM18.4895 47.7272C18.3274 48.1129 18.7101 48.5001 18.7101 48.5001C20.322 50.5562 27.5138 53.1601 35.33 51.2466C47.2569 48.3365 49.7738 39.8105 50.0559 38.6098C50.116 38.3652 50.1565 37.9795 49.9359 37.7349C49.7543 37.5308 49.4721 37.5308 49.1104 37.6133C40.811 39.5869 27.0516 43.8401 19.0943 47.2785C18.7506 47.4211 18.6096 47.4826 18.4895 47.7272ZM11.4177 28.3533C11.3982 27.5399 10.7724 27.0927 9.7068 27.6405V30.2669C9.7068 30.2669 10.0475 30.1018 10.3101 29.9817C10.9555 29.6755 11.4387 29.1473 11.4177 28.3533ZM9.68579 25.9731C9.88689 25.8905 10.028 25.8305 10.1886 25.7479C10.7739 25.4628 11.1956 24.915 11.1956 24.2231C11.1956 23.4277 10.5518 23.2251 9.68579 23.6738V25.9731ZM14.2782 27.9661C14.3188 30.0417 12.848 31.1403 10.9149 31.9343L6.98584 33.6227V22.8589C6.98584 22.8589 9.46367 21.8413 10.2696 21.5367C12.5658 20.6812 13.9166 21.7198 13.9166 23.2656C13.9166 24.3042 13.4723 25.1791 12.5253 25.9521C13.4528 26.1141 14.2587 26.8886 14.2782 27.9661ZM21.7312 18.8893C21.7312 17.9738 21.1069 17.7502 20.361 17.9543C19.7577 18.1374 19.0523 18.4015 19.0523 18.4015V25.0951C19.0523 25.7675 18.9518 26.6019 18.1248 26.806C17.5005 26.9681 17.1988 26.5404 17.1988 25.8695V20.3961C17.1988 19.4806 16.5745 19.2149 15.8286 19.4596C14.9836 19.7447 14.4989 19.9473 14.4989 19.9473V26.5809C14.4794 28.7991 16.0102 29.9187 18.3064 29.2268C20.3415 28.616 21.7102 27.4559 21.7312 24.5068V18.8893ZM43.61 21.6582C44.1938 21.5352 44.5555 21.109 44.5555 20.3766V19.2164L41.3738 19.9278V18.0368C41.3738 18.0368 42.9451 17.7111 43.3683 17.6091C43.9116 17.486 44.1938 17.1813 44.1938 16.551V15.4524L41.3723 16.0617V14.5564L43.6295 14.0882C44.2538 13.9666 44.4549 13.5389 44.4549 12.9476V11.81C43.0457 12.0531 40.3667 12.6024 38.6948 12.9896L38.6738 22.7974C38.6738 22.7974 41.857 22.044 43.61 21.6567V21.6582ZM25.1576 21.2515C25.1576 21.2515 26.7289 20.4171 26.7289 19.1144C26.7079 17.9963 25.7009 18.2394 25.1771 18.4435L25.1576 21.25V21.2515ZM25.1771 22.7778V25.4223C25.1771 26.1351 24.6938 26.6439 24.089 26.8886C24.089 26.9081 24.089 26.8675 24.089 26.8886C23.5862 27.0716 22.4982 27.4378 22.4982 27.4378V17.3239C22.4982 17.3239 24.7344 16.53 26.0431 16.2253C28.0571 15.7376 29.5084 16.6726 29.4874 18.3415C29.4679 19.9278 28.6019 20.8853 27.8155 21.5562L29.5489 23.2251C29.8123 23.4996 29.9577 23.8665 29.9537 24.2469C29.9498 24.6274 29.7969 24.9911 29.5279 25.2602C29.1647 25.6054 28.2192 25.9505 27.4928 25.1791C27.4733 25.1791 25.1771 22.7778 25.1771 22.7778ZM47.7597 15.8186C47.7597 15.8186 49.31 15.2273 49.2905 13.9666C49.271 12.9086 48.243 13.0917 47.7402 13.2132L47.7597 15.8186ZM45.1408 21.3521V11.6674C45.1408 11.6674 47.9413 11.1571 48.6662 11.0761C50.6803 10.8119 52.0295 11.951 51.9905 13.5389C51.9694 14.9436 51.1035 15.7976 50.3576 16.3064C50.3576 16.3064 51.7278 17.8522 52.091 18.2799C52.5743 18.8292 52.5533 19.7852 51.8284 20.2535C51.5472 20.4477 51.2039 20.5303 50.8652 20.4854C50.5265 20.4404 50.2167 20.2711 49.9959 20.0104L47.7597 17.3239V19.6847C47.7597 20.3961 47.3365 20.9259 46.6116 21.0684L45.1408 21.3536V21.3521Z" fill="#DFDFDF"/>
<path d="M38.0498 17.2834L34.0817 18.1989V19.3185C34.0817 19.8468 34.4434 20.174 34.9672 20.0704C35.2899 20.0104 35.5525 19.9488 35.5525 19.9488V21.0684C35.5525 21.5157 34.9072 21.8008 34.2228 21.7798C33.2548 21.7393 32.731 20.9874 32.7115 19.5616C32.7325 17.6901 33.618 16.59 34.8066 16.2869C35.3919 16.1233 35.9352 16.2043 36.3584 16.2659C37.385 16.428 37.9688 15.9402 37.9898 15.0862C38.0093 14.1707 37.2034 13.6004 35.491 13.6605C31.745 13.7835 29.8314 16.5105 29.8314 19.7447C29.8314 23.0615 31.9866 24.5278 34.604 24.0595C36.0748 23.7534 36.8207 23.2656 37.325 22.8184C37.8277 22.3711 38.0498 21.6988 38.0498 21.1075V17.2834ZM22.3965 6.4371C18.0051 8.38965 15.0425 13.0496 14.8819 15.0037C14.8219 15.7766 15.8499 15.8982 15.9505 15.0637C16.8765 11.4828 19.6965 8.10449 22.3965 6.4371ZM36.9212 9.77489C39.2775 9.18357 40.5877 9.10253 40.6087 8.02345C40.6477 6.23299 35.611 4.15738 30.9795 4.54459C35.6921 4.87026 38.5136 6.70124 38.5136 7.96342C38.5331 8.77685 37.8277 9.48974 36.9227 9.77339L36.9212 9.77489ZM38.3725 49.252C41.9174 47.8488 45.3212 45.1428 47.2153 41.1132C47.76 39.9531 46.1887 39.3422 45.7445 40.726C44.3399 44.3307 41.7366 47.3416 38.3725 49.252Z" fill="#DFDFDF"/>
</g>
<defs>
<clipPath id="clip0_28_108">
<rect width="57.0306" height="60.0322" fill="white" transform="translate(0.540039 0.800003)"/>
</clipPath>
</defs>
</svg>
