<svg width="52" height="52" viewBox="0 0 52 52" fill="none" xmlns="http://www.w3.org/2000/svg">
<g clip-path="url(#clip0_28_106)">
<path fill-rule="evenodd" clip-rule="evenodd" d="M0.399902 0.302475H51.4273V51.3298H0.399902V0.302475ZM15.6241 33.2902C15.6241 34.1081 16.457 34.4563 17.0588 34.4563C17.4565 34.4563 17.8317 34.3182 17.9773 34.2162C17.6727 33.8875 16.2259 32.2636 16.2259 32.2636C15.9377 32.4617 15.6256 32.8114 15.6256 33.2902H15.6241ZM20.8213 32.5323C20.8213 33.041 20.7763 33.6954 20.4702 34.2312L22.1466 36.0982H19.6822L19.292 35.6749C18.7367 36.0441 17.9488 36.2753 17.1129 36.2753C14.6756 36.2753 13.2948 35.1121 13.2948 33.3532C13.2948 32.0895 14.1113 31.3016 14.8977 30.9339C14.3064 30.3876 14.1773 29.7783 14.1773 29.3881C14.1773 27.9953 15.3059 27.0723 17.0633 27.0723C18.6842 27.0723 19.8458 27.9308 19.8458 29.3325V29.8878H17.7372V29.4616C17.7372 29.1074 17.5196 28.8538 17.1129 28.8538C16.7347 28.8538 16.4825 29.0819 16.4825 29.4226C16.4825 29.7137 16.6116 29.9028 16.8097 30.149L18.8643 32.4452V31.1515H20.8213V32.5323V32.5323ZM26.9161 31.5837C27.5765 31.5837 27.9397 31.144 27.9397 30.5347C27.9397 29.8758 27.5885 29.4631 26.9161 29.4631H25.5759V31.5837H26.9161ZM26.3728 33.7749H25.5759V36.0982H22.8069V27.2494H27.2313C29.4825 27.2494 30.7086 28.5896 30.7086 30.5212C30.7086 31.7894 30.1398 32.7604 29.1913 33.3052L30.9473 36.0982H27.725L26.3743 33.7749H26.3728ZM6.98243 27.2494H4.21195V36.0982H6.98243V32.927H9.25765V36.0982H12.0266V27.2494H9.25765V30.3966H6.98243V27.2494V27.2494ZM8.69035 45.4016C9.13008 45.4016 9.38522 45.0745 9.38522 44.6482C9.38522 44.2535 9.11507 43.9159 8.67534 43.9159H6.83685V45.4016H8.69035ZM8.14105 42.0368C8.57628 42.0368 8.81041 41.7217 8.81041 41.2984C8.81041 40.9157 8.54927 40.6156 8.14105 40.6156H6.85786V42.0368H8.14105V42.0368ZM4.22395 38.5835H8.81191C10.4688 38.5835 11.4413 39.544 11.4413 40.8707C11.4413 41.7682 11.0106 42.5036 10.2812 42.8563C11.3408 43.0949 11.9861 43.8153 11.9861 44.9184C11.9861 46.4102 10.8995 47.4337 8.87645 47.4337H4.22395V38.5835ZM15.8897 38.5835H13.1237V47.4337H19.4826V45.1345H15.8882V38.5835H15.8897ZM25.8851 43.7298V42.289C25.8851 41.2639 25.3673 40.7086 24.4293 40.7086C23.4943 40.7086 22.975 41.2639 22.975 42.289V43.7298C22.975 44.7518 23.4943 45.3101 24.4293 45.3101C25.3673 45.3101 25.8851 44.7518 25.8851 43.7298ZM20.206 43.5647V42.4541C20.206 40.0513 21.6618 38.4064 24.4293 38.4064C27.1998 38.4064 28.654 40.0513 28.654 42.4541V43.5647C28.654 45.969 27.1983 47.6108 24.4293 47.6108C21.6618 47.6108 20.206 45.9705 20.206 43.5662V43.5647ZM35.16 43.9969C35.109 44.6422 34.7548 45.3101 33.7823 45.3101C32.8338 45.3101 32.3805 44.6903 32.3805 43.7162V42.3025C32.3805 41.3285 32.8338 40.7086 33.7823 40.7086C34.7548 40.7086 35.109 41.378 35.16 42.0248H37.7774C37.7159 40.0258 36.3247 38.4064 33.8333 38.4064C30.9758 38.4064 29.6131 40.0258 29.6131 42.4286V43.5917C29.6131 45.993 30.9773 47.6108 33.8333 47.6108C36.3247 47.6108 37.7159 45.9915 37.7774 43.9984H35.1585L35.16 43.9969ZM39.2902 38.5835H42.0577V41.6631H42.2318L44.0313 38.5835H47.1365L44.8162 42.5756L47.3976 47.4337H44.1048L42.2783 43.7478H42.0577V47.4337H39.2902V38.5835V38.5835ZM48.4902 39.0127C48.4902 39.0547 48.4632 39.0833 48.4151 39.0833H48.3551V38.9482H48.4151C48.4632 38.9482 48.4902 38.9752 48.4902 39.0127ZM48.3551 39.2348H48.3956L48.4827 39.4059H48.7123L48.5922 39.1958C48.6216 39.1753 48.6455 39.1479 48.6617 39.1159C48.678 39.084 48.686 39.0485 48.6853 39.0127C48.6853 38.8746 48.6027 38.7876 48.4406 38.7876H48.157V39.4059H48.3536V39.2348H48.3551ZM48.4031 38.5415C48.7678 38.5415 48.9779 38.7906 48.9779 39.1193C48.9779 39.442 48.7678 39.6956 48.4031 39.6956C48.0399 39.6956 47.8298 39.4405 47.8298 39.1193C47.8298 38.7906 48.0399 38.5415 48.4031 38.5415V38.5415ZM48.4031 38.4064C48.3072 38.4017 48.2113 38.4167 48.1215 38.4505C48.0316 38.4844 47.9496 38.5363 47.8807 38.6032C47.8117 38.67 47.7572 38.7503 47.7206 38.8391C47.684 38.9279 47.666 39.0233 47.6677 39.1193C47.6677 39.5065 47.9514 39.8307 48.4031 39.8307C48.8534 39.8307 49.1385 39.5065 49.1385 39.1193C49.1403 39.0233 49.1223 38.9279 49.0857 38.8391C49.049 38.7503 48.9946 38.67 48.9256 38.6032C48.8566 38.5363 48.7747 38.4844 48.6848 38.4505C48.5949 38.4167 48.4991 38.4017 48.4031 38.4064Z" fill="#DFDFDF"/>
</g>
<defs>
<clipPath id="clip0_28_106">
<rect width="51.0274" height="51.0274" fill="white" transform="translate(0.399902 0.302475)"/>
</clipPath>
</defs>
</svg>
